<svg width="40" height="40" viewBox="0 0 40 40" fill="none" xmlns="http://www.w3.org/2000/svg">
<path d="M1.66602 30C1.91602 27.0278 2.82602 24.2917 4.39602 21.7917C5.96602 19.2917 8.05602 17.3056 10.666 15.8333L7.58268 10.5C7.41602 10.25 7.37435 9.98611 7.45768 9.70833C7.54102 9.43056 7.72157 9.22222 7.99935 9.08333C8.22157 8.94444 8.47157 8.91667 8.74935 9C9.02713 9.08333 9.24935 9.25 9.41602 9.5L12.4993 14.8333C14.8882 13.8333 17.3882 13.3333 19.9993 13.3333C22.6105 13.3333 25.1105 13.8333 27.4993 14.8333L30.5827 9.5C30.7494 9.25 30.9716 9.08333 31.2493 9C31.5271 8.91667 31.7771 8.94444 31.9994 9.08333C32.2771 9.22222 32.4577 9.43056 32.541 9.70833C32.6243 9.98611 32.5827 10.25 32.416 10.5L29.3327 15.8333C31.9438 17.3056 34.0338 19.2917 35.6027 21.7917C37.1716 24.2917 38.0816 27.0278 38.3327 30H1.66602ZM11.666 25.4167C12.2493 25.4167 12.7427 25.215 13.146 24.8117C13.5493 24.4083 13.7505 23.9156 13.7493 23.3333C13.7482 22.7511 13.5466 22.2578 13.1444 21.8533C12.7421 21.4489 12.2493 21.2478 11.666 21.25C11.0827 21.2522 10.5893 21.4539 10.186 21.855C9.78268 22.2561 9.58157 22.7489 9.58268 23.3333C9.58379 23.9178 9.78546 24.4111 10.1877 24.8133C10.5899 25.2156 11.0827 25.4167 11.666 25.4167ZM28.3327 25.4167C28.916 25.4167 29.4094 25.215 29.8127 24.8117C30.216 24.4083 30.4171 23.9156 30.416 23.3333C30.4149 22.7511 30.2132 22.2578 29.811 21.8533C29.4088 21.4489 28.916 21.2478 28.3327 21.25C27.7493 21.2522 27.256 21.4539 26.8527 21.855C26.4493 22.2561 26.2482 22.7489 26.2493 23.3333C26.2505 23.9178 26.4521 24.4111 26.8544 24.8133C27.2566 25.2156 27.7493 25.4167 28.3327 25.4167Z" fill="#F0FEFF"/>
</svg>
