<svg width="33" height="40" viewBox="0 0 33 40" fill="none" xmlns="http://www.w3.org/2000/svg">
<g clip-path="url(#clip0_877_810)">
<path d="M27.5606 21.2102C27.6176 27.2521 32.9411 29.2626 33 29.2883C32.9549 29.43 32.1494 32.1534 30.1954 34.9665C28.5062 37.3986 26.753 39.8217 23.9912 39.8719C21.2777 39.9211 20.405 38.2867 17.3025 38.2867C14.2009 38.2867 13.2314 39.8217 10.6625 39.9211C7.99673 40.0206 5.96672 37.2913 4.26361 34.8681C0.783139 29.9115 -1.87658 20.8617 1.69476 14.753C3.4689 11.7194 6.63961 9.79848 10.0809 9.74921C12.6986 9.70006 15.1695 11.4841 16.7697 11.4841C18.3689 11.4841 21.3715 9.33867 24.5281 9.65372C25.8493 9.70794 29.5588 10.1794 31.9406 13.6138C31.7485 13.731 27.5146 16.1591 27.5606 21.2103M22.4607 6.37448C23.876 4.68686 24.8285 2.33765 24.5687 0C22.5286 0.0807619 20.0618 1.33917 18.5985 3.02578C17.2871 4.51949 16.1387 6.9101 16.4486 9.2014C18.7225 9.37473 21.0453 8.06311 22.4607 6.37448Z" fill="#F0FEFF"/>
</g>
<defs>
<clipPath id="clip0_877_810">
<rect width="33" height="40" fill="white"/>
</clipPath>
</defs>
</svg>
