<svg width="40" height="48" viewBox="0 0 40 48" fill="none" xmlns="http://www.w3.org/2000/svg">
<path d="M33.409 25.5262C33.4333 23.6864 33.9338 21.8825 34.8641 20.2823C35.7944 18.6821 37.1241 17.3376 38.7296 16.374C37.7097 14.9519 36.3642 13.7816 34.7999 12.9559C33.2357 12.1303 31.4958 11.6722 29.7185 11.6179C25.9271 11.2294 22.2516 13.8328 20.3195 13.8328C18.3501 13.8328 15.3755 11.6565 12.1723 11.7208C10.1004 11.7862 8.08119 12.3744 6.31137 13.4281C4.54154 14.4819 3.08149 15.9653 2.07347 17.7338C-2.29296 25.1145 0.96401 35.9618 5.14676 41.9279C7.2395 44.8494 9.68528 48.1127 12.8856 47.997C16.0173 47.8701 17.1869 46.0473 20.9671 46.0473C24.7122 46.0473 25.8095 47.997 29.0747 47.9234C32.4352 47.8701 34.5524 44.989 36.5718 42.0399C38.0754 39.9583 39.2324 37.6576 40 35.2232C38.0477 34.417 36.3816 33.0676 35.2095 31.3432C34.0375 29.6188 33.4113 27.5957 33.409 25.5262Z" fill="#3E45FB"/>
<path d="M27.2416 7.69426C29.0739 5.54685 29.9765 2.78671 29.758 0C26.9587 0.287038 24.373 1.59319 22.516 3.65821C21.608 4.66703 20.9126 5.84066 20.4695 7.11201C20.0265 8.38336 19.8444 9.72751 19.9337 11.0676C21.3338 11.0817 22.719 10.7854 23.9848 10.2011C25.2507 9.61675 26.3642 8.75963 27.2416 7.69426Z" fill="#3E45FB"/>
</svg>
