<svg width="40" height="40" viewBox="0 0 40 40" fill="none" xmlns="http://www.w3.org/2000/svg">
<path fill-rule="evenodd" clip-rule="evenodd" d="M17.6333 3.1167C17.4954 2.88032 17.3123 2.67341 17.0945 2.50779C16.8766 2.34217 16.6283 2.22109 16.3637 2.15144C16.099 2.0818 15.8232 2.06496 15.5521 2.1019C15.2809 2.13883 15.0197 2.22881 14.7833 2.3667C14.547 2.50458 14.34 2.68768 14.1744 2.90553C14.0088 3.12338 13.8877 3.37172 13.8181 3.63637C13.7484 3.90101 13.7316 4.17679 13.7685 4.44794C13.8055 4.71909 13.8954 4.98032 14.0333 5.2167L17.5883 11.31L10.3317 23.75H3.33333C2.7808 23.75 2.2509 23.9695 1.86019 24.3602C1.46949 24.7509 1.25 25.2808 1.25 25.8334C1.25 26.3859 1.46949 26.9158 1.86019 27.3065C2.2509 27.6972 2.7808 27.9167 3.33333 27.9167H21.6667C22.2192 27.9167 22.7491 27.6972 23.1398 27.3065C23.5305 26.9158 23.75 26.3859 23.75 25.8334C23.75 25.2808 23.5305 24.7509 23.1398 24.3602C22.7491 23.9695 22.2192 23.75 21.6667 23.75H15.155L21.7767 12.3984L21.82 12.325L25.9667 5.2167C26.2451 4.73931 26.3226 4.17085 26.1819 3.63637C26.0413 3.10189 25.6941 2.64517 25.2167 2.3667C24.7393 2.08822 24.1708 2.01079 23.6363 2.15144C23.1019 2.29209 22.6451 2.63931 22.3667 3.1167L20 7.17503L17.6333 3.1167ZM25.1333 15.9734L29.6667 23.75H36.6667C37.2192 23.75 37.7491 23.9695 38.1398 24.3602C38.5305 24.7509 38.75 25.2808 38.75 25.8334C38.75 26.3859 38.5305 26.9158 38.1398 27.3065C37.7491 27.6972 37.2192 27.9167 36.6667 27.9167H32.1L35.1333 33.1167C35.2712 33.3531 35.3612 33.6143 35.3981 33.8855C35.4351 34.1566 35.4182 34.4324 35.3486 34.697C35.2789 34.9617 35.1579 35.21 34.9922 35.4279C34.8266 35.6457 34.6197 35.8288 34.3833 35.9667C34.147 36.1046 33.8857 36.1946 33.6146 36.2315C33.3434 36.2684 33.0677 36.2516 32.803 36.1819C32.5384 36.1123 32.29 35.9912 32.0722 35.8256C31.8543 35.66 31.6712 35.4531 31.5333 35.2167L26.7217 26.9667C26.6849 26.911 26.6515 26.8531 26.6217 26.7934L21.5333 18.0734C21.3954 17.837 21.3055 17.5758 21.2685 17.3046C21.2316 17.0335 21.2484 16.7577 21.3181 16.493C21.3877 16.2284 21.5088 15.98 21.6744 15.7622C21.84 15.5443 22.047 15.3613 22.2833 15.2234C22.5197 15.0855 22.7809 14.9955 23.0521 14.9586C23.3232 14.9216 23.599 14.9385 23.8637 15.0081C24.1283 15.0778 24.3766 15.1988 24.5945 15.3645C24.8123 15.5301 24.9954 15.737 25.1333 15.9734ZM10.1333 32.36C10.2712 32.1236 10.3612 31.8624 10.3981 31.5913C10.4351 31.3201 10.4182 31.0443 10.3486 30.7797C10.2789 30.5151 10.1579 30.2667 9.99224 30.0489C9.82662 29.831 9.61971 29.6479 9.38333 29.51C9.14695 29.3721 8.88573 29.2822 8.61458 29.2452C8.34342 29.2083 8.06765 29.2251 7.803 29.2948C7.53836 29.3644 7.29002 29.4855 7.07217 29.6511C6.85432 29.8167 6.67122 30.0236 6.53333 30.26L4.86667 33.1167C4.58819 33.5941 4.51076 34.1625 4.65141 34.697C4.79206 35.2315 5.13928 35.6882 5.61667 35.9667C6.09406 36.2452 6.66252 36.3226 7.197 36.1819C7.73148 36.0413 8.18819 35.6941 8.46667 35.2167L10.1333 32.36Z" fill="#F0FEFF"/>
</svg>
