<svg width="133" height="133" viewBox="0 0 133 133" fill="none" xmlns="http://www.w3.org/2000/svg">
<path d="M124.521 42.9535C122.408 37.9585 119.709 33.2958 116.456 29.0166L112.761 28.5185L106.917 34.363C110.046 38.2493 112.61 42.5357 114.567 47.1632C117.387 53.8299 118.816 60.9038 118.816 68.1883C118.816 75.4729 117.387 82.5467 114.567 89.2133C111.846 95.645 107.954 101.419 102.999 106.375C98.0434 111.33 92.2701 115.222 85.8376 117.943C79.1708 120.763 72.0969 122.192 64.8124 122.192C57.5279 122.192 50.4539 120.763 43.7872 117.943C37.3556 115.222 31.5814 111.33 26.6259 106.375C21.6705 101.419 17.7784 95.645 15.0575 89.2133C12.2384 82.5465 10.8081 75.4727 10.8081 68.1883C10.8081 60.9037 12.2384 53.8299 15.0575 47.1632C17.7784 40.7308 21.6702 34.9575 26.6256 30.0021C31.5811 25.0466 37.3544 21.1549 43.7869 18.434C50.4536 15.614 57.5276 14.1846 64.8121 14.1846C72.0966 14.1846 79.1706 15.614 85.8373 18.434C90.4649 20.3911 94.7513 22.9553 98.6376 26.0842L104.482 20.2397L103.984 16.5452C99.705 13.292 95.0421 10.5927 90.047 8.47978C82.041 5.09325 73.5512 3.37658 64.8121 3.37658C56.0739 3.37658 47.5832 5.09325 39.5772 8.47978C31.8558 11.7456 24.927 16.4156 18.9834 22.3598C13.0389 28.3043 8.36905 35.2321 5.10323 42.9535C1.71669 50.9595 0 59.4501 0 68.1883C0 76.9265 1.71669 85.4171 5.10323 93.423C8.36905 101.144 13.0391 108.072 18.9834 114.018C24.9279 119.961 31.8566 124.631 39.5772 127.897C47.5832 131.283 56.073 133 64.8121 133C73.5514 133 82.041 131.283 90.047 127.897C97.7685 124.631 104.696 119.961 110.642 114.017C116.585 108.072 121.255 101.144 124.521 93.423C127.908 85.4179 129.624 76.9273 129.624 68.1883C129.624 59.4492 127.908 50.9585 124.521 42.9535Z" fill="#F0FEFF"/>
<path d="M104.907 51.2476C103.479 47.8729 101.652 44.7223 99.4459 41.832L91.7119 49.566C95.4884 54.9952 97.5203 61.435 97.5203 68.1881C97.5203 76.9255 94.1184 85.1395 87.9399 91.3172C81.7622 97.4958 73.5481 100.899 64.8107 100.899C56.0733 100.899 47.8592 97.4958 41.6816 91.3172C35.5029 85.1395 32.1012 76.9256 32.1012 68.1881C32.1012 59.4508 35.5031 51.2368 41.6816 45.0592C47.8592 38.8806 56.0733 35.4789 64.8107 35.4789C71.5639 35.4789 78.0037 37.5108 83.4329 41.2873L91.1669 33.5533C88.2766 31.3475 85.1261 29.5201 81.7513 28.0926C76.3832 25.822 70.683 24.671 64.8105 24.671C58.9381 24.671 53.2387 25.822 47.8699 28.0926C42.6875 30.2847 38.0337 33.4218 34.0383 37.4163C30.0438 41.4116 26.9068 46.0644 24.7146 51.2478C22.444 56.6158 21.293 62.316 21.293 68.1883C21.293 74.0607 22.444 79.7601 24.7146 85.1289C26.9068 90.3122 30.0438 94.9651 34.0383 98.9604C38.0337 102.955 42.6875 106.092 47.8699 108.284C53.2388 110.555 58.9382 111.707 64.8105 111.707C70.6828 111.707 76.3832 110.555 81.7513 108.284C86.9346 106.092 91.5874 102.955 95.5829 98.9604C99.5774 94.9651 102.714 90.3123 104.907 85.1289C107.177 79.7601 108.328 74.0607 108.328 68.1883C108.328 62.3159 107.177 56.6156 104.907 51.2476Z" fill="#F0FEFF"/>
<path d="M84.1206 57.1606L75.8876 65.3935C76.1138 66.2969 76.2299 67.2336 76.2299 68.1883C76.2299 71.238 75.0428 74.1038 72.8866 76.261C70.7304 78.4172 67.8636 79.6043 64.8138 79.6043C61.7651 79.6043 58.8983 78.4172 56.7421 76.261C54.5859 74.1048 53.398 71.238 53.398 68.1883C53.398 65.1386 54.5859 62.2718 56.7421 60.1156C58.8983 57.9594 61.7643 56.7723 64.8138 56.7723C65.7685 56.7723 66.7053 56.8885 67.6086 57.1146L75.8417 48.8816C72.5208 46.9785 68.7453 45.9644 64.8138 45.9644C58.8775 45.9644 53.297 48.2764 49.099 52.4735C44.9019 56.6715 42.5898 62.252 42.5898 68.1883C42.5898 74.1245 44.9019 79.7051 49.099 83.903C53.297 88.1001 58.8775 90.4122 64.8138 90.4122C70.7502 90.4122 76.3307 88.1001 80.5287 83.903C84.7258 79.7051 87.0379 74.1245 87.0379 68.1883C87.0379 64.2568 86.0238 60.4813 84.1206 57.1606Z" fill="#F0FEFF"/>
<path d="M132.146 12.7907L128.407 9.05176L131.392 6.06723C132.623 4.83619 132.623 2.84025 131.392 1.6092C130.161 0.378151 128.165 0.378151 126.934 1.6092L123.949 4.59373L120.21 0.854759C119.07 -0.28492 117.223 -0.28492 116.083 0.854759L106.982 9.956C106.338 10.5997 106.031 11.5071 106.153 12.4095L107.339 21.2041L62.5834 65.9592C61.3524 67.1902 61.3524 69.1862 62.5834 70.4172C63.199 71.0328 64.0058 71.3405 64.8126 71.3405C65.6193 71.3405 66.426 71.0328 67.0417 70.4172L111.797 25.6622L120.592 26.8478C121.494 26.9694 122.401 26.6631 123.045 26.0192L132.146 16.9179C133.286 15.7783 133.286 13.9304 132.146 12.7907Z" fill="#F0FEFF"/>
</svg>
