<svg width="132" height="178" viewBox="0 0 132 178" fill="none" xmlns="http://www.w3.org/2000/svg">
<path d="M67.2905 127.852L43.6924 124.089L44.4728 119.195C47.5606 99.83 61.0607 91.7267 73.7194 84.7985C84.5078 78.6631 94.3778 72.8178 96.3459 60.4754C98.6532 46.0049 91.2511 35.0052 76.3694 32.6322C61.2752 30.2254 49.0596 39.8428 46.4469 56.2284L19.4473 51.9233C24.2995 21.4928 50.0491 3.55938 80.8754 8.4747C112.552 13.5256 128.768 34.8773 124.255 63.1798C120.624 85.9494 104.224 94.4632 90.5027 101.222C78.898 107.009 69.8014 112.105 68.0709 122.958L67.2905 127.852ZM49.6618 168.683C40.095 167.158 33.6631 158.277 35.1222 149.126C36.6151 139.763 45.4901 133.322 55.0569 134.848C64.4111 136.339 71.0556 145.255 69.5626 154.618C68.1375 163.555 59.016 170.175 49.6618 168.683Z" fill="white" fill-opacity="0.4"/>
<path d="M59.2023 127.298H35.3061V122.342C35.3061 102.732 47.3618 92.6043 58.7717 83.7693C68.4594 76.0117 77.2859 68.6851 77.2859 56.1867C77.2859 41.5335 68.2441 31.8365 53.1744 31.8365C37.8895 31.8365 27.3407 43.2574 27.3407 59.85H0C0 29.0352 22.6045 7.27081 53.8203 7.27081C85.8971 7.27081 105.272 25.8028 105.272 54.4628C105.272 77.5201 90.418 88.51 77.9317 97.345C67.383 104.887 59.2023 111.352 59.2023 122.342V127.298ZM48.223 170.396C38.5353 170.396 30.7852 162.638 30.7852 153.372C30.7852 143.891 38.5353 136.133 48.223 136.133C57.6953 136.133 65.6607 143.891 65.6607 153.372C65.6607 162.423 57.6953 170.396 48.223 170.396Z" fill="white"/>
</svg>
