<svg width="161" height="161" viewBox="0 0 161 161" fill="none" xmlns="http://www.w3.org/2000/svg">
<path d="M139.672 88.3511H86.3046C85.3843 88.3511 84.4665 88.4848 83.5932 88.7751C82.7054 89.0703 81.6425 89.2421 80.5 89.2421C79.3575 89.2421 78.2946 89.0703 77.4068 88.7751C76.5335 88.4848 75.6157 88.3511 74.6954 88.3511H21.3285C20.5948 88.3511 20 88.9459 20 89.6796V92.4525C20 93.1862 20.5948 93.781 21.3285 93.781H73.9502C75.191 96.1295 77.6586 97.73 80.5 97.73C83.3414 97.73 85.809 96.1295 87.0498 93.781H139.672C140.405 93.781 141 93.1862 141 92.4525V89.6796C141 88.9459 140.405 88.3511 139.672 88.3511Z" fill="#F0FEFF"/>
<path d="M131.407 73.8088C131.32 73.5071 131.088 73.2689 130.788 73.1757C128.729 72.5334 120.195 70.1338 107.692 70.1338C106.698 70.1338 105.736 70.1653 104.803 70.2251C115.641 67.0474 125.349 66.729 127.702 66.7006C127.989 66.6969 128.206 66.4415 128.164 66.1576L127.904 64.404C127.869 64.164 127.658 63.9894 127.416 64.0005C88.7444 65.7424 80.5052 82.0826 80.5052 82.0826C80.5052 82.0826 72.266 65.7424 33.5946 64.0005C33.3528 63.9894 33.1411 64.164 33.1059 64.404L32.8462 66.1576C32.8042 66.4415 33.0214 66.6969 33.3083 66.7006C35.6617 66.729 45.3688 67.0474 56.207 70.2251C55.274 70.1653 54.3121 70.1338 53.3187 70.1338C40.8152 70.1338 32.2816 72.5335 30.2225 73.1757C29.9226 73.2689 29.6906 73.5071 29.603 73.8088L26.1328 85.7978H134.877L131.407 73.8088Z" fill="#F0FEFF"/>
<path d="M80.5 2.5C123.578 2.5 158.5 37.4218 158.5 80.5C158.5 123.578 123.578 158.5 80.5 158.5C37.4218 158.5 2.5 123.578 2.5 80.5C2.5 37.4218 37.4218 2.5 80.5 2.5Z" stroke="#F0FEFF" stroke-width="5"/>
</svg>
