<svg width="30" height="21" viewBox="0 0 30 21" fill="none" xmlns="http://www.w3.org/2000/svg">
<path d="M26.6475 0.5C27.1295 0.500096 27.5906 0.70261 27.9561 1.06836C28.3215 1.43418 28.5234 1.89585 28.5234 2.37793C28.5233 2.85983 28.3214 3.32083 27.9561 3.68652L27.9531 3.68945L11.6904 19.7373C11.3478 20.2137 10.8482 20.3633 10.4102 20.3633C9.87369 20.3631 9.41531 20.0238 9.1582 19.7666L1.06738 11.6699C0.702092 11.3042 0.500048 10.8432 0.5 10.3613C0.5 9.87922 0.701848 9.41758 1.06738 9.05176C1.43283 8.68605 1.89402 8.48353 2.37598 8.4834C2.85811 8.4834 3.31998 8.68593 3.68555 9.05176L10.5225 15.8936L25.3379 1.06836C25.7035 0.702523 26.1653 0.5 26.6475 0.5Z" fill="white" stroke="white"/>
</svg>
