<svg width="52" height="51" viewBox="0 0 52 51" fill="none" xmlns="http://www.w3.org/2000/svg">
<path fill-rule="evenodd" clip-rule="evenodd" d="M32.5 2.65625H23.712C19.7297 2.65625 16.575 2.65625 14.1072 2.98138C11.5678 3.31713 9.51167 4.02263 7.88883 5.61212C6.26817 7.20375 5.54883 9.22037 5.2065 11.7109C4.875 14.1334 4.875 17.2252 4.875 21.131V34C4.87461 35.8986 5.56543 37.735 6.82304 39.1784C8.08066 40.6218 9.82243 41.5774 11.7347 41.8731C12.0315 43.4966 12.6057 44.8821 13.754 46.0105C15.0583 47.2897 16.7007 47.838 18.6507 48.0972C20.5292 48.3437 22.919 48.3437 25.8808 48.3437H32.6192C35.581 48.3437 37.9708 48.3437 39.8493 48.0972C41.7993 47.838 43.4417 47.2897 44.746 46.0105C46.0503 44.7312 46.6093 43.1205 46.8737 41.208C47.125 39.3656 47.125 37.0217 47.125 34.1169V23.2581C47.125 20.3532 47.125 18.0094 46.8737 16.167C46.6093 14.2545 46.0503 12.6437 44.746 11.3645C43.5955 10.2382 42.1828 9.67512 40.5275 9.384C40.226 7.50853 39.2517 5.80026 37.78 4.56683C36.3083 3.3334 34.4359 2.65587 32.5 2.65625ZM37.115 9.07587C36.7855 8.13237 36.1635 7.31353 35.336 6.73397C34.5085 6.1544 33.5169 5.84314 32.5 5.84375H23.8333C19.7015 5.84375 16.7678 5.848 14.5383 6.14125C12.3608 6.42813 11.1042 6.96787 10.1877 7.86675C9.27117 8.76562 8.72083 9.99812 8.42833 12.1337C8.12933 14.3204 8.125 17.1976 8.125 21.25V34C8.12438 34.9973 8.44175 35.9698 9.03267 36.7814C9.6236 37.5931 10.4585 38.2031 11.4205 38.5262C11.375 37.23 11.375 35.7637 11.375 34.1169V23.2581C11.375 20.3532 11.375 18.0094 11.6285 16.167C11.8885 14.2545 12.4518 12.6437 13.754 11.3645C15.0583 10.0852 16.7007 9.537 18.6507 9.27987C20.5292 9.03125 22.919 9.03125 25.8808 9.03125H32.6192C34.2983 9.03125 35.7933 9.03125 37.115 9.07587ZM16.0507 13.6212C16.6508 13.0326 17.4915 12.6501 19.084 12.4397C20.7177 12.2251 22.8887 12.2209 25.9978 12.2209H32.4978C35.607 12.2209 37.7758 12.2251 39.4138 12.4397C41.0042 12.6501 41.8448 13.0347 42.445 13.6212C43.0452 14.2099 43.4352 15.0344 43.6497 16.5962C43.8685 18.1985 43.8728 20.3277 43.8728 23.3771V34.0021C43.8728 37.0515 43.8685 39.1786 43.6497 40.7851C43.4352 42.3449 43.043 43.1694 42.445 43.758C41.8448 44.3466 41.0042 44.7291 39.4117 44.9395C37.7758 45.1541 35.607 45.1584 32.4978 45.1584H25.9978C22.8887 45.1584 20.7177 45.1541 19.0818 44.9395C17.4915 44.7291 16.6508 44.3445 16.0507 43.758C15.4505 43.1694 15.0605 42.3449 14.846 40.783C14.6272 39.1786 14.6228 37.0515 14.6228 34.0021V23.3771C14.6228 20.3277 14.6272 18.1985 14.846 16.5941C15.0605 15.0344 15.4527 14.2099 16.0507 13.6212Z" fill="#F0FEFF"/>
</svg>
