<svg width="321" height="216" viewBox="0 0 321 216" fill="none" xmlns="http://www.w3.org/2000/svg">
<path d="M18.8988 111.181C20.085 111.887 21.6194 111.499 22.3261 110.312C23.0328 109.126 22.6441 107.592 21.4579 106.885L20.1784 109.033L18.8988 111.181ZM46.1362 18.5719L45.9252 16.0808L46.1362 18.5719ZM104.656 3.38325L105.012 0.908761L104.656 3.38325ZM305.8 215.759L320.266 190.777L291.398 190.741L305.8 215.759ZM17.6852 104.291C16.6023 103.435 15.0301 103.618 14.1734 104.701C13.3168 105.784 13.5001 107.356 14.5829 108.213L16.1341 106.252L17.6852 104.291ZM7.37257 100.63C8.17121 101.756 9.73168 102.021 10.858 101.223C11.9843 100.424 12.2499 98.8637 11.4512 97.7374L9.41191 99.1834L7.37257 100.63ZM7.28553 89.6693C6.82231 88.3687 5.39238 87.6898 4.09169 88.153C2.791 88.6162 2.11209 90.0461 2.57531 91.3468L4.93042 90.5081L7.28553 89.6693ZM0.298029 81.2467C0.44772 82.6193 1.68176 83.6106 3.05433 83.461C4.42691 83.3113 5.41825 82.0772 5.26856 80.7046L2.78329 80.9757L0.298029 81.2467ZM5.17871 71.3988C5.29304 70.0228 4.27027 68.8147 2.8943 68.7003C1.51833 68.586 0.310204 69.6088 0.195882 70.9848L2.6873 71.1918L5.17871 71.3988ZM1.8763 60.9351C1.54154 62.2746 2.35605 63.6318 3.69557 63.9666C5.03508 64.3014 6.39235 63.4869 6.72711 62.1473L4.30171 61.5412L1.8763 60.9351ZM9.68167 53.1988C10.2083 51.9225 9.60049 50.4609 8.32415 49.9343C7.0478 49.4077 5.58623 50.0155 5.05962 51.2918L7.37064 52.2453L9.68167 53.1988ZM9.58842 42.2122C8.8851 43.4003 9.27815 44.9336 10.4663 45.637C11.6545 46.3403 13.1878 45.9472 13.8911 44.7591L11.7398 43.4856L9.58842 42.2122ZM19.2753 37.042C20.1505 35.9741 19.9943 34.399 18.9264 33.5238C17.8585 32.6486 16.2834 32.8048 15.4081 33.8726L17.3417 35.4573L19.2753 37.042ZM22.5298 26.5493C21.4824 27.4489 21.3626 29.0273 22.2622 30.0747C23.1618 31.1221 24.7402 31.242 25.7876 30.3424L24.1587 28.4458L22.5298 26.5493ZM33.3846 25.066C34.5988 24.4087 35.0501 22.8915 34.3927 21.6773C33.7353 20.4631 32.2181 20.0118 31.004 20.6692L32.1943 22.8676L33.3846 25.066ZM40.7272 16.9154C39.3837 17.2338 38.5526 18.581 38.871 19.9245C39.1894 21.268 40.5367 22.099 41.8802 21.7806L41.3037 19.348L40.7272 16.9154ZM51.1329 20.835C52.5136 20.8216 53.622 19.6916 53.6087 18.311C53.5954 16.9303 52.4653 15.8219 51.0847 15.8352L51.1088 18.3351L51.1329 20.835ZM61.3909 16.5779C60.0272 16.3619 58.7465 17.2922 58.5305 18.6559C58.3144 20.0197 59.2448 21.3003 60.6085 21.5164L60.9997 19.0472L61.3909 16.5779ZM69.7554 23.8397C71.0556 24.3042 72.4862 23.6267 72.9507 22.3265C73.4152 21.0263 72.7377 19.5957 71.4375 19.1312L70.5964 21.4854L69.7554 23.8397ZM80.8333 23.5657C79.6488 22.8562 78.1134 23.2413 77.404 24.4258C76.6945 25.6103 77.0796 27.1456 78.2641 27.8551L79.5487 25.7104L80.8333 23.5657ZM85.8193 33.4621C86.8422 34.3895 88.4232 34.3121 89.3507 33.2893C90.2781 32.2664 90.2007 30.6854 89.1779 29.758L87.4986 31.61L85.8193 33.4621ZM96.1657 37.4356C95.337 36.3312 93.77 36.1077 92.6656 36.9364C91.5612 37.7651 91.3378 39.3322 92.1665 40.4366L94.1661 38.9361L96.1657 37.4356ZM97.118 48.4875C97.7309 49.7247 99.2307 50.2308 100.468 49.618C101.705 49.0051 102.211 47.5053 101.598 46.268L99.3582 47.3778L97.118 48.4875ZM105.336 55.9342C104.958 54.6063 103.575 53.8364 102.247 54.2146C100.919 54.5928 100.149 55.9759 100.527 57.3038L102.931 56.619L105.336 55.9342ZM102.243 66.5729C102.362 67.9485 103.573 68.9676 104.948 68.8491C106.324 68.7306 107.343 67.5194 107.225 66.1438L104.734 66.3583L102.243 66.5729ZM107.022 76.588C107.201 75.219 106.236 73.9641 104.867 73.7852C103.498 73.6063 102.243 74.5711 102.064 75.9402L104.543 76.2641L107.022 76.588ZM99.7366 84.8898C99.2141 86.1679 99.8266 87.6275 101.105 88.1499C102.383 88.6724 103.842 88.0599 104.365 86.7819L102.051 85.8358L99.7366 84.8898ZM98.8918 95.9219C99.7797 94.8644 99.6421 93.2875 98.5847 92.3997C97.5273 91.5119 95.9503 91.6494 95.0625 92.7068L96.9772 94.3144L98.8918 95.9219ZM88.1829 98.5553C86.9969 99.2623 86.6086 100.797 87.3155 101.983C88.0225 103.169 89.557 103.557 90.743 102.85L89.463 100.703L88.1829 98.5553ZM80.8733 106.826C82.2151 106.5 83.0389 105.149 82.7133 103.807C82.3877 102.465 81.0361 101.641 79.6943 101.967L80.2838 104.396L80.8733 106.826ZM70.2847 102.903C68.9069 102.813 67.7171 103.857 67.6272 105.235C67.5372 106.613 68.5813 107.803 69.959 107.893L70.1219 105.398L70.2847 102.903ZM58.9241 104.959C60.1644 105.566 61.6616 105.052 62.2682 103.812C62.8747 102.571 62.3609 101.074 61.1206 100.468L60.0223 102.714L58.9241 104.959ZM53.365 94.7758C52.399 93.7893 50.8162 93.7726 49.8297 94.7386C48.8432 95.7046 48.8265 97.2874 49.7925 98.274L51.5788 96.5249L53.365 94.7758ZM43.1431 89.3561C43.8272 90.5555 45.354 90.9732 46.5533 90.2891C47.7526 89.605 48.1703 88.0782 47.4862 86.8788L45.3146 88.1175L43.1431 89.3561ZM43.4409 77.7165C43.0055 76.4062 41.5904 75.697 40.2801 76.1324C38.9699 76.5677 38.2606 77.9829 38.696 79.2931L41.0685 78.5048L43.4409 77.7165ZM36.14 68.6665C36.3525 70.0308 37.6307 70.9644 38.995 70.7519C40.3593 70.5394 41.2929 69.2612 41.0804 67.8969L38.6102 68.2817L36.14 68.6665ZM40.3012 57.7983C40.3009 56.4176 39.1813 55.2986 37.8006 55.2989C36.4199 55.2992 35.3009 56.4188 35.3012 57.7995L37.8012 57.7989L40.3012 57.7983ZM36.1417 46.9298C35.9275 48.2938 36.8595 49.5732 38.2235 49.7875C39.5875 50.0017 40.8669 49.0697 41.0812 47.7057L38.6114 47.3177L36.1417 46.9298ZM43.4658 37.9028C43.9059 36.5941 43.2019 35.1764 41.8932 34.7363C40.5845 34.2961 39.1668 35.0002 38.7266 36.3089L41.0962 37.1058L43.4658 37.9028ZM43.1759 26.2724C42.4972 27.4748 42.9218 28.9997 44.1242 29.6784C45.3267 30.357 46.8516 29.9325 47.5302 28.73L45.3531 27.5012L43.1759 26.2724ZM53.3087 20.6044C54.2255 19.572 54.1318 17.9918 53.0994 17.075C52.067 16.1582 50.4869 16.2519 49.5701 17.2843L51.4394 18.9443L53.3087 20.6044ZM57.7966 9.89339C56.6716 10.6939 56.4085 12.2548 57.209 13.3798C58.0095 14.5047 59.5704 14.7678 60.6954 13.9674L59.246 11.9304L57.7966 9.89339ZM69.3816 9.14407C70.6542 8.60851 71.2517 7.14269 70.7161 5.87008C70.1806 4.59747 68.7148 3.99998 67.4421 4.53554L68.4119 6.8398L69.3816 9.14407ZM77.9298 1.30979C76.5776 1.58881 75.7076 2.9112 75.9866 4.26342C76.2656 5.61565 77.588 6.48565 78.9403 6.20663L78.435 3.75821L77.9298 1.30979ZM89.0142 4.99785C90.3937 4.94084 91.4659 3.77629 91.4089 2.39676C91.3518 1.01722 90.1873 -0.0548893 88.8078 0.00211916L88.911 2.49999L89.0142 4.99785ZM99.5778 0.276644C98.2024 0.15586 96.9895 1.17295 96.8687 2.54836C96.7479 3.92378 97.765 5.1367 99.1404 5.25748L99.3591 2.76706L99.5778 0.276644ZM109.084 6.61889C110.444 6.85547 111.738 5.94452 111.975 4.58422C112.212 3.22393 111.301 1.92942 109.94 1.69283L109.512 4.15585L109.084 6.61889ZM119.797 3.68425C118.451 3.3757 117.11 4.21654 116.802 5.56233C116.493 6.90813 117.334 8.24924 118.68 8.55779L119.239 6.12103L119.797 3.68425ZM128.165 10.974C129.494 11.3458 130.874 10.5693 131.246 9.23963C131.618 7.90994 130.841 6.53057 129.511 6.15873L128.838 8.56635L128.165 10.974ZM139.08 9.06126C137.768 8.63248 136.356 9.34884 135.927 10.6613C135.499 11.9737 136.215 13.3853 137.527 13.814L138.304 11.4377L139.08 9.06126ZM146.778 17.0455C148.073 17.5266 149.512 16.8674 149.993 15.5732C150.474 14.2791 149.815 12.8399 148.521 12.3588L147.65 14.7021L146.778 17.0455ZM157.824 16.0215C156.549 15.4916 155.086 16.0956 154.556 17.3705C154.026 18.6455 154.63 20.1086 155.905 20.6386L156.864 18.33L157.824 16.0215ZM164.896 24.5708C166.151 25.1469 167.635 24.5967 168.212 23.3419C168.788 22.0871 168.237 20.6029 166.983 20.0268L165.94 22.2988L164.896 24.5708ZM175.99 24.3579C174.756 23.7376 173.253 24.2348 172.633 25.4683C172.013 26.7019 172.51 28.2047 173.743 28.8249L174.867 26.5914L175.99 24.3579ZM182.437 33.3881C183.648 34.051 185.167 33.6065 185.83 32.3954C186.493 31.1842 186.049 29.6649 184.837 29.0021L183.637 31.1951L182.437 33.3881ZM193.518 33.9502C192.33 33.2458 190.797 33.6374 190.092 34.8249C189.388 36.0124 189.779 37.5461 190.967 38.2505L192.242 36.1004L193.518 33.9502ZM199.323 43.405C200.486 44.1501 202.032 43.8118 202.777 42.6494C203.522 41.487 203.184 39.9407 202.022 39.1956L200.672 41.3003L199.323 43.405ZM210.338 44.7336C209.203 43.9484 207.645 44.2325 206.86 45.3681C206.075 46.5038 206.359 48.061 207.495 48.8463L208.916 46.7899L210.338 44.7336ZM215.468 54.5706C216.576 55.3956 218.142 55.1669 218.967 54.0598C219.792 52.9526 219.563 51.3863 218.456 50.5613L216.962 52.566L215.468 54.5706ZM226.362 56.6767C225.285 55.8122 223.711 55.9842 222.847 57.0608C221.982 58.1373 222.154 59.7109 223.231 60.5754L224.796 58.6261L226.362 56.6767ZM230.767 66.8587C231.81 67.7625 233.389 67.649 234.293 66.6052C235.197 65.5614 235.083 63.9825 234.04 63.0787L232.403 64.9687L230.767 66.8587ZM241.473 69.7667C240.465 68.8237 238.883 68.8769 237.94 69.8854C236.997 70.8939 237.05 72.4759 238.058 73.4189L239.766 71.5928L241.473 69.7667ZM245.088 80.2548C246.058 81.2369 247.641 81.2462 248.623 80.2756C249.605 79.3051 249.615 77.7222 248.644 76.7401L246.866 78.4975L245.088 80.2548ZM255.532 83.9981C254.602 82.9773 253.021 82.9033 252 83.8329C250.979 84.7625 250.905 86.3437 251.835 87.3646L253.683 85.6814L255.532 83.9981ZM258.277 94.7459C259.162 95.8053 260.739 95.9463 261.798 95.0608C262.858 94.1753 262.999 92.5987 262.113 91.5393L260.195 93.1426L258.277 94.7459ZM268.365 99.361C267.527 98.2636 265.958 98.0533 264.861 98.8912C263.764 99.7291 263.553 101.298 264.391 102.395L266.378 100.878L268.365 99.361ZM270.153 110.308C270.939 111.443 272.497 111.725 273.632 110.938C274.766 110.151 275.048 108.594 274.261 107.459L272.207 108.884L270.153 110.308ZM279.775 115.827C279.044 114.657 277.501 114.301 276.33 115.033C275.16 115.764 274.804 117.307 275.535 118.478L277.655 117.153L279.775 115.827ZM280.513 126.895C281.186 128.1 282.709 128.532 283.915 127.859C285.12 127.186 285.552 125.663 284.879 124.457L282.696 125.676L280.513 126.895ZM289.544 133.337C288.933 132.098 287.435 131.589 286.196 132.2C284.958 132.81 284.449 134.309 285.059 135.547L287.302 134.442L289.544 133.337ZM289.148 144.422C289.692 145.691 291.162 146.278 292.431 145.734C293.7 145.189 294.287 143.72 293.743 142.451L291.445 143.436L289.148 144.422ZM297.449 151.78C296.975 150.484 295.539 149.817 294.242 150.292C292.946 150.767 292.279 152.203 292.754 153.499L295.102 152.64L297.449 151.78ZM295.856 162.759C296.258 164.08 297.655 164.825 298.976 164.423C300.297 164.021 301.042 162.625 300.64 161.304L298.248 162.032L295.856 162.759ZM303.293 170.99C302.966 169.649 301.613 168.826 300.272 169.153C298.93 169.48 298.108 170.833 298.435 172.174L300.864 171.582L303.293 170.99ZM300.475 181.714C300.725 183.072 302.028 183.97 303.386 183.72C304.744 183.47 305.642 182.166 305.392 180.808L302.933 181.261L300.475 181.714ZM306.929 190.728C306.756 189.358 305.506 188.388 304.136 188.56C302.766 188.733 301.796 189.983 301.968 191.353L304.449 191.041L306.929 190.728ZM302.911 201.061C303.006 202.438 304.199 203.478 305.577 203.383C306.954 203.289 307.994 202.095 307.9 200.718L305.406 200.889L302.911 201.061ZM308.306 210.745C308.289 209.364 307.156 208.259 305.775 208.277C304.394 208.294 303.289 209.427 303.307 210.808L305.807 210.776L308.306 210.745ZM20.1784 109.033L21.4579 106.885C20.1064 106.08 18.8502 105.213 17.6852 104.291L16.1341 106.252L14.5829 108.213C15.9236 109.273 17.3616 110.265 18.8988 111.181L20.1784 109.033ZM9.41191 99.1834L11.4512 97.7374C9.68885 95.2519 8.30914 92.5436 7.28553 89.6693L4.93042 90.5081L2.57531 91.3468C3.74309 94.6259 5.32881 97.7473 7.37257 100.63L9.41191 99.1834ZM2.78329 80.9757L5.26856 80.7046C4.9387 77.6801 4.91615 74.5589 5.17871 71.3988L2.6873 71.1918L0.195882 70.9848C-0.0909673 74.4372 -0.0691845 77.8796 0.298029 81.2467L2.78329 80.9757ZM4.30171 61.5412L6.72711 62.1473C7.48357 59.1204 8.47643 56.12 9.68167 53.1988L7.37064 52.2453L5.05962 51.2918C3.76375 54.4327 2.69351 57.6651 1.8763 60.9351L4.30171 61.5412ZM11.7398 43.4856L13.8911 44.7591C15.508 42.0276 17.3119 39.4377 19.2753 37.042L17.3417 35.4573L15.4081 33.8726C13.2776 36.4723 11.3292 39.2714 9.58842 42.2122L11.7398 43.4856ZM24.1587 28.4458L25.7876 30.3424C28.1911 28.278 30.7347 26.5008 33.3846 25.066L32.1943 22.8676L31.004 20.6692C28.0133 22.2884 25.1784 24.2745 22.5298 26.5493L24.1587 28.4458ZM41.3037 19.348L41.8802 21.7806C43.3494 21.4324 44.8397 21.1907 46.3472 21.063L46.1362 18.5719L45.9252 16.0808C44.1643 16.23 42.4298 16.5119 40.7272 16.9154L41.3037 19.348ZM46.1362 18.5719L46.3472 21.063C47.9777 20.9248 49.573 20.85 51.1329 20.835L51.1088 18.3351L51.0847 15.8352C49.3977 15.8515 47.6777 15.9323 45.9252 16.0808L46.1362 18.5719ZM60.9997 19.0472L60.6085 21.5164C63.8403 22.0284 66.89 22.8161 69.7554 23.8397L70.5964 21.4854L71.4375 19.1312C68.2776 18.0023 64.9266 17.1381 61.3909 16.5779L60.9997 19.0472ZM79.5487 25.7104L78.2641 27.8551C81.0067 29.4978 83.5269 31.3835 85.8193 33.4621L87.4986 31.61L89.1779 29.758C86.6488 27.4649 83.8652 25.3817 80.8333 23.5657L79.5487 25.7104ZM94.1661 38.9361L92.1665 40.4366C94.0781 42.9841 95.731 45.6875 97.118 48.4875L99.3582 47.3778L101.598 46.268C100.079 43.2 98.2657 40.2342 96.1657 37.4356L94.1661 38.9361ZM102.931 56.619L100.527 57.3038C101.405 60.385 101.978 63.4981 102.243 66.5729L104.734 66.3583L107.225 66.1438C106.932 62.743 106.299 59.315 105.336 55.9342L102.931 56.619ZM104.543 76.2641L102.064 75.9402C101.653 79.0917 100.876 82.102 99.7366 84.8898L102.051 85.8358L104.365 86.7819C105.68 83.5643 106.559 80.1322 107.022 76.588L104.543 76.2641ZM96.9772 94.3144L95.0625 92.7068C93.1561 94.9775 90.8681 96.9547 88.1829 98.5553L89.463 100.703L90.743 102.85C93.9181 100.957 96.6328 98.6125 98.8918 95.9219L96.9772 94.3144ZM80.2838 104.396L79.6943 101.967C78.2436 102.319 76.7144 102.591 75.1048 102.776L75.3896 105.259L75.6743 107.743C77.4811 107.536 79.2142 107.228 80.8733 106.826L80.2838 104.396ZM75.3896 105.259L75.1048 102.776C73.4391 102.967 71.8321 103.004 70.2847 102.903L70.1219 105.398L69.959 107.893C71.8131 108.014 73.7198 107.967 75.6743 107.743L75.3896 105.259ZM60.0223 102.714L61.1206 100.468C58.2953 99.0861 55.6997 97.1601 53.365 94.7758L51.5788 96.5249L49.7925 98.274C52.4818 101.02 55.5331 103.301 58.9241 104.959L60.0223 102.714ZM45.3146 88.1175L47.4862 86.8788C45.8868 84.0748 44.5302 80.9946 43.4409 77.7165L41.0685 78.5048L38.696 79.2931C39.8805 82.8577 41.3672 86.2428 43.1431 89.3561L45.3146 88.1175ZM38.6102 68.2817L41.0804 67.8969C40.5668 64.5996 40.302 61.2113 40.3012 57.7983L37.8012 57.7989L35.3012 57.7995C35.3021 61.4689 35.5866 65.1141 36.14 68.6665L38.6102 68.2817ZM38.6114 47.3177L41.0812 47.7057C41.6049 44.3714 42.3961 41.0833 43.4658 37.9028L41.0962 37.1058L38.7266 36.3089C37.5628 39.7693 36.7069 43.3319 36.1417 46.9298L38.6114 47.3177ZM45.3531 27.5012L47.5302 28.73C49.1652 25.8332 51.0877 23.1055 53.3087 20.6044L51.4394 18.9443L49.5701 17.2843C47.1011 20.0646 44.9753 23.0842 43.1759 26.2724L45.3531 27.5012ZM59.246 11.9304L60.6954 13.9674C63.3097 12.1072 66.2003 10.4829 69.3816 9.14407L68.4119 6.8398L67.4421 4.53554C63.9239 6.01617 60.7114 7.81944 57.7966 9.89339L59.246 11.9304ZM78.435 3.75821L78.9403 6.20663C82.0743 5.55995 85.4293 5.146 89.0142 4.99785L88.911 2.49999L88.8078 0.00211916C84.9671 0.160833 81.3426 0.605603 77.9298 1.30979L78.435 3.75821ZM99.3591 2.76706L99.1404 5.25748C100.818 5.40482 102.538 5.60409 104.299 5.85773L104.656 3.38325L105.012 0.908761C103.162 0.642368 101.35 0.432302 99.5778 0.276644L99.3591 2.76706ZM104.656 3.38325L104.299 5.85773C105.877 6.0848 107.472 6.33855 109.084 6.61889L109.512 4.15585L109.94 1.69283C108.282 1.40437 106.638 1.14293 105.012 0.908761L104.656 3.38325ZM119.239 6.12103L118.68 8.55779C121.796 9.27233 124.961 10.0781 128.165 10.974L128.838 8.56635L129.511 6.15873C126.234 5.24226 122.993 4.41695 119.797 3.68425L119.239 6.12103ZM138.304 11.4377L137.527 13.814C140.587 14.8137 143.673 15.8911 146.778 17.0455L147.65 14.7021L148.521 12.3588C145.354 11.1815 142.204 10.082 139.08 9.06126L138.304 11.4377ZM156.864 18.33L155.905 20.6386C158.893 21.8807 161.893 23.1917 164.896 24.5708L165.94 22.2988L166.983 20.0268C163.924 18.6225 160.869 17.2871 157.824 16.0215L156.864 18.33ZM174.867 26.5914L173.743 28.8249C176.645 30.2838 179.544 31.8051 182.437 33.3881L183.637 31.1951L184.837 29.0021C181.894 27.3911 178.943 25.8427 175.99 24.3579L174.867 26.5914ZM192.242 36.1004L190.967 38.2505C193.766 39.9111 196.553 41.6295 199.323 43.405L200.672 41.3003L202.022 39.1956C199.203 37.3887 196.366 35.64 193.518 33.9502L192.242 36.1004ZM208.916 46.7899L207.495 48.8463C210.176 50.7003 212.836 52.6087 215.468 54.5706L216.962 52.566L218.456 50.5613C215.775 48.5637 213.068 46.6209 210.338 44.7336L208.916 46.7899ZM224.796 58.6261L223.231 60.5754C225.775 62.6185 228.289 64.7131 230.767 66.8587L232.403 64.9687L234.04 63.0787C231.514 60.8921 228.953 58.7579 226.362 56.6767L224.796 58.6261ZM239.766 71.5928L238.058 73.4189C240.443 75.6484 242.788 77.9273 245.088 80.2548L246.866 78.4975L248.644 76.7401C246.297 74.365 243.905 72.0403 241.473 69.7667L239.766 71.5928ZM253.683 85.6814L251.835 87.3646C254.032 89.7778 256.181 92.2384 258.277 94.7459L260.195 93.1426L262.113 91.5393C259.971 88.9765 257.776 86.4626 255.532 83.9981L253.683 85.6814ZM266.378 100.878L264.391 102.395C266.37 104.987 268.292 107.625 270.153 110.308L272.207 108.884L274.261 107.459C272.357 104.712 270.39 102.013 268.365 99.361L266.378 100.878ZM277.655 117.153L275.535 118.478C277.262 121.239 278.922 124.045 280.513 126.895L282.696 125.676L284.879 124.457C283.247 121.535 281.544 118.658 279.775 115.827L277.655 117.153ZM287.302 134.442L285.059 135.547C286.497 138.463 287.861 141.422 289.148 144.422L291.445 143.436L293.743 142.451C292.421 139.368 291.02 136.33 289.544 133.337L287.302 134.442ZM295.102 152.64L292.754 153.499C293.869 156.546 294.905 159.633 295.856 162.759L298.248 162.032L300.64 161.304C299.661 158.087 298.596 154.913 297.449 151.78L295.102 152.64ZM300.864 171.582L298.435 172.174C299.201 175.317 299.882 178.497 300.475 181.714L302.933 181.261L305.392 180.808C304.782 177.497 304.081 174.224 303.293 170.99L300.864 171.582ZM304.449 191.041L301.968 191.353C302.371 194.554 302.687 197.79 302.911 201.061L305.406 200.889L307.9 200.718C307.669 197.353 307.344 194.023 306.929 190.728L304.449 191.041Z" fill="black"/>
</svg>
