<svg width="174" height="385" viewBox="0 0 174 385" fill="none" xmlns="http://www.w3.org/2000/svg">
<path d="M25.2443 0.198356C23.9729 -0.339998 22.5058 0.25428 21.9674 1.52571C21.429 2.79714 22.0233 4.26427 23.2948 4.80262L24.2695 2.50049L25.2443 0.198356ZM144.861 82.8419L147.268 82.1664V82.1664L144.861 82.8419ZM170.779 137.463L173.276 137.348L170.779 137.463ZM-0.000461625 374.944L27.2551 384.455L21.8644 356.095L-0.000461625 374.944ZM28.1981 6.87444C29.4703 7.41106 30.9366 6.81479 31.4732 5.54262C32.0098 4.27046 31.4136 2.80415 30.1414 2.26752L29.1698 4.57098L28.1981 6.87444ZM39.9464 6.40031C38.6743 5.86358 37.2079 6.45972 36.6712 7.73183C36.1344 9.00395 36.7306 10.4703 38.0027 11.0071L38.9745 8.70368L39.9464 6.40031ZM47.7903 15.1558C49.0603 15.6977 50.529 15.1074 51.0708 13.8374C51.6127 12.5674 51.0224 11.0987 49.7524 10.5569L48.7714 12.8564L47.7903 15.1558ZM59.5427 14.7771C58.2773 14.2248 56.8037 14.803 56.2515 16.0685C55.6993 17.334 56.2775 18.8075 57.543 19.3597L58.5429 17.0684L59.5427 14.7771ZM67.2396 23.6613C68.4978 24.2299 69.9788 23.6708 70.5474 22.4126C71.116 21.1544 70.5569 19.6735 69.2987 19.1049L68.2692 21.3831L67.2396 23.6613ZM78.9978 23.5911C77.7504 22.9992 76.2594 23.5306 75.6675 24.778C75.0756 26.0254 75.607 27.5165 76.8544 28.1084L77.9261 25.8498L78.9978 23.5911ZM86.3529 32.757C87.5848 33.3804 89.0889 32.8872 89.7124 31.6552C90.3358 30.4233 89.8426 28.9192 88.6107 28.2957L87.4818 30.5264L86.3529 32.757ZM98.0963 33.2919C96.8864 32.6266 95.3663 33.0682 94.7011 34.2781C94.0359 35.488 94.4774 37.0081 95.6873 37.6733L96.8918 35.4826L98.0963 33.2919ZM104.796 42.9426C105.974 43.6625 107.513 43.2909 108.233 42.1127C108.953 40.9345 108.581 39.3958 107.403 38.6759L106.1 40.8093L104.796 42.9426ZM116.45 44.574C115.318 43.783 113.76 44.0591 112.969 45.1907C112.178 46.3224 112.454 47.881 113.585 48.6721L115.018 46.623L116.45 44.574ZM121.88 54.9734C122.941 55.8563 124.518 55.7115 125.401 54.65C126.283 53.5885 126.139 52.0122 125.077 51.1293L123.478 53.0514L121.88 54.9734ZM133.086 58.5691C132.134 57.5696 130.551 57.5316 129.552 58.4842C128.552 59.4368 128.514 61.0193 129.467 62.0187L131.276 60.2939L133.086 58.5691ZM135.948 69.9329C136.731 71.0704 138.287 71.3582 139.425 70.5757C140.563 69.7932 140.85 68.2366 140.068 67.0991L138.008 68.516L135.948 69.9329ZM145.426 76.8626C144.897 75.5874 143.434 74.983 142.159 75.5124C140.883 76.0419 140.279 77.5049 140.808 78.78L143.117 77.8213L145.426 76.8626ZM143.577 88.175C143.85 89.5285 145.168 90.4048 146.521 90.1322C147.875 89.8595 148.751 88.5413 148.479 87.1878L146.028 87.6814L143.577 88.175ZM149.686 97.4498C149.642 96.0698 148.488 94.9869 147.108 95.031C145.728 95.0752 144.645 96.2297 144.689 97.6097L147.188 97.5298L149.686 97.4498ZM144.126 107.03C143.915 108.395 144.849 109.672 146.213 109.884C147.578 110.096 148.855 109.162 149.067 107.797L146.597 107.414L144.126 107.03ZM146.478 117.859C146.952 116.562 146.285 115.127 144.989 114.653C143.692 114.179 142.256 114.845 141.782 116.142L144.13 117.001L146.478 117.859ZM137.695 124.617C136.977 125.796 137.35 127.334 138.529 128.053C139.708 128.771 141.246 128.398 141.965 127.219L139.83 125.918L137.695 124.617ZM135.738 135.526C136.666 134.504 136.591 132.923 135.57 131.994C134.548 131.065 132.967 131.14 132.038 132.162L133.888 133.844L135.738 135.526ZM125.062 138.538C123.962 139.373 123.746 140.941 124.581 142.041C125.416 143.141 126.984 143.356 128.084 142.522L126.573 140.53L125.062 138.538ZM119.292 148.009C120.526 147.388 121.022 145.885 120.401 144.652C119.78 143.419 118.276 142.923 117.043 143.544L118.168 145.777L119.292 148.009ZM108.262 146.972C106.933 147.347 106.16 148.728 106.535 150.057C106.91 151.386 108.291 152.159 109.62 151.784L108.941 149.378L108.262 146.972ZM99.3238 153.548C100.702 153.467 101.753 152.283 101.672 150.905C101.59 149.526 100.406 148.475 99.0281 148.557L99.176 151.053L99.3238 153.548ZM89.8005 147.953C88.447 147.68 87.1285 148.556 86.8556 149.91C86.5827 151.263 87.4587 152.581 88.8121 152.854L89.3063 150.404L89.8005 147.953ZM78.8063 149.197C80.0118 149.87 81.5347 149.439 82.2079 148.233C82.8811 147.028 82.4496 145.505 81.2442 144.832L80.0252 147.014L78.8063 149.197ZM74.2068 139.174C73.2895 138.142 71.7093 138.049 70.6773 138.967C69.6454 139.884 69.5524 141.464 70.4697 142.496L72.3382 140.835L74.2068 139.174ZM64.7096 133.549C65.2816 134.806 66.764 135.361 68.0207 134.789C69.2774 134.217 69.8324 132.735 69.2604 131.478L66.985 132.514L64.7096 133.549ZM66.5718 122.412C66.4011 121.042 65.152 120.07 63.7819 120.24C62.4118 120.411 61.4394 121.66 61.6101 123.03L64.0909 122.721L66.5718 122.412ZM62.4168 111.641C62.0542 112.973 62.8403 114.347 64.1726 114.709C65.5048 115.072 66.8787 114.286 67.2413 112.954L64.8291 112.297L62.4168 111.641ZM71.3739 104.266C72.1613 103.132 71.8801 101.575 70.7459 100.787C69.6117 99.9998 68.0539 100.281 67.2666 101.415L69.3203 102.841L71.3739 104.266ZM74.7755 93.208C73.7261 94.1053 73.6029 95.6834 74.5002 96.7328C75.3976 97.7821 76.9757 97.9053 78.025 97.008L76.4003 95.108L74.7755 93.208ZM86.2637 91.3125C87.4687 90.6386 87.8993 89.1154 87.2254 87.9103C86.5514 86.7052 85.0282 86.2747 83.8231 86.9486L85.0434 89.1306L86.2637 91.3125ZM93.7799 82.4406C92.4799 82.9057 91.8031 84.3367 92.2683 85.6367C92.7335 86.9367 94.1644 87.6134 95.4644 87.1482L94.6221 84.7944L93.7799 82.4406ZM105.237 84.4846C106.593 84.2248 107.481 82.9148 107.221 81.5588C106.961 80.2028 105.652 79.3141 104.295 79.574L104.766 82.0293L105.237 84.4846ZM115.129 78.3563C113.749 78.4022 112.668 79.5582 112.714 80.9381C112.76 82.3181 113.916 83.3995 115.296 83.3535L115.213 80.8549L115.129 78.3563ZM125.372 83.8529C126.74 84.0392 128 83.0812 128.187 81.7131C128.373 80.345 127.415 79.0849 126.047 78.8986L125.71 81.3757L125.372 83.8529ZM136.741 81.3819C135.432 80.9414 134.014 81.6451 133.574 82.9536C133.133 84.2622 133.837 85.6801 135.146 86.1206L135.943 83.7513L136.741 81.3819ZM144.213 90.2687C145.399 90.9751 146.933 90.586 147.64 89.3997C148.346 88.2134 147.957 86.679 146.771 85.9726L145.492 88.1206L144.213 90.2687ZM155.576 92.6632C154.579 91.7087 152.996 91.7437 152.042 92.7414C151.087 93.739 151.122 95.3216 152.12 96.276L153.848 94.4696L155.576 92.6632ZM158.49 103.901C159.255 105.05 160.807 105.361 161.956 104.596C163.106 103.831 163.417 102.279 162.652 101.13L160.571 102.515L158.49 103.901ZM167.791 110.824C167.263 109.548 165.801 108.942 164.525 109.471C163.249 109.999 162.644 111.461 163.172 112.737L165.482 111.78L167.791 110.824ZM166.253 122.404C166.568 123.748 167.913 124.582 169.258 124.267C170.602 123.952 171.436 122.606 171.121 121.262L168.687 121.833L166.253 122.404ZM172.875 131.892C172.736 130.518 171.509 129.518 170.135 129.658C168.761 129.798 167.761 131.025 167.901 132.399L170.388 132.145L172.875 131.892ZM168.433 142.42C168.456 143.801 169.595 144.901 170.975 144.878C172.356 144.854 173.456 143.716 173.432 142.336L170.933 142.378L168.433 142.42ZM173.329 152.391C173.379 151.012 172.301 149.852 170.922 149.802C169.542 149.752 168.383 150.83 168.333 152.21L170.831 152.301L173.329 152.391ZM167.742 161.98C167.627 163.356 168.649 164.565 170.025 164.68C171.401 164.795 172.61 163.773 172.725 162.397L170.234 162.189L167.742 161.98ZM171.673 172.341C171.847 170.972 170.878 169.72 169.509 169.545C168.139 169.371 166.887 170.34 166.713 171.71L169.193 172.025L171.673 172.341ZM165.278 181.403C165.049 182.765 165.967 184.054 167.328 184.283C168.69 184.513 169.979 183.595 170.209 182.233L167.743 181.818L165.278 181.403ZM168.36 192.059C168.641 190.707 167.773 189.384 166.421 189.103C165.069 188.822 163.745 189.691 163.465 191.042L165.912 191.551L168.36 192.059ZM161.293 200.613C160.963 201.953 161.782 203.308 163.123 203.638C164.464 203.968 165.818 203.148 166.148 201.808L163.72 201.21L161.293 200.613ZM163.587 211.468C163.964 210.14 163.194 208.757 161.865 208.38C160.537 208.003 159.155 208.774 158.777 210.102L161.182 210.785L163.587 211.468ZM155.93 219.498C155.506 220.812 156.229 222.221 157.543 222.644C158.857 223.067 160.266 222.345 160.689 221.031L158.309 220.265L155.93 219.498ZM157.461 230.487C157.929 229.188 157.256 227.755 155.958 227.287C154.659 226.818 153.226 227.491 152.758 228.79L155.109 229.638L157.461 230.487ZM149.266 237.966C148.752 239.248 149.375 240.703 150.657 241.216C151.939 241.73 153.394 241.107 153.907 239.825L151.587 238.896L149.266 237.966ZM150.031 249.035C150.589 247.772 150.017 246.296 148.754 245.738C147.491 245.18 146.015 245.752 145.458 247.015L147.744 248.025L150.031 249.035ZM141.334 255.923C140.732 257.165 141.251 258.66 142.493 259.263C143.736 259.865 145.231 259.346 145.834 258.103L143.584 257.013L141.334 255.923ZM141.313 267.017C141.96 265.797 141.495 264.284 140.275 263.638C139.055 262.991 137.542 263.455 136.896 264.675L139.104 265.846L141.313 267.017ZM132.141 273.258C131.449 274.453 131.858 275.982 133.053 276.674C134.248 277.365 135.777 276.957 136.469 275.762L134.305 274.51L132.141 273.258ZM131.297 284.32C132.034 283.152 131.684 281.609 130.516 280.872C129.349 280.135 127.805 280.485 127.068 281.653L129.183 282.987L131.297 284.32ZM121.676 289.842C120.893 290.98 121.182 292.536 122.32 293.318C123.458 294.1 125.014 293.812 125.796 292.674L123.736 291.258L121.676 289.842ZM119.962 300.803C120.79 299.698 120.565 298.131 119.461 297.303C118.356 296.475 116.789 296.7 115.961 297.805L117.961 299.304L119.962 300.803ZM109.922 305.52C109.048 306.589 109.206 308.164 110.275 309.038C111.344 309.912 112.919 309.754 113.793 308.685L111.857 307.102L109.922 305.52ZM107.286 316.296C108.206 315.267 108.118 313.686 107.088 312.766C106.059 311.845 104.479 311.934 103.558 312.963L105.422 314.629L107.286 316.296ZM96.8695 320.109C95.903 321.095 95.9188 322.678 96.9048 323.645C97.8908 324.611 99.4736 324.595 100.44 323.609L98.6548 321.859L96.8695 320.109ZM93.2575 330.598C94.2699 329.659 94.3295 328.077 93.3906 327.065C92.4517 326.053 90.8699 325.993 89.8576 326.932L91.5575 328.765L93.2575 330.598ZM82.5263 333.403C81.4688 334.291 81.3311 335.868 82.2188 336.925C83.1065 337.983 84.6834 338.12 85.7409 337.233L84.1336 335.318L82.5263 333.403ZM77.8967 343.484C78.9983 342.651 79.2165 341.084 78.384 339.982C77.5516 338.88 75.9838 338.662 74.8823 339.495L76.3895 341.489L77.8967 343.484ZM66.9349 345.178C65.7909 345.951 65.4902 347.505 66.2633 348.649C67.0364 349.793 68.5905 350.094 69.7345 349.321L68.3347 347.25L66.9349 345.178ZM61.2678 354.715C62.452 354.005 62.8366 352.47 62.1267 351.286C61.4168 350.101 59.8813 349.717 58.697 350.427L59.9824 352.571L61.2678 354.715ZM50.185 355.214C48.9632 355.858 48.4941 357.369 49.1373 358.591C49.7804 359.813 51.2922 360.282 52.514 359.639L51.3495 357.427L50.185 355.214ZM43.4987 364.065C44.7548 363.492 45.3083 362.009 44.735 360.753C44.1617 359.497 42.6788 358.943 41.4227 359.517L42.4607 361.791L43.4987 364.065ZM32.4363 363.314C31.1497 363.815 30.5128 365.264 31.0137 366.55C31.5147 367.837 32.9638 368.474 34.2505 367.973L33.3434 365.643L32.4363 363.314ZM24.7961 371.347C26.1092 370.92 26.8276 369.51 26.4006 368.197C25.9737 366.884 24.5632 366.165 23.2502 366.592L24.0231 368.97L24.7961 371.347ZM13.8929 369.343C12.5577 369.695 11.7606 371.063 12.1125 372.398C12.4644 373.733 13.8319 374.53 15.1671 374.178L14.53 371.761L13.8929 369.343ZM5.39531 376.463C6.74801 376.186 7.62032 374.865 7.34364 373.512C7.06698 372.16 5.7461 371.287 4.39339 371.564L4.89436 374.013L5.39531 376.463ZM24.2695 2.50049L23.2948 4.80262C24.9303 5.49513 26.5652 6.18562 28.1981 6.87444L29.1698 4.57098L30.1414 2.26752C28.5097 1.57926 26.8771 0.889702 25.2443 0.198356L24.2695 2.50049ZM38.9745 8.70368L38.0027 11.0071C41.2856 12.3922 44.5509 13.7738 47.7903 15.1558L48.7714 12.8564L49.7524 10.5569C46.5042 9.1711 43.232 7.78658 39.9464 6.40031L38.9745 8.70368ZM58.5429 17.0684L57.543 19.3597C60.8173 20.7886 64.0528 22.2211 67.2396 23.6613L68.2692 21.3831L69.2987 19.1049C66.0887 17.6542 62.833 16.2128 59.5427 14.7771L58.5429 17.0684ZM77.9261 25.8498L76.8544 28.1084C80.0911 29.6442 83.2611 31.1923 86.3529 32.757L87.4818 30.5264L88.6107 28.2957C85.4761 26.7094 82.2676 25.1426 78.9978 23.5911L77.9261 25.8498ZM96.8918 35.4826L95.6873 37.6733C98.8359 39.4044 101.877 41.159 104.796 42.9426L106.1 40.8093L107.403 38.6759C104.411 36.8479 101.303 35.0551 98.0963 33.2919L96.8918 35.4826ZM115.018 46.623L113.585 48.6721C116.53 50.7303 119.301 52.8284 121.88 54.9734L123.478 53.0514L125.077 51.1293C122.378 48.8841 119.494 46.7018 116.45 44.574L115.018 46.623ZM131.276 60.2939L129.467 62.0187C131.917 64.5891 134.085 67.2239 135.948 69.9329L138.008 68.516L140.068 67.0991C138.036 64.1461 135.696 61.3072 133.086 58.5691L131.276 60.2939ZM143.117 77.8213L140.808 78.78C141.453 80.3323 142.003 81.9107 142.454 83.5175L144.861 82.8419L147.268 82.1664C146.761 80.3617 146.145 78.5943 145.426 76.8626L143.117 77.8213ZM144.861 82.8419L142.454 83.5175C142.896 85.0929 143.269 86.6457 143.577 88.175L146.028 87.6814L148.479 87.1878C148.146 85.5339 147.743 83.8598 147.268 82.1664L144.861 82.8419ZM147.188 97.5298L144.689 97.6097C144.794 100.88 144.593 104.024 144.126 107.03L146.597 107.414L149.067 107.797C149.582 104.482 149.801 101.028 149.686 97.4498L147.188 97.5298ZM144.13 117.001L141.782 116.142C140.684 119.145 139.306 121.974 137.695 124.617L139.83 125.918L141.965 127.219C143.742 124.304 145.264 121.178 146.478 117.859L144.13 117.001ZM133.888 133.844L132.038 132.162C129.895 134.518 127.551 136.65 125.062 138.538L126.573 140.53L128.084 142.522C130.811 140.452 133.384 138.114 135.738 135.526L133.888 133.844ZM118.168 145.777L117.043 143.544C114.182 144.985 111.232 146.134 108.262 146.972L108.941 149.378L109.62 151.784C112.905 150.857 116.153 149.591 119.292 148.009L118.168 145.777ZM99.176 151.053L99.0281 148.557C95.8554 148.745 92.7528 148.548 89.8005 147.953L89.3063 150.404L88.8121 152.854C92.2196 153.542 95.7557 153.76 99.3238 153.548L99.176 151.053ZM80.0252 147.014L81.2442 144.832C78.6556 143.386 76.2836 141.511 74.2068 139.174L72.3382 140.835L70.4697 142.496C72.9255 145.259 75.739 147.484 78.8063 149.197L80.0252 147.014ZM66.985 132.514L69.2604 131.478C68.642 130.119 68.087 128.669 67.6032 127.123L65.2173 127.869L62.8314 128.616C63.3745 130.351 64.0024 131.996 64.7096 133.549L66.985 132.514ZM65.2173 127.869L67.6032 127.123C67.1026 125.522 66.7635 123.951 66.5718 122.412L64.0909 122.721L61.6101 123.03C61.8398 124.874 62.2439 126.738 62.8314 128.616L65.2173 127.869ZM64.8291 112.297L67.2413 112.954C68.0672 109.919 69.471 107.008 71.3739 104.266L69.3203 102.841L67.2666 101.415C65.0747 104.573 63.4081 107.998 62.4168 111.641L64.8291 112.297ZM76.4003 95.108L78.025 97.008C80.4784 94.91 83.2487 92.9986 86.2637 91.3125L85.0434 89.1306L83.8231 86.9486C80.5448 88.782 77.4995 90.8785 74.7755 93.208L76.4003 95.108ZM94.6221 84.7944L95.4644 87.1482C98.6064 86.0239 101.885 85.127 105.237 84.4846L104.766 82.0293L104.295 79.574C100.692 80.2646 97.165 81.2293 93.7799 82.4406L94.6221 84.7944ZM115.213 80.8549L115.296 83.3535C118.669 83.2411 122.047 83.4001 125.372 83.8529L125.71 81.3757L126.047 78.8986C122.429 78.406 118.769 78.235 115.129 78.3563L115.213 80.8549ZM135.943 83.7513L135.146 86.1206C138.298 87.1819 141.339 88.5573 144.213 90.2687L145.492 88.1206L146.771 85.9726C143.576 84.0702 140.21 82.55 136.741 81.3819L135.943 83.7513ZM153.848 94.4696L152.12 96.276C154.438 98.4941 156.577 101.028 158.49 103.901L160.571 102.515L162.652 101.13C160.536 97.9523 158.161 95.1361 155.576 92.6632L153.848 94.4696ZM165.482 111.78L163.172 112.737C164.396 115.693 165.433 118.911 166.253 122.404L168.687 121.833L171.121 121.262C170.243 117.52 169.125 114.043 167.791 110.824L165.482 111.78ZM170.388 132.145L167.901 132.399C168.072 134.074 168.199 135.8 168.281 137.578L170.779 137.463L173.276 137.348C173.19 135.48 173.056 133.662 172.875 131.892L170.388 132.145ZM170.779 137.463L168.281 137.578C168.355 139.17 168.405 140.784 168.433 142.42L170.933 142.378L173.432 142.336C173.404 140.653 173.352 138.989 173.276 137.348L170.779 137.463ZM170.831 152.301L168.333 152.21C168.217 155.405 168.02 158.665 167.742 161.98L170.234 162.189L172.725 162.397C173.009 159.006 173.21 155.668 173.329 152.391L170.831 152.301ZM169.193 172.025L166.713 171.71C166.306 174.903 165.828 178.136 165.278 181.403L167.743 181.818L170.209 182.233C170.77 178.902 171.258 175.602 171.673 172.341L169.193 172.025ZM165.912 191.551L163.465 191.042C162.806 194.211 162.083 197.403 161.293 200.613L163.72 201.21L166.148 201.808C166.952 198.539 167.69 195.288 168.36 192.059L165.912 191.551ZM161.182 210.785L158.777 210.102C157.89 213.226 156.941 216.359 155.93 219.498L158.309 220.265L160.689 221.031C161.718 217.837 162.684 214.648 163.587 211.468L161.182 210.785ZM155.109 229.638L152.758 228.79C151.653 231.852 150.489 234.912 149.266 237.966L151.587 238.896L153.907 239.825C155.152 236.717 156.336 233.603 157.461 230.487L155.109 229.638ZM147.744 248.025L145.458 247.015C144.141 249.997 142.766 252.968 141.334 255.923L143.584 257.013L145.834 258.103C147.292 255.095 148.691 252.07 150.031 249.035L147.744 248.025ZM139.104 265.846L136.896 264.675C135.367 267.558 133.782 270.421 132.141 273.258L134.305 274.51L136.469 275.762C138.142 272.871 139.756 269.954 141.313 267.017L139.104 265.846ZM129.183 282.987L127.068 281.653C125.327 284.414 123.529 287.145 121.676 289.842L123.736 291.258L125.796 292.674C127.688 289.922 129.521 287.136 131.297 284.32L129.183 282.987ZM117.961 299.304L115.961 297.805C114.004 300.417 111.991 302.99 109.922 305.52L111.857 307.102L113.793 308.685C115.907 306.099 117.963 303.47 119.962 300.803L117.961 299.304ZM105.422 314.629L103.558 312.963C101.384 315.394 99.1549 317.778 96.8695 320.109L98.6548 321.859L100.44 323.609C102.78 321.222 105.062 318.783 107.286 316.296L105.422 314.629ZM91.5575 328.765L89.8576 326.932C87.4695 329.146 85.0259 331.305 82.5263 333.403L84.1336 335.318L85.7409 337.233C88.3048 335.081 90.8102 332.868 93.2575 330.598L91.5575 328.765ZM76.3895 341.489L74.8823 339.495C72.2885 341.455 69.6395 343.351 66.9349 345.178L68.3347 347.25L69.7345 349.321C72.5133 347.443 75.2339 345.496 77.8967 343.484L76.3895 341.489ZM59.9824 352.571L58.697 350.427C55.9143 352.095 53.0771 353.692 50.185 355.214L51.3495 357.427L52.514 359.639C55.489 358.073 58.4068 356.43 61.2678 354.715L59.9824 352.571ZM42.4607 361.791L41.4227 359.517C38.4804 360.86 35.485 362.126 32.4363 363.314L33.3434 365.643L34.2505 367.973C37.3882 366.751 40.4709 365.447 43.4987 364.065L42.4607 361.791ZM24.0231 368.97L23.2502 366.592C20.1821 367.59 17.063 368.508 13.8929 369.343L14.53 371.761L15.1671 374.178C18.4289 373.319 21.6385 372.374 24.7961 371.347L24.0231 368.97Z" fill="black"/>
</svg>
