<svg width="174" height="338" viewBox="0 0 174 338" fill="none" xmlns="http://www.w3.org/2000/svg">
<path d="M48.783 26.168C48.3119 27.4659 48.9821 28.8999 50.28 29.371C51.5778 29.8421 53.0119 29.1719 53.483 27.8741L51.133 27.021L48.783 26.168ZM144.861 35.5116L147.268 34.836L144.861 35.5116ZM170.779 90.1328L173.276 90.0175L170.779 90.1328ZM-0.000187097 327.613L27.2554 337.125L21.8647 308.765L-0.000187097 327.613ZM55.3213 23.681C55.9591 22.4564 55.4835 20.9466 54.2589 20.3088C53.0344 19.671 51.5246 20.1466 50.8868 21.3712L53.104 22.5261L55.3213 23.681ZM56.9793 12.8639C56.0232 13.86 56.0557 15.4426 57.0518 16.3987C58.0479 17.3548 59.6305 17.3223 60.5866 16.3262L58.7829 14.595L56.9793 12.8639ZM67.7277 10.7181C68.9182 10.0187 69.3162 8.48661 68.6167 7.29618C67.9172 6.10575 66.3852 5.70775 65.1948 6.40721L66.4612 8.56267L67.7277 10.7181ZM74.6867 2.27194C73.3667 2.67697 72.625 4.07536 73.0301 5.39533C73.4351 6.7153 74.8335 7.457 76.1535 7.05196L75.4201 4.66195L74.6867 2.27194ZM85.2766 5.21443C86.6495 5.06806 87.6438 3.83643 87.4975 2.46349C87.3511 1.09056 86.1195 0.0962344 84.7465 0.242601L85.0116 2.72851L85.2766 5.21443ZM94.933 0.00395181C93.5544 -0.073044 92.3744 0.982084 92.2974 2.36065C92.2204 3.73921 93.2756 4.91918 94.6541 4.99617L94.7936 2.50006L94.933 0.00395181ZM103.999 6.21594C105.351 6.49324 106.672 5.62155 106.95 4.26897C107.227 2.91639 106.355 1.59511 105.003 1.31782L104.501 3.76688L103.999 6.21594ZM114.772 4.05912C113.473 3.59168 112.041 4.26595 111.573 5.56513C111.106 6.86432 111.78 8.29644 113.079 8.76387L113.925 6.41149L114.772 4.05912ZM121.671 12.6015C122.884 13.2603 124.402 12.8108 125.061 11.5974C125.72 10.3841 125.27 8.86633 124.057 8.20747L122.864 10.4045L121.671 12.6015ZM132.588 13.8256C131.508 12.9659 129.935 13.145 129.075 14.2254C128.216 15.3059 128.395 16.8786 129.475 17.7383L131.032 15.7819L132.588 13.8256ZM136.085 24.208C136.959 25.277 138.534 25.4351 139.603 24.5612C140.672 23.6873 140.83 22.1123 139.956 21.0433L138.021 22.6257L136.085 24.208ZM145.471 29.8876C144.906 28.6279 143.426 28.0649 142.167 28.6302C140.907 29.1954 140.344 30.6748 140.909 31.9345L143.19 30.911L145.471 29.8876ZM143.577 40.8446C143.85 42.1981 145.168 43.0744 146.522 42.8018C147.875 42.5292 148.752 41.2109 148.479 39.8574L146.028 40.351L143.577 40.8446ZM149.687 50.1195C149.643 48.7395 148.488 47.6565 147.108 47.7007C145.728 47.7448 144.645 48.8993 144.689 50.2793L147.188 50.1994L149.687 50.1195ZM144.127 59.6999C143.915 61.0643 144.849 62.342 146.214 62.5538C147.578 62.7656 148.856 61.8313 149.068 60.4669L146.597 60.0834L144.127 59.6999ZM146.478 70.5288C146.952 69.2321 146.286 67.7965 144.989 67.3223C143.692 66.8482 142.257 67.515 141.782 68.8117L144.13 69.6703L146.478 70.5288ZM137.696 77.2863C136.977 78.4653 137.35 80.0036 138.529 80.7222C139.708 81.4408 141.246 81.0676 141.965 79.8886L139.83 78.5875L137.696 77.2863ZM135.738 88.1951C136.667 87.1736 136.592 85.5925 135.57 84.6636C134.549 83.7347 132.967 83.8098 132.039 84.8313L133.888 86.5132L135.738 88.1951ZM125.062 91.208C123.962 92.0425 123.747 93.6107 124.581 94.7107C125.416 95.8107 126.984 96.0258 128.084 95.1913L126.573 93.1996L125.062 91.208ZM119.293 100.679C120.526 100.058 121.022 98.5549 120.401 97.3217C119.78 96.0886 118.277 95.5924 117.044 96.2135L118.168 98.4463L119.293 100.679ZM108.262 99.6414C106.933 100.016 106.16 101.398 106.535 102.726C106.91 104.055 108.291 104.828 109.62 104.453L108.941 102.047L108.262 99.6414ZM99.324 106.218C100.702 106.136 101.753 104.953 101.672 103.574C101.59 102.196 100.407 101.145 99.0284 101.227L99.1762 103.722L99.324 106.218ZM89.8007 100.623C88.4472 100.35 87.1288 101.226 86.8559 102.579C86.583 103.933 87.4589 105.251 88.8124 105.524L89.3065 103.073L89.8007 100.623ZM78.8065 101.867C80.012 102.54 81.535 102.108 82.2082 100.903C82.8814 99.6975 82.4499 98.1746 81.2444 97.5014L80.0255 99.6841L78.8065 101.867ZM74.207 91.8437C73.2897 90.8118 71.7095 90.7188 70.6776 91.6361C69.6456 92.5534 69.5527 94.1336 70.47 95.1656L72.3385 93.5046L74.207 91.8437ZM64.7099 86.2191C65.2819 87.4757 66.7643 88.0308 68.0209 87.4588C69.2776 86.8868 69.8327 85.4044 69.2607 84.1478L66.9853 85.1834L64.7099 86.2191ZM66.572 75.0819C66.4014 73.7118 65.1523 72.7394 63.7822 72.9101C62.412 73.0808 61.4397 74.3298 61.6104 75.7L64.0912 75.3909L66.572 75.0819ZM62.4171 64.3103C62.0545 65.6425 62.8406 67.0165 64.1728 67.3791C65.5051 67.7417 66.879 66.9556 67.2416 65.6233L64.8293 64.9668L62.4171 64.3103ZM71.3742 56.9361C72.1615 55.8019 71.8803 54.2441 70.7461 53.4568C69.6119 52.6694 68.0542 52.9506 67.2668 54.0848L69.3205 55.5105L71.3742 56.9361ZM74.7757 45.8776C73.7264 46.7749 73.6031 48.353 74.5005 49.4024C75.3978 50.4517 76.9759 50.575 78.0253 49.6776L76.4005 47.7776L74.7757 45.8776ZM86.2639 43.9821C87.469 43.3082 87.8996 41.785 87.2256 40.5799C86.5517 39.3749 85.0285 38.9443 83.8234 39.6182L85.0437 41.8002L86.2639 43.9821ZM93.7801 35.1102C92.4801 35.5754 91.8034 37.0063 92.2686 38.3063C92.7337 39.6063 94.1647 40.283 95.4647 39.8179L94.6224 37.464L93.7801 35.1102ZM105.237 37.1543C106.593 36.8944 107.481 35.5844 107.222 34.2284C106.962 32.8724 105.652 31.9837 104.296 32.2436L104.766 34.6989L105.237 37.1543ZM115.13 31.0259C113.75 31.0718 112.668 32.2278 112.714 33.6077C112.76 34.9877 113.916 36.0691 115.296 36.0231L115.213 33.5245L115.13 31.0259ZM125.372 36.5225C126.741 36.7088 128.001 35.7508 128.187 34.3827C128.373 33.0146 127.415 31.7545 126.047 31.5682L125.71 34.0454L125.372 36.5225ZM136.741 34.0515C135.433 33.611 134.015 34.3147 133.574 35.6232C133.134 36.9318 133.837 38.3497 135.146 38.7902L135.943 36.4209L136.741 34.0515ZM144.213 42.9383C145.399 43.6447 146.933 43.2556 147.64 42.0693C148.346 40.883 147.957 39.3486 146.771 38.6422L145.492 40.7903L144.213 42.9383ZM155.576 45.3327C154.579 44.3783 152.996 44.4133 152.042 45.411C151.087 46.4086 151.122 47.9912 152.12 48.9456L153.848 47.1392L155.576 45.3327ZM158.49 56.5703C159.255 57.7196 160.807 58.0309 161.957 57.2657C163.106 56.5004 163.417 54.9484 162.652 53.7992L160.571 55.1848L158.49 56.5703ZM167.792 63.4935C167.263 62.2179 165.801 61.6119 164.525 62.1402C163.25 62.6684 162.644 64.1308 163.172 65.4064L165.482 64.45L167.792 63.4935ZM166.253 75.0736C166.568 76.4178 167.914 77.2519 169.258 76.9366C170.602 76.6213 171.436 75.276 171.121 73.9317L168.687 74.5027L166.253 75.0736ZM172.876 84.5614C172.736 83.1878 171.509 82.1877 170.135 82.3276C168.762 82.4675 167.761 83.6945 167.901 85.0681L170.389 84.8148L172.876 84.5614ZM168.433 95.0899C168.457 96.4704 169.595 97.5707 170.975 97.5473C172.356 97.524 173.456 96.3859 173.433 95.0054L170.933 95.0477L168.433 95.0899ZM173.33 105.061C173.38 103.681 172.302 102.522 170.922 102.472C169.542 102.422 168.383 103.5 168.333 104.88L170.831 104.97L173.33 105.061ZM167.743 114.65C167.627 116.025 168.649 117.234 170.025 117.35C171.401 117.465 172.61 116.443 172.725 115.067L170.234 114.858L167.743 114.65ZM171.673 125.011C171.848 123.641 170.879 122.389 169.509 122.215C168.139 122.041 166.888 123.01 166.713 124.379L169.193 124.695L171.673 125.011ZM165.278 134.073C165.049 135.434 165.967 136.724 167.329 136.953C168.69 137.182 169.98 136.264 170.209 134.903L167.744 134.488L165.278 134.073ZM168.36 144.729C168.641 143.377 167.773 142.053 166.421 141.773C165.069 141.492 163.746 142.36 163.465 143.712L165.913 144.22L168.36 144.729ZM161.293 153.282C160.963 154.623 161.782 155.977 163.123 156.307C164.464 156.637 165.818 155.818 166.148 154.477L163.721 153.88L161.293 153.282ZM163.587 164.138C163.965 162.81 163.194 161.427 161.866 161.05C160.538 160.672 159.155 161.443 158.778 162.771L161.183 163.455L163.587 164.138ZM155.93 172.167C155.507 173.482 156.229 174.89 157.543 175.314C158.857 175.737 160.266 175.015 160.689 173.701L158.31 172.934L155.93 172.167ZM157.461 183.157C157.93 181.858 157.257 180.425 155.958 179.956C154.659 179.488 153.226 180.161 152.758 181.459L155.109 182.308L157.461 183.157ZM149.266 190.636C148.753 191.918 149.376 193.373 150.657 193.886C151.939 194.399 153.394 193.776 153.908 192.495L151.587 191.565L149.266 190.636ZM150.032 201.704C150.589 200.441 150.018 198.965 148.755 198.407C147.492 197.85 146.016 198.421 145.458 199.684L147.745 200.694L150.032 201.704ZM141.334 208.592C140.732 209.835 141.251 211.33 142.494 211.932C143.736 212.534 145.232 212.015 145.834 210.773L143.584 209.683L141.334 208.592ZM141.313 219.687C141.96 218.467 141.495 216.954 140.276 216.307C139.056 215.66 137.542 216.125 136.896 217.345L139.105 218.516L141.313 219.687ZM132.141 225.927C131.45 227.122 131.858 228.652 133.053 229.343C134.248 230.035 135.777 229.627 136.469 228.431L134.305 227.179L132.141 225.927ZM131.297 236.99C132.034 235.822 131.684 234.278 130.517 233.542C129.349 232.805 127.805 233.155 127.068 234.322L129.183 235.656L131.297 236.99ZM121.676 242.512C120.894 243.649 121.182 245.206 122.32 245.988C123.458 246.77 125.014 246.482 125.796 245.344L123.736 243.928L121.676 242.512ZM119.962 253.473C120.79 252.368 120.566 250.801 119.461 249.973C118.356 249.145 116.789 249.37 115.961 250.475L117.962 251.974L119.962 253.473ZM109.922 258.189C109.048 259.258 109.206 260.833 110.275 261.707C111.344 262.581 112.919 262.423 113.793 261.355L111.858 259.772L109.922 258.189ZM107.286 268.965C108.206 267.936 108.118 266.356 107.088 265.435C106.059 264.515 104.479 264.603 103.558 265.633L105.422 267.299L107.286 268.965ZM96.8697 272.779C95.9032 273.765 95.919 275.348 96.905 276.314C97.891 277.281 99.4739 277.265 100.44 276.279L98.6551 274.529L96.8697 272.779ZM93.2577 283.268C94.2701 282.329 94.3297 280.747 93.3908 279.735C92.452 278.722 90.8702 278.663 89.8578 279.601L91.5578 281.434L93.2577 283.268ZM82.5266 286.073C81.469 286.96 81.3313 288.537 82.219 289.595C83.1067 290.652 84.6836 290.79 85.7411 289.902L84.1338 287.987L82.5266 286.073ZM77.8969 296.153C78.9985 295.321 79.2167 293.753 78.3843 292.652C77.5519 291.55 75.9841 291.332 74.8825 292.164L76.3897 294.159L77.8969 296.153ZM66.9351 297.848C65.7911 298.621 65.4905 300.175 66.2635 301.319C67.0366 302.463 68.5907 302.764 69.7347 301.991L68.3349 299.919L66.9351 297.848ZM61.268 307.385C62.4523 306.675 62.8368 305.139 62.1269 303.955C61.417 302.771 59.8815 302.386 58.6973 303.096L59.9826 305.241L61.268 307.385ZM50.1852 307.884C48.9634 308.527 48.4944 310.039 49.1375 311.261C49.7806 312.483 51.2924 312.952 52.5142 312.309L51.3497 310.096L50.1852 307.884ZM43.4989 316.735C44.755 316.162 45.3085 314.679 44.7352 313.423C44.162 312.166 42.679 311.613 41.4229 312.186L42.4609 314.46L43.4989 316.735ZM32.4365 315.983C31.1499 316.484 30.513 317.933 31.014 319.22C31.5149 320.506 32.9641 321.143 34.2507 320.642L33.3436 318.313L32.4365 315.983ZM24.7963 324.017C26.1094 323.59 26.8278 322.179 26.4009 320.866C25.974 319.553 24.5634 318.835 23.2504 319.262L24.0234 321.639L24.7963 324.017ZM13.8931 322.013C12.558 322.365 11.7609 323.732 12.1127 325.068C12.4646 326.403 13.8322 327.2 15.1673 326.848L14.5302 324.43L13.8931 322.013ZM5.39552 329.132C6.74823 328.856 7.62053 327.535 7.34386 326.182C7.06719 324.829 5.74631 323.957 4.39361 324.234L4.89457 326.683L5.39552 329.132ZM51.133 27.021L53.483 27.8741C54.0198 26.3952 54.635 24.9985 55.3213 23.681L53.104 22.5261L50.8868 21.3712C50.0971 22.8873 49.3936 24.486 48.783 26.168L51.133 27.021ZM58.7829 14.595L60.5866 16.3262C62.6964 14.128 65.0971 12.2638 67.7277 10.7181L66.4612 8.56267L65.1948 6.40721C62.1937 8.17055 59.426 10.3148 56.9793 12.8639L58.7829 14.595ZM75.4201 4.66195L76.1535 7.05196C79.0621 6.15943 82.1234 5.55058 85.2766 5.21443L85.0116 2.72851L84.7465 0.242601C81.3017 0.60985 77.9248 1.27833 74.6867 2.27194L75.4201 4.66195ZM94.7936 2.50006L94.6541 4.99617C97.7693 5.17016 100.903 5.5813 103.999 6.21594L104.501 3.76688L105.003 1.31782C101.674 0.635449 98.2983 0.191912 94.933 0.00395181L94.7936 2.50006ZM113.925 6.41149L113.079 8.76387C116.066 9.83845 118.949 11.1234 121.671 12.6015L122.864 10.4045L124.057 8.20747C121.103 6.60355 117.987 5.21605 114.772 4.05912L113.925 6.41149ZM131.032 15.7819L129.475 17.7383C131.954 19.7109 134.178 21.8751 136.085 24.208L138.021 22.6257L139.956 21.0433C137.804 18.4103 135.32 15.9993 132.588 13.8256L131.032 15.7819ZM143.19 30.911L140.909 31.9345C141.527 33.3122 142.045 34.7304 142.454 36.1871L144.861 35.5116L147.268 34.836C146.79 33.1346 146.187 31.484 145.471 29.8876L143.19 30.911ZM144.861 35.5116L142.454 36.1871C142.896 37.7625 143.269 39.3153 143.577 40.8446L146.028 40.351L148.479 39.8574C148.146 38.2035 147.743 36.5294 147.268 34.836L144.861 35.5116ZM147.188 50.1994L144.689 50.2793C144.794 53.5498 144.593 56.6932 144.127 59.6999L146.597 60.0834L149.068 60.4669C149.582 57.1512 149.801 53.6975 149.687 50.1195L147.188 50.1994ZM144.13 69.6703L141.782 68.8117C140.684 71.8142 139.306 74.6439 137.696 77.2863L139.83 78.5875L141.965 79.8886C143.742 76.9737 145.265 73.8481 146.478 70.5288L144.13 69.6703ZM133.888 86.5132L132.039 84.8313C129.896 87.1877 127.551 89.3194 125.062 91.208L126.573 93.1996L128.084 95.1913C130.812 93.1219 133.384 90.7838 135.738 88.1951L133.888 86.5132ZM118.168 98.4463L117.044 96.2135C114.182 97.6545 111.232 98.8033 108.262 99.6414L108.941 102.047L109.62 104.453C112.905 103.526 116.153 102.26 119.293 100.679L118.168 98.4463ZM99.1762 103.722L99.0284 101.227C95.8556 101.415 92.753 101.218 89.8007 100.623L89.3065 103.073L88.8124 105.524C92.2199 106.211 95.756 106.429 99.324 106.218L99.1762 103.722ZM80.0255 99.6841L81.2444 97.5014C78.6558 96.0557 76.2839 94.1802 74.207 91.8437L72.3385 93.5046L70.47 95.1656C72.9257 97.9283 75.7392 100.154 78.8065 101.867L80.0255 99.6841ZM66.9853 85.1834L69.2607 84.1478C68.6423 82.7891 68.0873 81.3383 67.6035 79.7921L65.2176 80.5387L62.8316 81.2853C63.3747 83.0209 64.0027 84.6652 64.7099 86.2191L66.9853 85.1834ZM65.2176 80.5387L67.6035 79.7921C67.1028 78.192 66.7637 76.6207 66.572 75.0819L64.0912 75.3909L61.6104 75.7C61.84 77.5437 62.2441 79.4076 62.8316 81.2853L65.2176 80.5387ZM64.8293 64.9668L67.2416 65.6233C68.0675 62.5887 69.4713 59.6774 71.3742 56.9361L69.3205 55.5105L67.2668 54.0848C65.0749 57.2424 63.4084 60.6681 62.4171 64.3103L64.8293 64.9668ZM76.4005 47.7776L78.0253 49.6776C80.4787 47.5796 83.249 45.6682 86.2639 43.9821L85.0437 41.8002L83.8234 39.6182C80.545 41.4516 77.4997 43.5482 74.7757 45.8776L76.4005 47.7776ZM94.6224 37.464L95.4647 39.8179C98.6067 38.6936 101.885 37.7966 105.237 37.1543L104.766 34.6989L104.296 32.2436C100.692 32.9342 97.1652 33.8989 93.7801 35.1102L94.6224 37.464ZM115.213 33.5245L115.296 36.0231C118.669 35.9107 122.048 36.0697 125.372 36.5225L125.71 34.0454L126.047 31.5682C122.43 31.0756 118.77 30.9046 115.13 31.0259L115.213 33.5245ZM135.943 36.4209L135.146 38.7902C138.298 39.8515 141.339 41.227 144.213 42.9383L145.492 40.7903L146.771 38.6422C143.576 36.7398 140.211 35.2196 136.741 34.0515L135.943 36.4209ZM153.848 47.1392L152.12 48.9456C154.438 51.1637 156.577 53.6975 158.49 56.5703L160.571 55.1848L162.652 53.7992C160.536 50.6219 158.161 47.8057 155.576 45.3327L153.848 47.1392ZM165.482 64.45L163.172 65.4064C164.396 68.363 165.434 71.5804 166.253 75.0736L168.687 74.5027L171.121 73.9317C170.243 70.1894 169.125 66.7131 167.792 63.4935L165.482 64.45ZM170.389 84.8148L167.901 85.0681C168.072 86.7436 168.2 88.4699 168.282 90.248L170.779 90.1328L173.276 90.0175C173.19 88.1501 173.056 86.3316 172.876 84.5614L170.389 84.8148ZM170.779 90.1328L168.282 90.248C168.355 91.8397 168.406 93.4541 168.433 95.0899L170.933 95.0477L173.433 95.0054C173.404 93.3221 173.352 91.659 173.276 90.0175L170.779 90.1328ZM170.831 104.97L168.333 104.88C168.217 108.075 168.02 111.334 167.743 114.65L170.234 114.858L172.725 115.067C173.009 111.676 173.211 108.338 173.33 105.061L170.831 104.97ZM169.193 124.695L166.713 124.379C166.307 127.572 165.828 130.806 165.278 134.073L167.744 134.488L170.209 134.903C170.77 131.571 171.258 128.271 171.673 125.011L169.193 124.695ZM165.913 144.22L163.465 143.712C162.807 146.881 162.083 150.073 161.293 153.282L163.721 153.88L166.148 154.477C166.952 151.209 167.69 147.958 168.36 144.729L165.913 144.22ZM161.183 163.455L158.778 162.771C157.89 165.895 156.941 169.029 155.93 172.167L158.31 172.934L160.689 173.701C161.718 170.507 162.684 167.317 163.587 164.138L161.183 163.455ZM155.109 182.308L152.758 181.459C151.653 184.521 150.489 187.582 149.266 190.636L151.587 191.565L153.908 192.495C155.152 189.387 156.337 186.272 157.461 183.157L155.109 182.308ZM147.745 200.694L145.458 199.684C144.141 202.667 142.766 205.637 141.334 208.592L143.584 209.683L145.834 210.773C147.292 207.764 148.691 204.74 150.032 201.704L147.745 200.694ZM139.105 218.516L136.896 217.345C135.367 220.228 133.783 223.09 132.141 225.927L134.305 227.179L136.469 228.431C138.142 225.54 139.757 222.624 141.313 219.687L139.105 218.516ZM129.183 235.656L127.068 234.322C125.327 237.083 123.529 239.815 121.676 242.512L123.736 243.928L125.796 245.344C127.688 242.592 129.521 239.806 131.297 236.99L129.183 235.656ZM117.962 251.974L115.961 250.475C114.004 253.086 111.991 255.66 109.922 258.189L111.858 259.772L113.793 261.355C115.907 258.769 117.964 256.14 119.962 253.473L117.962 251.974ZM105.422 267.299L103.558 265.633C101.385 268.064 99.1552 270.447 96.8697 272.779L98.6551 274.529L100.44 276.279C102.78 273.892 105.062 271.452 107.286 268.965L105.422 267.299ZM91.5578 281.434L89.8578 279.601C87.4698 281.816 85.0261 283.975 82.5266 286.073L84.1338 287.987L85.7411 289.902C88.305 287.75 90.8104 285.537 93.2577 283.268L91.5578 281.434ZM76.3897 294.159L74.8825 292.164C72.2888 294.124 69.6397 296.02 66.9351 297.848L68.3349 299.919L69.7347 301.991C72.5135 300.113 75.2341 298.165 77.8969 296.153L76.3897 294.159ZM59.9826 305.241L58.6973 303.096C55.9146 304.764 53.0773 306.362 50.1852 307.884L51.3497 310.096L52.5142 312.309C55.4892 310.743 58.407 309.1 61.268 307.385L59.9826 305.241ZM42.4609 314.46L41.4229 312.186C38.4806 313.529 35.4852 314.796 32.4365 315.983L33.3436 318.313L34.2507 320.642C37.3884 319.421 40.4712 318.117 43.4989 316.735L42.4609 314.46ZM24.0234 321.639L23.2504 319.262C20.1823 320.259 17.0633 321.178 13.8931 322.013L14.5302 324.43L15.1673 326.848C18.4291 325.988 21.6387 325.043 24.7963 324.017L24.0234 321.639Z" fill="black"/>
</svg>
