<svg width="285" height="353" viewBox="0 0 285 353" fill="none" xmlns="http://www.w3.org/2000/svg">
<path d="M159.392 26.1682C158.921 27.466 159.591 28.9001 160.889 29.3712C162.187 29.8423 163.621 29.1721 164.092 27.8742L161.742 27.0212L159.392 26.1682ZM255.47 35.5117L257.877 34.8362L255.47 35.5117ZM281.388 90.1329L278.893 89.9748L281.388 90.1329ZM-4.44996e-05 342.659L27.0991 352.608L22.1651 324.165L-4.44996e-05 342.659ZM5.39346 344.261C6.75434 344.028 7.66854 342.736 7.43538 341.375C7.20224 340.014 5.91001 339.1 4.54912 339.333L4.97129 341.797L5.39346 344.261ZM14.5501 337.654C13.1878 337.878 12.2657 339.165 12.4906 340.527C12.7155 341.89 14.0021 342.812 15.3644 342.587L14.9572 340.12L14.5501 337.654ZM25.3515 340.956C26.7145 340.735 27.6402 339.451 27.4192 338.088C27.1982 336.725 25.9142 335.799 24.5513 336.02L24.9514 338.488L25.3515 340.956ZM34.5469 334.401C33.184 334.622 32.2586 335.906 32.4799 337.269C32.7012 338.632 33.9855 339.557 35.3483 339.336L34.9476 336.868L34.5469 334.401ZM45.3437 337.699C46.7058 337.473 47.6271 336.186 47.4013 334.824C47.1756 333.462 45.8884 332.54 44.5262 332.766L44.935 335.232L45.3437 337.699ZM54.4909 331.086C53.1302 331.32 52.2169 332.613 52.451 333.973C52.6851 335.334 53.978 336.247 55.3387 336.013L54.9148 333.55L54.4909 331.086ZM65.3299 334.25C66.6884 334.004 67.59 332.703 67.3436 331.344C67.0972 329.986 65.7961 329.084 64.4375 329.331L64.8837 331.79L65.3299 334.25ZM74.3587 327.472C73.0032 327.735 72.1173 329.047 72.38 330.402C72.6427 331.758 73.9544 332.643 75.3099 332.381L74.8343 329.926L74.3587 327.472ZM85.2708 330.376C86.6222 330.093 87.4885 328.768 87.2056 327.417C86.9227 326.065 85.5979 325.199 84.2464 325.482L84.7586 327.929L85.2708 330.376ZM94.0914 323.331C92.7453 323.639 91.903 324.979 92.2101 326.325C92.5172 327.671 93.8574 328.513 95.2035 328.206L94.6475 325.769L94.0914 323.331ZM105.098 325.842C106.437 325.507 107.251 324.149 106.916 322.81C106.58 321.47 105.223 320.656 103.883 320.992L104.491 323.417L105.098 325.842ZM113.615 318.432C112.284 318.8 111.504 320.177 111.871 321.507C112.239 322.838 113.616 323.619 114.947 323.251L114.281 320.841L113.615 318.432ZM124.734 320.403C126.054 319.999 126.796 318.601 126.392 317.281C125.988 315.96 124.59 315.218 123.269 315.623L124.002 318.013L124.734 320.403ZM132.828 312.534C131.521 312.98 130.822 314.4 131.268 315.707C131.713 317.014 133.133 317.713 134.44 317.267L133.634 314.901L132.828 312.534ZM144.045 313.813C145.336 313.323 145.985 311.879 145.495 310.588C145.005 309.297 143.561 308.648 142.271 309.138L143.158 311.475L144.045 313.813ZM151.574 305.405C150.303 305.944 149.709 307.411 150.248 308.682C150.787 309.954 152.255 310.547 153.526 310.008L152.55 307.707L151.574 305.405ZM162.855 305.826C164.103 305.235 164.635 303.744 164.043 302.496C163.452 301.248 161.961 300.716 160.714 301.308L161.784 303.567L162.855 305.826ZM169.66 296.821C168.44 297.468 167.976 298.981 168.623 300.201C169.27 301.421 170.783 301.885 172.003 301.239L170.831 299.03L169.66 296.821ZM180.934 296.225C182.121 295.52 182.512 293.986 181.807 292.799C181.102 291.612 179.568 291.221 178.381 291.926L179.657 294.075L180.934 296.225ZM186.837 286.609C185.688 287.374 185.376 288.926 186.141 290.075C186.906 291.225 188.458 291.536 189.607 290.772L188.222 288.69L186.837 286.609ZM197.986 284.869C199.093 284.044 199.321 282.477 198.496 281.37C197.67 280.264 196.104 280.035 194.997 280.861L196.491 282.865L197.986 284.869ZM202.827 274.679C201.767 275.564 201.626 277.141 202.512 278.2C203.397 279.26 204.974 279.401 206.033 278.515L204.43 276.597L202.827 274.679ZM213.716 271.716C214.724 270.772 214.775 269.19 213.831 268.183C212.887 267.175 211.305 267.124 210.298 268.068L212.007 269.892L213.716 271.716ZM217.386 261.036C216.434 262.036 216.473 263.618 217.473 264.57C218.473 265.522 220.055 265.483 221.007 264.483L219.197 262.76L217.386 261.036ZM227.881 256.837C228.775 255.785 228.646 254.207 227.593 253.314C226.541 252.42 224.963 252.549 224.069 253.602L225.975 255.219L227.881 256.837ZM230.296 245.837C229.462 246.937 229.679 248.505 230.78 249.339C231.88 250.172 233.448 249.956 234.282 248.855L232.289 247.346L230.296 245.837ZM240.236 240.531C241.009 239.387 240.708 237.833 239.564 237.06C238.42 236.287 236.866 236.588 236.093 237.733L238.165 239.132L240.236 240.531ZM241.465 229.309C240.753 230.492 241.135 232.028 242.318 232.74C243.501 233.452 245.037 233.07 245.749 231.887L243.607 230.598L241.465 229.309ZM250.832 222.941C251.484 221.724 251.026 220.208 249.809 219.556C248.592 218.904 247.076 219.362 246.424 220.579L248.628 221.76L250.832 222.941ZM250.92 211.688C250.326 212.935 250.855 214.427 252.101 215.021C253.347 215.615 254.839 215.087 255.433 213.841L253.177 212.764L250.92 211.688ZM259.618 204.536C260.157 203.265 259.563 201.798 258.292 201.259C257.021 200.72 255.553 201.314 255.015 202.586L257.317 203.561L259.618 204.536ZM258.745 193.24C258.26 194.532 258.914 195.973 260.207 196.459C261.499 196.944 262.941 196.29 263.426 194.997L261.086 194.118L258.745 193.24ZM266.821 185.387C267.256 184.077 266.547 182.662 265.236 182.227C263.926 181.792 262.511 182.502 262.076 183.812L264.449 184.6L266.821 185.387ZM265.053 174.268C264.665 175.593 265.425 176.982 266.75 177.369C268.076 177.757 269.464 176.997 269.852 175.672L267.452 174.97L265.053 174.268ZM272.576 165.731C272.918 164.393 272.112 163.031 270.774 162.688C269.437 162.346 268.075 163.153 267.732 164.49L270.154 165.11L272.576 165.731ZM270.046 154.83C269.745 156.178 270.593 157.514 271.941 157.815C273.288 158.117 274.625 157.268 274.926 155.921L272.486 155.376L270.046 154.83ZM277.012 145.894C277.273 144.539 276.387 143.227 275.031 142.966C273.675 142.704 272.364 143.591 272.102 144.946L274.557 145.42L277.012 145.894ZM273.868 135.085C273.642 136.447 274.564 137.734 275.926 137.959C277.289 138.185 278.575 137.263 278.801 135.901L276.334 135.493L273.868 135.085ZM280.335 125.828C280.526 124.461 279.572 123.197 278.205 123.006C276.837 122.815 275.574 123.769 275.383 125.136L277.859 125.482L280.335 125.828ZM276.657 115.152C276.498 116.523 277.481 117.764 278.853 117.923C280.224 118.082 281.465 117.099 281.624 115.727L279.14 115.439L276.657 115.152ZM282.682 105.621C282.811 104.246 281.801 103.027 280.427 102.898C279.052 102.769 277.833 103.779 277.704 105.154L280.193 105.387L282.682 105.621ZM278.542 95.112C278.441 96.489 279.476 97.6872 280.853 97.7881C282.23 97.8891 283.428 96.8547 283.529 95.4777L281.036 95.2948L278.542 95.112ZM284.068 85.3476C284.083 83.967 282.975 82.836 281.595 82.8215C280.214 82.8069 279.083 83.9144 279.069 85.295L281.569 85.3213L284.068 85.3476ZM278.626 76.2051C278.781 77.577 280.02 78.563 281.392 78.4073C282.763 78.2517 283.749 77.0133 283.594 75.6414L281.11 75.9232L278.626 76.2051ZM281.749 65.9743C281.381 64.6435 280.003 63.8633 278.673 64.2315C277.342 64.5997 276.562 65.977 276.93 67.3077L279.339 66.641L281.749 65.9743ZM273.747 58.9411C274.364 60.1762 275.866 60.677 277.101 60.0598C278.336 59.4425 278.837 57.9409 278.219 56.7059L275.983 57.8235L273.747 58.9411ZM272.797 48.3112C271.921 47.2437 270.346 47.0882 269.278 47.9638C268.211 48.8395 268.055 50.4147 268.931 51.4823L270.864 49.8967L272.797 48.3112ZM262.565 45.3406C263.662 46.1783 265.231 45.9676 266.069 44.8701C266.906 43.7725 266.696 42.2037 265.598 41.366L264.081 43.3533L262.565 45.3406ZM257.05 36.2207C255.798 35.6379 254.311 36.1802 253.729 37.4319C253.146 38.6836 253.688 40.1707 254.94 40.7535L255.995 38.4871L257.05 36.2207ZM246.475 37.7657C247.813 38.1048 249.173 37.2948 249.512 35.9563C249.852 34.6179 249.042 33.258 247.703 32.9189L247.089 35.3423L246.475 37.7657ZM237.994 31.2889C236.619 31.1669 235.405 32.1829 235.283 33.5582C235.161 34.9335 236.177 36.1473 237.552 36.2693L237.773 33.7791L237.994 31.2889ZM228.448 36.1103C229.827 36.0404 230.888 34.8658 230.818 33.4869C230.748 32.1079 229.573 31.0468 228.194 31.1168L228.321 33.6136L228.448 36.1103ZM218.486 32.2367C217.127 32.4808 216.223 33.7804 216.467 35.1393C216.711 36.4983 218.011 37.4021 219.37 37.158L218.928 34.6973L218.486 32.2367ZM210.486 39.3261C211.804 38.9166 212.541 37.5157 212.132 36.1971C211.722 34.8785 210.321 34.1416 209.003 34.5511L209.744 36.9386L210.486 39.3261ZM199.864 38.0414C198.609 38.6174 198.058 40.1015 198.634 41.3564C199.21 42.6112 200.694 43.1616 201.949 42.5857L200.906 40.3136L199.864 38.0414ZM193.978 46.9552C195.136 46.2021 195.463 44.6534 194.71 43.4962C193.957 42.339 192.408 42.0114 191.251 42.7645L192.615 44.8599L193.978 46.9552ZM183.454 48.8675C182.451 49.8174 182.409 51.3997 183.359 52.4018C184.309 53.4039 185.891 53.4462 186.893 52.4964L185.173 50.682L183.454 48.8675ZM181.221 59.2629C181.966 58.1002 181.627 56.554 180.464 55.8094C179.301 55.0649 177.755 55.4039 177.011 56.5667L179.116 57.9148L181.221 59.2629ZM172.909 65.926C172.575 67.2658 173.391 68.6222 174.731 68.9555C176.071 69.2889 177.427 68.4729 177.761 67.133L175.335 66.5295L172.909 65.926ZM177.28 75.5955C177.101 74.2265 175.845 73.2623 174.477 73.4418C173.108 73.6213 172.143 74.8765 172.323 76.2455L174.802 75.9205L177.28 75.5955ZM175.319 86.2192C175.891 87.4759 177.374 88.0309 178.63 87.459C179.887 86.887 180.442 85.4046 179.87 84.1479L177.595 85.1836L175.319 86.2192ZM184.816 91.8439C183.899 90.8119 182.319 90.719 181.287 91.6363C180.255 92.5536 180.162 94.1337 181.079 95.1657L182.948 93.5048L184.816 91.8439ZM189.416 101.867C190.621 102.54 192.144 102.109 192.818 100.903C193.491 99.6977 193.059 98.1747 191.854 97.5015L190.635 99.6842L189.416 101.867ZM200.41 100.623C199.057 100.35 197.738 101.226 197.465 102.579C197.192 103.933 198.068 105.251 199.422 105.524L199.916 103.074L200.41 100.623ZM209.933 106.218C211.312 106.136 212.363 104.953 212.281 103.575C212.2 102.196 211.016 101.145 209.638 101.227L209.786 103.722L209.933 106.218ZM218.872 99.6415C217.543 100.016 216.77 101.398 217.145 102.726C217.519 104.055 218.901 104.829 220.229 104.454L219.551 102.048L218.872 99.6415ZM229.902 100.679C231.135 100.058 231.631 98.555 231.01 97.3219C230.389 96.0887 228.886 95.5925 227.653 96.2136L228.777 98.4464L229.902 100.679ZM235.671 91.2081C234.571 92.0427 234.356 93.6109 235.191 94.7108C236.025 95.8108 237.593 96.026 238.693 95.1915L237.182 93.1998L235.671 91.2081ZM246.347 88.1953C247.276 87.1738 247.201 85.5927 246.179 84.6638C245.158 83.7348 243.577 83.8099 242.648 84.8315L244.497 86.5134L246.347 88.1953ZM248.305 77.2864C247.586 78.4654 247.959 80.0037 249.138 80.7223C250.317 81.4409 251.856 81.0678 252.574 79.8888L250.44 78.5876L248.305 77.2864ZM257.088 70.529C257.562 69.2322 256.895 67.7966 255.598 67.3225C254.301 66.8483 252.866 67.5151 252.392 68.8119L254.74 69.6704L257.088 70.529ZM254.736 59.7001C254.524 61.0644 255.459 62.3422 256.823 62.554C258.187 62.7658 259.465 61.8314 259.677 60.4671L257.206 60.0836L254.736 59.7001ZM260.296 50.1196C260.252 48.7396 259.097 47.6567 257.717 47.7008C256.337 47.7449 255.254 48.8994 255.299 50.2795L257.797 50.1995L260.296 50.1196ZM254.187 40.8448C254.459 42.1983 255.778 43.0745 257.131 42.8019C258.485 42.5293 259.361 41.2111 259.088 39.8575L256.637 40.3511L254.187 40.8448ZM256.08 29.8877C255.515 28.628 254.036 28.0651 252.776 28.6303C251.516 29.1956 250.953 30.675 251.519 31.9347L253.799 30.9112L256.08 29.8877ZM246.695 24.2082C247.569 25.2771 249.144 25.4352 250.213 24.5613C251.282 23.6874 251.44 22.1124 250.566 21.0435L248.63 22.6258L246.695 24.2082ZM243.197 13.8257C242.117 12.9661 240.544 13.1451 239.685 14.2256C238.825 15.306 239.004 16.8788 240.084 17.7384L241.641 15.7821L243.197 13.8257ZM232.28 12.6016C233.493 13.2605 235.011 12.811 235.67 11.5976C236.329 10.3842 235.879 8.86647 234.666 8.20762L233.473 10.4046L232.28 12.6016ZM225.381 4.05926C224.082 3.59183 222.65 4.2661 222.182 5.56528C221.715 6.86446 222.389 8.29659 223.688 8.76402L224.535 6.41164L225.381 4.05926ZM214.608 6.2161C215.96 6.49339 217.282 5.6217 217.559 4.26912C217.836 2.91654 216.965 1.59526 215.612 1.31797L215.11 3.76703L214.608 6.2161ZM205.542 0.00410532C204.164 -0.0728908 202.984 0.982239 202.907 2.3608C202.83 3.73937 203.885 4.91933 205.263 4.99632L205.403 2.50022L205.542 0.00410532ZM195.886 5.21458C197.259 5.06822 198.253 3.83658 198.107 2.46365C197.96 1.09072 196.729 0.09639 195.356 0.242755L195.621 2.72867L195.886 5.21458ZM185.296 2.27209C183.976 2.67713 183.234 4.07552 183.639 5.39549C184.044 6.71545 185.443 7.45715 186.763 7.05212L186.029 4.6621L185.296 2.27209ZM178.337 10.7183C179.527 10.0188 179.925 8.48677 179.226 7.29634C178.527 6.10591 176.995 5.7079 175.804 6.40736L177.071 8.56282L178.337 10.7183ZM167.589 12.864C166.633 13.8602 166.665 15.4427 167.661 16.3988C168.657 17.3549 170.24 17.3225 171.196 16.3263L169.392 14.5952L167.589 12.864ZM165.931 23.6811C166.568 22.4566 166.093 20.9468 164.868 20.309C163.644 19.6711 162.134 20.1468 161.496 21.3713L163.713 22.5262L165.931 23.6811ZM14.9572 340.12L15.3644 342.587C18.679 342.04 22.0087 341.498 25.3515 340.956L24.9514 338.488L24.5513 336.02C21.2067 336.562 17.8716 337.105 14.5501 337.654L14.9572 340.12ZM34.9476 336.868L35.3483 339.336C38.6719 338.796 42.0049 338.252 45.3437 337.699L44.935 335.232L44.5262 332.766C41.195 333.318 37.8678 333.861 34.5469 334.401L34.9476 336.868ZM54.9148 333.55L55.3387 336.013C58.667 335.441 61.9985 334.855 65.3299 334.25L64.8837 331.79L64.4375 329.331C61.1233 329.932 57.8069 330.515 54.4909 331.086L54.9148 333.55ZM74.8343 329.926L75.3099 332.381C78.6341 331.737 81.9555 331.07 85.2708 330.376L84.7586 327.929L84.2464 325.482C80.9578 326.17 77.661 326.832 74.3587 327.472L74.8343 329.926ZM94.6475 325.769L95.2035 328.206C98.5115 327.452 101.811 326.665 105.098 325.842L104.491 323.417L103.883 320.992C100.633 321.806 97.3678 322.584 94.0914 323.331L94.6475 325.769ZM114.281 320.841L114.947 323.251C118.225 322.345 121.489 321.397 124.734 320.403L124.002 318.013L123.269 315.623C120.071 316.602 116.852 317.537 113.615 318.432L114.281 320.841ZM133.634 314.901L134.44 317.267C137.664 316.169 140.867 315.019 144.045 313.813L143.158 311.475L142.271 309.138C139.149 310.323 136 311.454 132.828 312.534L133.634 314.901ZM152.55 307.707L153.526 310.008C156.665 308.678 159.775 307.285 162.855 305.826L161.784 303.567L160.714 301.308C157.699 302.736 154.652 304.1 151.574 305.405L152.55 307.707ZM170.831 299.03L172.003 301.239C175.016 299.641 177.994 297.971 180.934 296.225L179.657 294.075L178.381 291.926C175.512 293.63 172.604 295.26 169.66 296.821L170.831 299.03ZM188.222 288.69L189.607 290.772C192.442 288.885 195.236 286.92 197.986 284.869L196.491 282.865L194.997 280.861C192.32 282.856 189.6 284.771 186.837 286.609L188.222 288.69ZM204.43 276.597L206.033 278.515C208.641 276.336 211.203 274.071 213.716 271.716L212.007 269.892L210.298 268.068C207.854 270.357 205.363 272.559 202.827 274.679L204.43 276.597ZM219.197 262.76L221.007 264.483C223.348 262.024 225.64 259.477 227.881 256.837L225.975 255.219L224.069 253.602C221.89 256.168 219.662 258.645 217.386 261.036L219.197 262.76ZM232.289 247.346L234.282 248.855C236.317 246.168 238.302 243.395 240.236 240.531L238.165 239.132L236.093 237.733C234.209 240.522 232.276 243.222 230.296 245.837L232.289 247.346ZM243.607 230.598L245.749 231.887C247.493 228.99 249.187 226.009 250.832 222.941L248.628 221.76L246.424 220.579C244.819 223.575 243.165 226.484 241.465 229.309L243.607 230.598ZM253.177 212.764L255.433 213.841C256.875 210.818 258.27 207.718 259.618 204.536L257.317 203.561L255.015 202.586C253.695 205.7 252.33 208.733 250.92 211.688L253.177 212.764ZM261.086 194.118L263.426 194.997C264.601 191.867 265.733 188.665 266.821 185.387L264.449 184.6L262.076 183.812C261.008 187.029 259.897 190.171 258.745 193.24L261.086 194.118ZM267.452 174.97L269.852 175.672C270.801 172.427 271.709 169.114 272.576 165.731L270.154 165.11L267.732 164.49C266.879 167.82 265.986 171.079 265.053 174.268L267.452 174.97ZM272.486 155.376L274.926 155.921C275.659 152.642 276.354 149.3 277.012 145.894L274.557 145.42L272.102 144.946C271.454 148.305 270.768 151.599 270.046 154.83L272.486 155.376ZM276.334 135.493L278.801 135.901C279.346 132.6 279.858 129.243 280.335 125.828L277.859 125.482L275.383 125.136C274.912 128.511 274.406 131.827 273.868 135.085L276.334 135.493ZM279.14 115.439L281.624 115.727C282.008 112.411 282.361 109.043 282.682 105.621L280.193 105.387L277.704 105.154C277.386 108.54 277.037 111.872 276.657 115.152L279.14 115.439ZM281.036 95.2948L283.529 95.4777C283.655 93.7616 283.773 92.0328 283.883 90.2911L281.388 90.1329L278.893 89.9748C278.784 91.7002 278.667 93.4126 278.542 95.112L281.036 95.2948ZM281.388 90.1329L283.883 90.2911C283.99 88.6039 284.051 86.9563 284.068 85.3476L281.569 85.3213L279.069 85.295C279.053 86.8128 278.995 88.3725 278.893 89.9748L281.388 90.1329ZM281.11 75.9232L283.594 75.6414C283.204 72.2085 282.583 68.9881 281.749 65.9743L279.339 66.641L276.93 67.3077C277.69 70.0542 278.264 73.0162 278.626 76.2051L281.11 75.9232ZM275.983 57.8235L278.219 56.7059C276.672 53.6093 274.851 50.815 272.797 48.3112L270.864 49.8967L268.931 51.4823C270.745 53.6943 272.364 56.1741 273.747 58.9411L275.983 57.8235ZM264.081 43.3533L265.598 41.366C262.932 39.3312 260.064 37.6238 257.05 36.2207L255.995 38.4871L254.94 40.7535C257.646 42.0136 260.202 43.5376 262.565 45.3406L264.081 43.3533ZM247.089 35.3423L247.703 32.9189C244.538 32.1168 241.285 31.5807 237.994 31.2889L237.773 33.7791L237.552 36.2693C240.597 36.5393 243.585 37.0335 246.475 37.7657L247.089 35.3423ZM228.321 33.6136L228.194 31.1168C224.941 31.2819 221.69 31.6612 218.486 32.2367L218.928 34.6973L219.37 37.158C222.372 36.6187 225.412 36.2644 228.448 36.1103L228.321 33.6136ZM209.744 36.9386L209.003 34.5511C205.851 35.53 202.788 36.6992 199.864 38.0414L200.906 40.3136L201.949 42.5857C204.673 41.3358 207.533 40.243 210.486 39.3261L209.744 36.9386ZM192.615 44.8599L191.251 42.7645C188.412 44.612 185.79 46.6529 183.454 48.8675L185.173 50.682L186.893 52.4964C188.989 50.51 191.368 48.6538 193.978 46.9552L192.615 44.8599ZM179.116 57.9148L177.011 56.5667C175.139 59.4903 173.73 62.6225 172.909 65.926L175.335 66.5295L177.761 67.133C178.437 64.4135 179.61 61.7795 181.221 59.2629L179.116 57.9148ZM174.802 75.9205L172.323 76.2455C172.541 77.9122 172.912 79.5937 173.441 81.2854L175.827 80.5389L178.213 79.7923C177.767 78.3683 177.46 76.9687 177.28 75.5955L174.802 75.9205ZM175.827 80.5389L173.441 81.2854C173.984 83.021 174.612 84.6654 175.319 86.2192L177.595 85.1836L179.87 84.1479C179.252 82.7892 178.697 81.3384 178.213 79.7923L175.827 80.5389ZM182.948 93.5048L181.079 95.1657C183.535 97.9284 186.349 100.154 189.416 101.867L190.635 99.6842L191.854 97.5015C189.265 96.0559 186.893 94.1803 184.816 91.8439L182.948 93.5048ZM199.916 103.074L199.422 105.524C202.829 106.211 206.365 106.429 209.933 106.218L209.786 103.722L209.638 101.227C206.465 101.415 203.362 101.218 200.41 100.623L199.916 103.074ZM219.551 102.048L220.229 104.454C223.515 103.527 226.762 102.26 229.902 100.679L228.777 98.4464L227.653 96.2136C224.792 97.6547 221.842 98.8034 218.872 99.6415L219.551 102.048ZM237.182 93.1998L238.693 95.1915C241.421 93.1221 243.993 90.7839 246.347 88.1953L244.497 86.5134L242.648 84.8315C240.505 87.1879 238.161 89.3195 235.671 91.2081L237.182 93.1998ZM250.44 78.5876L252.574 79.8888C254.351 76.9738 255.874 73.8482 257.088 70.529L254.74 69.6704L252.392 68.8119C251.294 71.8144 249.916 74.6441 248.305 77.2864L250.44 78.5876ZM257.206 60.0836L259.677 60.4671C260.192 57.1514 260.41 53.6977 260.296 50.1196L257.797 50.1995L255.299 50.2795C255.403 53.5499 255.203 56.6933 254.736 59.7001L257.206 60.0836ZM256.637 40.3511L259.088 39.8575C258.755 38.2037 258.352 36.5295 257.877 34.8362L255.47 35.5117L253.063 36.1873C253.505 37.7627 253.879 39.3154 254.187 40.8448L256.637 40.3511ZM255.47 35.5117L257.877 34.8362C257.4 33.1347 256.797 31.4842 256.08 29.8877L253.799 30.9112L251.519 31.9347C252.137 33.3123 252.654 34.7305 253.063 36.1873L255.47 35.5117ZM248.63 22.6258L250.566 21.0435C248.413 18.4105 245.93 15.9995 243.197 13.8257L241.641 15.7821L240.084 17.7384C242.564 19.7111 244.787 21.8752 246.695 24.2082L248.63 22.6258ZM233.473 10.4046L234.666 8.20762C231.712 6.60369 228.597 5.2162 225.381 4.05926L224.535 6.41164L223.688 8.76402C226.675 9.8386 229.558 11.1235 232.28 12.6016L233.473 10.4046ZM215.11 3.76703L215.612 1.31797C212.284 0.635601 208.908 0.192064 205.542 0.00410532L205.403 2.50022L205.263 4.99632C208.379 5.17031 211.512 5.58145 214.608 6.2161L215.11 3.76703ZM195.621 2.72867L195.356 0.242755C191.911 0.610006 188.534 1.27849 185.296 2.27209L186.029 4.6621L186.763 7.05212C189.671 6.15958 192.733 5.55074 195.886 5.21458L195.621 2.72867ZM177.071 8.56282L175.804 6.40736C172.803 8.17071 170.035 10.3149 167.589 12.864L169.392 14.5952L171.196 16.3263C173.306 14.1282 175.706 12.2639 178.337 10.7183L177.071 8.56282ZM163.713 22.5262L161.496 21.3713C160.706 22.8875 160.003 24.4862 159.392 26.1682L161.742 27.0212L164.092 27.8742C164.629 26.3954 165.244 24.9986 165.931 23.6811L163.713 22.5262Z" fill="black"/>
</svg>
