<svg width="174" height="385" viewBox="0 0 174 385" fill="none" xmlns="http://www.w3.org/2000/svg">
<path d="M25.2443 0.198845C23.9729 -0.339509 22.5058 0.254768 21.9674 1.5262C21.429 2.79763 22.0233 4.26475 23.2948 4.80311L24.2695 2.50098L25.2443 0.198845ZM144.861 82.8424L147.268 82.1669L144.861 82.8424ZM170.779 137.464L173.276 137.348L170.779 137.464ZM-0.000461625 374.944L27.2551 384.456L21.8644 356.096L-0.000461625 374.944ZM28.1981 6.87493C29.4703 7.41155 30.9366 6.81527 31.4732 5.54311C32.0098 4.27094 31.4136 2.80463 30.1414 2.26801L29.1698 4.57147L28.1981 6.87493ZM39.9464 6.4008C38.6743 5.86406 37.2079 6.46021 36.6712 7.73232C36.1344 9.00444 36.7306 10.4708 38.0027 11.0075L38.9745 8.70417L39.9464 6.4008ZM47.7903 15.1563C49.0603 15.6981 50.529 15.1079 51.0708 13.8379C51.6127 12.5679 51.0224 11.0992 49.7524 10.5574L48.7714 12.8569L47.7903 15.1563ZM59.5427 14.7775C58.2773 14.2253 56.8037 14.8035 56.2515 16.069C55.6993 17.3345 56.2775 18.808 57.543 19.3602L58.5429 17.0689L59.5427 14.7775ZM67.2396 23.6617C68.4978 24.2303 69.9788 23.6713 70.5474 22.4131C71.116 21.1549 70.5569 19.674 69.2987 19.1054L68.2692 21.3836L67.2396 23.6617ZM78.9978 23.5916C77.7504 22.9997 76.2594 23.5311 75.6675 24.7785C75.0756 26.0259 75.607 27.517 76.8544 28.1089L77.9261 25.8503L78.9978 23.5916ZM86.3529 32.7575C87.5848 33.3809 89.0889 32.8877 89.7124 31.6557C90.3358 30.4238 89.8426 28.9197 88.6107 28.2962L87.4818 30.5268L86.3529 32.7575ZM98.0963 33.2923C96.8864 32.6271 95.3663 33.0687 94.7011 34.2786C94.0359 35.4885 94.4774 37.0086 95.6873 37.6738L96.8918 35.4831L98.0963 33.2923ZM104.796 42.9431C105.974 43.663 107.513 43.2914 108.233 42.1132C108.953 40.935 108.581 39.3963 107.403 38.6764L106.1 40.8098L104.796 42.9431ZM116.45 44.5745C115.318 43.7835 113.76 44.0596 112.969 45.1912C112.178 46.3229 112.454 47.8815 113.585 48.6726L115.018 46.6235L116.45 44.5745ZM121.88 54.9739C122.941 55.8568 124.518 55.712 125.401 54.6505C126.283 53.589 126.139 52.0127 125.077 51.1298L123.478 53.0518L121.88 54.9739ZM133.086 58.5695C132.134 57.5701 130.551 57.5321 129.552 58.4847C128.552 59.4373 128.514 61.0197 129.467 62.0192L131.276 60.2944L133.086 58.5695ZM135.948 69.9334C136.731 71.0709 138.287 71.3587 139.425 70.5762C140.563 69.7937 140.85 68.2371 140.068 67.0996L138.008 68.5165L135.948 69.9334ZM145.426 76.8631C144.897 75.5879 143.434 74.9835 142.159 75.5129C140.883 76.0424 140.279 77.5054 140.808 78.7805L143.117 77.8218L145.426 76.8631ZM143.577 88.1755C143.85 89.529 145.168 90.4053 146.521 90.1326C147.875 89.86 148.751 88.5418 148.479 87.1883L146.028 87.6819L143.577 88.1755ZM149.686 97.4503C149.642 96.0703 148.488 94.9874 147.108 95.0315C145.728 95.0757 144.645 96.2302 144.689 97.6102L147.188 97.5303L149.686 97.4503ZM144.126 107.031C143.915 108.395 144.849 109.673 146.213 109.885C147.578 110.097 148.855 109.162 149.067 107.798L146.597 107.414L144.126 107.031ZM146.478 117.86C146.952 116.563 146.285 115.127 144.989 114.653C143.692 114.179 142.256 114.846 141.782 116.143L144.13 117.001L146.478 117.86ZM137.695 124.617C136.977 125.796 137.35 127.334 138.529 128.053C139.708 128.772 141.246 128.398 141.965 127.22L139.83 125.918L137.695 124.617ZM135.738 135.526C136.666 134.505 136.591 132.923 135.57 131.994C134.548 131.066 132.967 131.141 132.038 132.162L133.888 133.844L135.738 135.526ZM125.062 138.539C123.962 139.373 123.746 140.942 124.581 142.042C125.416 143.142 126.984 143.357 128.084 142.522L126.573 140.531L125.062 138.539ZM119.292 148.01C120.526 147.389 121.022 145.886 120.401 144.653C119.78 143.419 118.276 142.923 117.043 143.544L118.168 145.777L119.292 148.01ZM108.262 146.972C106.933 147.347 106.16 148.728 106.535 150.057C106.91 151.386 108.291 152.159 109.62 151.784L108.941 149.378L108.262 146.972ZM99.3238 153.549C100.702 153.467 101.753 152.284 101.672 150.905C101.59 149.527 100.406 148.476 99.0281 148.557L99.176 151.053L99.3238 153.549ZM89.8005 147.954C88.447 147.681 87.1285 148.557 86.8556 149.91C86.5827 151.264 87.4587 152.582 88.8121 152.855L89.3063 150.404L89.8005 147.954ZM78.8063 149.198C80.0118 149.871 81.5347 149.439 82.2079 148.234C82.8811 147.028 82.4496 145.505 81.2442 144.832L80.0252 147.015L78.8063 149.198ZM74.2068 139.175C73.2895 138.143 71.7093 138.05 70.6773 138.967C69.6454 139.884 69.5524 141.464 70.4697 142.496L72.3382 140.836L74.2068 139.175ZM64.7096 133.55C65.2816 134.807 66.764 135.362 68.0207 134.79C69.2774 134.218 69.8324 132.735 69.2604 131.479L66.985 132.514L64.7096 133.55ZM66.5718 122.413C66.4011 121.043 65.152 120.07 63.7819 120.241C62.4118 120.412 61.4394 121.661 61.6101 123.031L64.0909 122.722L66.5718 122.413ZM62.4168 111.641C62.0542 112.973 62.8403 114.347 64.1726 114.71C65.5048 115.073 66.8787 114.286 67.2413 112.954L64.8291 112.298L62.4168 111.641ZM71.3739 104.267C72.1613 103.133 71.8801 101.575 70.7459 100.788C69.6117 100 68.0539 100.281 67.2666 101.416L69.3203 102.841L71.3739 104.267ZM74.7755 93.2085C73.7261 94.1058 73.6029 95.6839 74.5002 96.7333C75.3976 97.7826 76.9757 97.9058 78.025 97.0085L76.4003 95.1085L74.7755 93.2085ZM86.2637 91.313C87.4687 90.6391 87.8993 89.1159 87.2254 87.9108C86.5514 86.7057 85.0282 86.2751 83.8231 86.9491L85.0434 89.131L86.2637 91.313ZM93.7799 82.441C92.4799 82.9062 91.8031 84.3372 92.2683 85.6372C92.7335 86.9372 94.1644 87.6139 95.4644 87.1487L94.6221 84.7949L93.7799 82.441ZM105.237 84.4851C106.593 84.2253 107.481 82.9153 107.221 81.5593C106.961 80.2032 105.652 79.3146 104.295 79.5745L104.766 82.0298L105.237 84.4851ZM115.129 78.3568C113.749 78.4027 112.668 79.5586 112.714 80.9386C112.76 82.3185 113.916 83.3999 115.296 83.354L115.213 80.8554L115.129 78.3568ZM125.372 83.8534C126.74 84.0397 128 83.0817 128.187 81.7136C128.373 80.3455 127.415 79.0854 126.047 78.8991L125.71 81.3762L125.372 83.8534ZM136.741 81.3824C135.432 80.9419 134.014 81.6456 133.574 82.9541C133.133 84.2627 133.837 85.6806 135.146 86.1211L135.943 83.7518L136.741 81.3824ZM144.213 90.2692C145.399 90.9756 146.933 90.5865 147.64 89.4002C148.346 88.2139 147.957 86.6795 146.771 85.9731L145.492 88.1211L144.213 90.2692ZM155.576 92.6636C154.579 91.7092 152.996 91.7442 152.042 92.7419C151.087 93.7395 151.122 95.3221 152.12 96.2765L153.848 94.4701L155.576 92.6636ZM158.49 103.901C159.255 105.05 160.807 105.362 161.956 104.597C163.106 103.831 163.417 102.279 162.652 101.13L160.571 102.516L158.49 103.901ZM167.791 110.824C167.263 109.549 165.801 108.943 164.525 109.471C163.249 109.999 162.644 111.462 163.172 112.737L165.482 111.781L167.791 110.824ZM166.253 122.404C166.568 123.749 167.913 124.583 169.258 124.267C170.602 123.952 171.436 122.607 171.121 121.263L168.687 121.834L166.253 122.404ZM172.875 131.892C172.736 130.519 171.509 129.519 170.135 129.659C168.761 129.798 167.761 131.025 167.901 132.399L170.388 132.146L172.875 131.892ZM168.433 142.421C168.456 143.801 169.595 144.902 170.975 144.878C172.356 144.855 173.456 143.717 173.432 142.336L170.933 142.379L168.433 142.421ZM173.329 152.392C173.379 151.012 172.301 149.853 170.922 149.803C169.542 149.753 168.383 150.831 168.333 152.21L170.831 152.301L173.329 152.392ZM167.742 161.98C167.627 163.356 168.649 164.565 170.025 164.68C171.401 164.796 172.61 163.774 172.725 162.398L170.234 162.189L167.742 161.98ZM171.673 172.342C171.847 170.972 170.878 169.72 169.509 169.546C168.139 169.371 166.887 170.34 166.713 171.71L169.193 172.026L171.673 172.342ZM165.278 181.404C165.049 182.765 165.967 184.055 167.328 184.284C168.69 184.513 169.979 183.595 170.209 182.234L167.743 181.819L165.278 181.404ZM168.36 192.06C168.641 190.708 167.773 189.384 166.421 189.104C165.069 188.823 163.745 189.691 163.465 191.043L165.912 191.551L168.36 192.06ZM161.293 200.613C160.963 201.954 161.782 203.308 163.123 203.638C164.464 203.968 165.818 203.149 166.148 201.808L163.72 201.211L161.293 200.613ZM163.587 211.469C163.964 210.14 163.194 208.758 161.865 208.381C160.537 208.003 159.155 208.774 158.777 210.102L161.182 210.785L163.587 211.469ZM155.93 219.498C155.506 220.813 156.229 222.221 157.543 222.645C158.857 223.068 160.266 222.346 160.689 221.032L158.309 220.265L155.93 219.498ZM157.461 230.487C157.929 229.189 157.256 227.756 155.958 227.287C154.659 226.819 153.226 227.492 152.758 228.79L155.109 229.639L157.461 230.487ZM149.266 237.967C148.752 239.248 149.375 240.704 150.657 241.217C151.939 241.73 153.394 241.107 153.907 239.826L151.587 238.896L149.266 237.967ZM150.031 249.035C150.589 247.772 150.017 246.296 148.754 245.738C147.491 245.181 146.015 245.752 145.458 247.015L147.744 248.025L150.031 249.035ZM141.334 255.923C140.732 257.166 141.251 258.661 142.493 259.263C143.736 259.865 145.231 259.346 145.834 258.104L143.584 257.013L141.334 255.923ZM141.313 267.018C141.96 265.798 141.495 264.285 140.275 263.638C139.055 262.991 137.542 263.456 136.896 264.676L139.104 265.847L141.313 267.018ZM132.141 273.258C131.449 274.453 131.858 275.983 133.053 276.674C134.248 277.366 135.777 276.957 136.469 275.762L134.305 274.51L132.141 273.258ZM131.297 284.321C132.034 283.153 131.684 281.609 130.516 280.873C129.349 280.136 127.805 280.486 127.068 281.653L129.183 282.987L131.297 284.321ZM121.676 289.842C120.893 290.98 121.182 292.537 122.32 293.319C123.458 294.101 125.014 293.812 125.796 292.675L123.736 291.259L121.676 289.842ZM119.962 300.804C120.79 299.699 120.565 298.132 119.461 297.304C118.356 296.476 116.789 296.7 115.961 297.805L117.961 299.305L119.962 300.804ZM109.922 305.52C109.048 306.589 109.206 308.164 110.275 309.038C111.344 309.912 112.919 309.754 113.793 308.686L111.857 307.103L109.922 305.52ZM107.286 316.296C108.206 315.267 108.118 313.687 107.088 312.766C106.059 311.846 104.479 311.934 103.558 312.964L105.422 314.63L107.286 316.296ZM96.8695 320.11C95.903 321.096 95.9188 322.679 96.9048 323.645C97.8908 324.612 99.4736 324.596 100.44 323.61L98.6548 321.86L96.8695 320.11ZM93.2575 330.598C94.2699 329.66 94.3295 328.078 93.3906 327.065C92.4517 326.053 90.8699 325.993 89.8576 326.932L91.5575 328.765L93.2575 330.598ZM82.5263 333.404C81.4688 334.291 81.3311 335.868 82.2188 336.926C83.1065 337.983 84.6834 338.121 85.7409 337.233L84.1336 335.318L82.5263 333.404ZM77.8967 343.484C78.9983 342.652 79.2165 341.084 78.384 339.982C77.5516 338.881 75.9838 338.663 74.8823 339.495L76.3895 341.49L77.8967 343.484ZM66.9349 345.179C65.7909 345.952 65.4902 347.506 66.2633 348.65C67.0364 349.794 68.5905 350.095 69.7345 349.322L68.3347 347.25L66.9349 345.179ZM61.2678 354.716C62.452 354.006 62.8366 352.47 62.1267 351.286C61.4168 350.102 59.8813 349.717 58.697 350.427L59.9824 352.572L61.2678 354.716ZM50.185 355.215C48.9632 355.858 48.4941 357.37 49.1373 358.592C49.7804 359.813 51.2922 360.283 52.514 359.639L51.3495 357.427L50.185 355.215ZM43.4987 364.066C44.7548 363.492 45.3083 362.009 44.735 360.753C44.1617 359.497 42.6788 358.944 41.4227 359.517L42.4607 361.791L43.4987 364.066ZM32.4363 363.314C31.1497 363.815 30.5128 365.264 31.0137 366.551C31.5147 367.837 32.9638 368.474 34.2505 367.973L33.3434 365.644L32.4363 363.314ZM24.7961 371.348C26.1092 370.921 26.8276 369.51 26.4006 368.197C25.9737 366.884 24.5632 366.166 23.2502 366.593L24.0231 368.97L24.7961 371.348ZM13.8929 369.344C12.5577 369.696 11.7606 371.063 12.1125 372.398C12.4644 373.734 13.8319 374.531 15.1671 374.179L14.53 371.761L13.8929 369.344ZM5.39531 376.463C6.74801 376.186 7.62032 374.866 7.34364 373.513C7.06698 372.16 5.7461 371.288 4.39339 371.565L4.89436 374.014L5.39531 376.463ZM24.2695 2.50098L23.2948 4.80311C24.9303 5.49562 26.5652 6.18611 28.1981 6.87493L29.1698 4.57147L30.1414 2.26801C28.5097 1.57975 26.8771 0.890191 25.2443 0.198845L24.2695 2.50098ZM38.9745 8.70417L38.0027 11.0075C41.2856 12.3927 44.5509 13.7743 47.7903 15.1563L48.7714 12.8569L49.7524 10.5574C46.5042 9.17159 43.232 7.78707 39.9464 6.4008L38.9745 8.70417ZM58.5429 17.0689L57.543 19.3602C60.8173 20.7891 64.0528 22.2216 67.2396 23.6617L68.2692 21.3836L69.2987 19.1054C66.0887 17.6547 62.833 16.2133 59.5427 14.7775L58.5429 17.0689ZM77.9261 25.8503L76.8544 28.1089C80.0911 29.6447 83.2611 31.1927 86.3529 32.7575L87.4818 30.5268L88.6107 28.2962C85.4761 26.7099 82.2676 25.1431 78.9978 23.5916L77.9261 25.8503ZM96.8918 35.4831L95.6873 37.6738C98.8359 39.4049 101.877 41.1595 104.796 42.9431L106.1 40.8098L107.403 38.6764C104.411 36.8483 101.303 35.0555 98.0963 33.2923L96.8918 35.4831ZM115.018 46.6235L113.585 48.6726C116.53 50.7308 119.301 52.8289 121.88 54.9739L123.478 53.0518L125.077 51.1298C122.378 48.8846 119.494 46.7023 116.45 44.5745L115.018 46.6235ZM131.276 60.2944L129.467 62.0192C131.917 64.5896 134.085 67.2244 135.948 69.9334L138.008 68.5165L140.068 67.0996C138.036 64.1466 135.696 61.3076 133.086 58.5695L131.276 60.2944ZM143.117 77.8218L140.808 78.7805C141.453 80.3328 142.003 81.9112 142.454 83.518L144.861 82.8424L147.268 82.1669C146.761 80.3622 146.145 78.5948 145.426 76.8631L143.117 77.8218ZM144.861 82.8424L142.454 83.518C142.896 85.0934 143.269 86.6462 143.577 88.1755L146.028 87.6819L148.479 87.1883C148.146 85.5344 147.743 83.8603 147.268 82.1669L144.861 82.8424ZM147.188 97.5303L144.689 97.6102C144.794 100.881 144.593 104.024 144.126 107.031L146.597 107.414L149.067 107.798C149.582 104.482 149.801 101.028 149.686 97.4503L147.188 97.5303ZM144.13 117.001L141.782 116.143C140.684 119.145 139.306 121.975 137.695 124.617L139.83 125.918L141.965 127.22C143.742 124.305 145.264 121.179 146.478 117.86L144.13 117.001ZM133.888 133.844L132.038 132.162C129.895 134.519 127.551 136.65 125.062 138.539L126.573 140.531L128.084 142.522C130.811 140.453 133.384 138.115 135.738 135.526L133.888 133.844ZM118.168 145.777L117.043 143.544C114.182 144.985 111.232 146.134 108.262 146.972L108.941 149.378L109.62 151.784C112.905 150.857 116.153 149.591 119.292 148.01L118.168 145.777ZM99.176 151.053L99.0281 148.557C95.8554 148.745 92.7528 148.549 89.8005 147.954L89.3063 150.404L88.8121 152.855C92.2196 153.542 95.7557 153.76 99.3238 153.549L99.176 151.053ZM80.0252 147.015L81.2442 144.832C78.6556 143.387 76.2836 141.511 74.2068 139.175L72.3382 140.836L70.4697 142.496C72.9255 145.259 75.739 147.485 78.8063 149.198L80.0252 147.015ZM66.985 132.514L69.2604 131.479C68.642 130.12 68.087 128.669 67.6032 127.123L65.2173 127.87L62.8314 128.616C63.3745 130.352 64.0024 131.996 64.7096 133.55L66.985 132.514ZM65.2173 127.87L67.6032 127.123C67.1026 125.523 66.7635 123.952 66.5718 122.413L64.0909 122.722L61.6101 123.031C61.8398 124.875 62.2439 126.739 62.8314 128.616L65.2173 127.87ZM64.8291 112.298L67.2413 112.954C68.0672 109.92 69.471 107.008 71.3739 104.267L69.3203 102.841L67.2666 101.416C65.0747 104.573 63.4081 107.999 62.4168 111.641L64.8291 112.298ZM76.4003 95.1085L78.025 97.0085C80.4784 94.9105 83.2487 92.9991 86.2637 91.313L85.0434 89.131L83.8231 86.9491C80.5448 88.7825 77.4995 90.879 74.7755 93.2085L76.4003 95.1085ZM94.6221 84.7949L95.4644 87.1487C98.6064 86.0244 101.885 85.1275 105.237 84.4851L104.766 82.0298L104.295 79.5745C100.692 80.2651 97.165 81.2298 93.7799 82.441L94.6221 84.7949ZM115.213 80.8554L115.296 83.354C118.669 83.2416 122.047 83.4006 125.372 83.8534L125.71 81.3762L126.047 78.8991C122.429 78.4065 118.769 78.2355 115.129 78.3568L115.213 80.8554ZM135.943 83.7518L135.146 86.1211C138.298 87.1824 141.339 88.5578 144.213 90.2692L145.492 88.1211L146.771 85.9731C143.576 84.0707 140.21 82.5505 136.741 81.3824L135.943 83.7518ZM153.848 94.4701L152.12 96.2765C154.438 98.4946 156.577 101.028 158.49 103.901L160.571 102.516L162.652 101.13C160.536 97.9528 158.161 95.1366 155.576 92.6636L153.848 94.4701ZM165.482 111.781L163.172 112.737C164.396 115.694 165.433 118.911 166.253 122.404L168.687 121.834L171.121 121.263C170.243 117.52 169.125 114.044 167.791 110.824L165.482 111.781ZM170.388 132.146L167.901 132.399C168.072 134.075 168.199 135.801 168.281 137.579L170.779 137.464L173.276 137.348C173.19 135.481 173.056 133.663 172.875 131.892L170.388 132.146ZM170.779 137.464L168.281 137.579C168.355 139.171 168.405 140.785 168.433 142.421L170.933 142.379L173.432 142.336C173.404 140.653 173.352 138.99 173.276 137.348L170.779 137.464ZM170.831 152.301L168.333 152.21C168.217 155.406 168.02 158.665 167.742 161.98L170.234 162.189L172.725 162.398C173.009 159.007 173.21 155.668 173.329 152.392L170.831 152.301ZM169.193 172.026L166.713 171.71C166.306 174.903 165.828 178.137 165.278 181.404L167.743 181.819L170.209 182.234C170.77 178.902 171.258 175.602 171.673 172.342L169.193 172.026ZM165.912 191.551L163.465 191.043C162.806 194.212 162.083 197.404 161.293 200.613L163.72 201.211L166.148 201.808C166.952 198.54 167.69 195.288 168.36 192.06L165.912 191.551ZM161.182 210.785L158.777 210.102C157.89 213.226 156.941 216.36 155.93 219.498L158.309 220.265L160.689 221.032C161.718 217.838 162.684 214.648 163.587 211.469L161.182 210.785ZM155.109 229.639L152.758 228.79C151.653 231.852 150.489 234.913 149.266 237.967L151.587 238.896L153.907 239.826C155.152 236.717 156.336 233.603 157.461 230.487L155.109 229.639ZM147.744 248.025L145.458 247.015C144.141 249.997 142.766 252.968 141.334 255.923L143.584 257.013L145.834 258.104C147.292 255.095 148.691 252.071 150.031 249.035L147.744 248.025ZM139.104 265.847L136.896 264.676C135.367 267.559 133.782 270.421 132.141 273.258L134.305 274.51L136.469 275.762C138.142 272.871 139.756 269.955 141.313 267.018L139.104 265.847ZM129.183 282.987L127.068 281.653C125.327 284.414 123.529 287.146 121.676 289.842L123.736 291.259L125.796 292.675C127.688 289.923 129.521 287.136 131.297 284.321L129.183 282.987ZM117.961 299.305L115.961 297.805C114.004 300.417 111.991 302.99 109.922 305.52L111.857 307.103L113.793 308.686C115.907 306.1 117.963 303.471 119.962 300.804L117.961 299.305ZM105.422 314.63L103.558 312.964C101.384 315.395 99.1549 317.778 96.8695 320.11L98.6548 321.86L100.44 323.61C102.78 321.223 105.062 318.783 107.286 316.296L105.422 314.63ZM91.5575 328.765L89.8576 326.932C87.4695 329.147 85.0259 331.305 82.5263 333.404L84.1336 335.318L85.7409 337.233C88.3048 335.081 90.8102 332.868 93.2575 330.598L91.5575 328.765ZM76.3895 341.49L74.8823 339.495C72.2885 341.455 69.6395 343.351 66.9349 345.179L68.3347 347.25L69.7345 349.322C72.5133 347.444 75.2339 345.496 77.8967 343.484L76.3895 341.49ZM59.9824 352.572L58.697 350.427C55.9143 352.095 53.0771 353.693 50.185 355.215L51.3495 357.427L52.514 359.639C55.489 358.073 58.4068 356.431 61.2678 354.716L59.9824 352.572ZM42.4607 361.791L41.4227 359.517C38.4804 360.86 35.485 362.127 32.4363 363.314L33.3434 365.644L34.2505 367.973C37.3882 366.752 40.4709 365.448 43.4987 364.066L42.4607 361.791ZM24.0231 368.97L23.2502 366.593C20.1821 367.59 17.063 368.508 13.8929 369.344L14.53 371.761L15.1671 374.179C18.4289 373.319 21.6385 372.374 24.7961 371.348L24.0231 368.97Z" fill="#F0FEFF"/>
</svg>
