<svg width="354" height="164" viewBox="0 0 354 164" fill="none" xmlns="http://www.w3.org/2000/svg">
<path d="M13.2898 42.9001C13.8611 41.6431 15.3432 41.0872 16.6002 41.6585C17.8571 42.2298 18.413 43.7119 17.8417 44.9688L15.5658 43.9345L13.2898 42.9001ZM27.4007 137.299L26.8116 139.729L27.4007 137.299ZM82.9134 161.248L82.8875 163.748L82.9134 161.248ZM353.238 14.0587L328.456 28.8642L328.025 -6.30872e-05L353.238 14.0587ZM15.7585 49.7772C15.2316 51.0534 13.7699 51.6609 12.4936 51.134C11.2174 50.6071 10.61 49.1454 11.1368 47.8691L13.4477 48.8232L15.7585 49.7772ZM7.33541 58.0227C7.77668 56.7144 9.19498 56.0116 10.5033 56.4529C11.8116 56.8941 12.5144 58.3124 12.0732 59.6207L9.70429 58.8217L7.33541 58.0227ZM9.04965 69.6833C8.69784 71.0184 7.33029 71.8156 5.99515 71.4638C4.66002 71.1119 3.86288 69.7444 4.2147 68.4093L6.63218 69.0463L9.04965 69.6833ZM1.83679 79.0106C2.08628 77.6527 3.38939 76.754 4.74738 77.0035C6.10536 77.253 7.00398 78.5561 6.75449 79.9141L4.29564 79.4624L1.83679 79.0106ZM5.32553 90.2573C5.20257 91.6325 3.98806 92.6477 2.61283 92.5247C1.2376 92.4018 0.222438 91.1873 0.345394 89.812L2.83546 90.0347L5.32553 90.2573ZM0.00148507 100.782C-0.0435836 99.4017 1.03857 98.2464 2.41855 98.2014C3.79853 98.1563 4.95375 99.2384 4.99882 100.618L2.50015 100.7L0.00148507 100.782ZM6.15562 110.785C6.43717 112.136 5.56965 113.46 4.21795 113.742C2.86625 114.024 1.54223 113.156 1.26068 111.804L3.70815 111.294L6.15562 110.785ZM4.8671 122.491C4.25244 121.255 4.75642 119.754 5.99277 119.139C7.22912 118.525 8.72966 119.029 9.34432 120.265L7.10571 121.378L4.8671 122.491ZM15.089 128.131C16.0932 129.078 16.139 130.66 15.1914 131.665C14.2438 132.669 12.6615 132.715 11.6573 131.767L13.3732 129.949L15.089 128.131ZM21.357 137.971C20.0799 137.446 19.4702 135.985 19.9951 134.708C20.52 133.431 21.9808 132.821 23.2578 133.346L22.3074 135.658L21.357 137.971ZM32.6845 135.826C34.0469 136.05 34.9697 137.336 34.7456 138.698C34.5216 140.061 33.2355 140.983 31.8731 140.759L32.2788 138.293L32.6845 135.826ZM42.1718 141.6C40.7911 141.605 39.6676 140.49 39.6624 139.109C39.6572 137.728 40.7722 136.605 42.1529 136.6L42.1623 139.1L42.1718 141.6ZM51.5474 135.701C52.9033 135.44 54.2136 136.328 54.4741 137.684C54.7345 139.04 53.8464 140.351 52.4905 140.611L52.0189 138.156L51.5474 135.701ZM62.4534 137.664C61.1745 138.184 59.7159 137.569 59.1957 136.29C58.6755 135.011 59.2906 133.552 60.5696 133.032L61.5115 135.348L62.4534 137.664ZM68.8927 128.645C70.0452 127.885 71.5959 128.203 72.3562 129.355C73.1165 130.508 72.7985 132.059 71.646 132.819L70.2693 130.732L68.8927 128.645ZM79.7246 126.299C78.7369 127.264 77.1541 127.245 76.1893 126.257C75.2245 125.27 75.243 123.687 76.2307 122.722L77.9776 124.51L79.7246 126.299ZM82.3539 115.522C83.1486 114.393 84.7081 114.122 85.8372 114.917C86.9663 115.711 87.2374 117.271 86.4428 118.4L84.3983 116.961L82.3539 115.522ZM91.6128 109.418C91.0362 110.673 89.5518 111.222 88.2972 110.646C87.0426 110.069 86.4931 108.585 87.0697 107.33L89.3412 108.374L91.6128 109.418ZM90.1815 98.4318C90.5087 97.0904 91.8614 96.2683 93.2028 96.5955C94.5442 96.9227 95.3663 98.2754 95.0391 99.6168L92.6103 99.0243L90.1815 98.4318ZM96.4343 89.2642C96.402 90.6445 95.2568 91.7373 93.8765 91.705C92.4962 91.6726 91.4034 90.5275 91.4357 89.1471L93.935 89.2057L96.4343 89.2642ZM90.5024 79.9469C90.1813 78.6041 91.0095 77.2551 92.3524 76.934C93.6952 76.6129 95.0442 77.4412 95.3653 78.7841L92.9338 79.3655L90.5024 79.9469ZM91.3527 68.9153C92.0686 70.0959 91.6918 71.6334 90.5112 72.3492C89.3305 73.0651 87.7931 72.6883 87.0772 71.5077L89.215 70.2115L91.3527 68.9153ZM81.1717 64.6769C80.1076 63.7971 79.9583 62.2213 80.8381 61.1572C81.7179 60.0931 83.2938 59.9437 84.3578 60.8236L82.7648 62.7503L81.1717 64.6769ZM75.2112 55.3869C76.4875 55.9136 77.0952 57.3753 76.5685 58.6516C76.0418 59.9279 74.5802 60.5355 73.3039 60.0088L74.2575 57.6979L75.2112 55.3869ZM64.1477 57.6459C62.7724 57.5243 61.756 56.3108 61.8776 54.9355C61.9992 53.5601 63.2127 52.5438 64.5881 52.6653L64.3679 55.1556L64.1477 57.6459ZM53.2345 53.8786C54.5529 53.4686 55.9541 54.2051 56.3641 55.5235C56.774 56.842 56.0376 58.2431 54.7191 58.6531L53.9768 56.2659L53.2345 53.8786ZM46.1851 63.0936C45.0798 63.9209 43.513 63.6956 42.6856 62.5902C41.8582 61.4849 42.0836 59.9181 43.1889 59.0907L44.687 61.0921L46.1851 63.0936ZM35.2553 66.8882C36.1145 65.8074 37.6872 65.6279 38.768 66.4871C39.8487 67.3464 40.0283 68.9191 39.169 69.9998L37.2121 68.444L35.2553 66.8882ZM33.7716 78.4367C33.1412 79.6651 31.6343 80.1499 30.4059 79.5194C29.1776 78.889 28.6928 77.3821 29.3232 76.1538L31.5474 77.2952L33.7716 78.4367ZM25.174 86.2652C25.5924 84.9495 26.9982 84.222 28.314 84.6404C29.6298 85.0588 30.3573 86.4647 29.9388 87.7805L27.5564 87.0228L25.174 86.2652ZM27.6262 97.6415C27.415 99.006 26.1376 99.9409 24.7732 99.7296C23.4087 99.5184 22.4738 98.241 22.6851 96.8766L25.1556 97.2591L27.6262 97.6415ZM21.8553 107.747C21.8519 106.366 22.9685 105.244 24.3492 105.241C25.7299 105.238 26.8519 106.354 26.8553 107.735L24.3553 107.741L21.8553 107.747ZM27.7145 117.787C27.9496 119.147 27.0372 120.441 25.6767 120.676C24.3161 120.911 23.0226 119.999 22.7875 118.638L25.251 118.213L27.7145 117.787ZM25.6515 129.237C25.1644 127.945 25.817 126.502 27.1089 126.015C28.4009 125.528 29.8431 126.181 30.3301 127.473L27.9908 128.355L25.6515 129.237ZM34.7996 136.386C35.5479 137.546 35.2139 139.094 34.0536 139.842C32.8933 140.59 31.346 140.256 30.5977 139.096L32.6986 137.741L34.7996 136.386ZM37.5987 147.657C36.6091 146.694 36.5876 145.111 37.5505 144.122C38.5134 143.132 40.0962 143.11 41.0857 144.073L39.3422 145.865L37.5987 147.657ZM48.9332 150.167C50.1091 150.891 50.4757 152.43 49.752 153.606C49.0283 154.782 47.4884 155.149 46.3126 154.425L47.6229 152.296L48.9332 150.167ZM56.1844 159.215C54.8907 158.733 54.2329 157.293 54.7152 155.999C55.1975 154.705 56.6373 154.048 57.931 154.53L57.0577 156.873L56.1844 159.215ZM67.7021 157.263C69.0567 157.53 69.9384 158.845 69.6713 160.2C69.4042 161.554 68.0896 162.436 66.7349 162.169L67.2185 159.716L67.7021 157.263ZM77.4206 163.543C76.0428 163.452 74.9995 162.262 75.0902 160.884C75.181 159.506 76.3714 158.463 77.7491 158.554L77.5848 161.048L77.4206 163.543ZM87.6897 158.62C89.0675 158.531 90.2564 159.576 90.345 160.954C90.4336 162.332 89.3885 163.521 88.0106 163.61L87.8501 161.115L87.6897 158.62ZM98.118 162.228C96.7662 162.509 95.4423 161.642 95.161 160.29C94.8796 158.938 95.7474 157.614 97.0991 157.333L97.6085 159.781L98.118 162.228ZM106.291 154.803C107.597 154.357 109.018 155.056 109.464 156.363C109.909 157.669 109.211 159.09 107.904 159.535L107.097 157.169L106.291 154.803ZM117.281 155.774C116.027 156.351 114.542 155.802 113.966 154.547C113.389 153.293 113.939 151.808 115.193 151.231L116.237 153.503L117.281 155.774ZM123.788 146.827C124.991 146.149 126.516 146.575 127.194 147.778C127.871 148.981 127.445 150.505 126.242 151.183L125.015 149.005L123.788 146.827ZM134.816 145.967C133.659 146.721 132.11 146.394 131.357 145.237C130.603 144.081 130.93 142.532 132.087 141.778L133.451 143.873L134.816 145.967ZM140.105 136.253C141.223 135.443 142.786 135.692 143.596 136.811C144.406 137.929 144.157 139.492 143.039 140.302L141.572 138.278L140.105 136.253ZM150.975 134.308C149.888 135.16 148.317 134.969 147.465 133.883C146.613 132.796 146.804 131.225 147.89 130.373L149.433 132.34L150.975 134.308ZM155.502 124.222C156.565 123.34 158.141 123.487 159.023 124.549C159.905 125.611 159.759 127.187 158.696 128.069L157.099 126.146L155.502 124.222ZM166.253 121.659C165.209 122.562 163.63 122.447 162.727 121.403C161.824 120.358 161.939 118.779 162.983 117.876L164.618 119.768L166.253 121.659ZM170.373 111.395C171.405 110.479 172.985 110.572 173.902 111.605C174.819 112.637 174.725 114.217 173.692 115.134L172.033 113.265L170.373 111.395ZM181.054 108.543C180.028 109.467 178.448 109.385 177.523 108.359C176.599 107.334 176.681 105.753 177.707 104.828L179.381 106.686L181.054 108.543ZM185.02 98.2181C186.044 97.2916 187.625 97.3704 188.551 98.394C189.478 99.4177 189.399 100.999 188.376 101.925L186.698 100.072L185.02 98.2181ZM195.69 95.3168C194.664 96.2408 193.083 96.158 192.159 95.132C191.235 94.106 191.318 92.5253 192.344 91.6013L194.017 93.4591L195.69 95.3168ZM199.707 85.012C200.739 84.0952 202.319 84.1889 203.236 85.2212C204.153 86.2536 204.059 87.8338 203.027 88.7506L201.367 86.8813L199.707 85.012ZM210.415 82.2577C209.373 83.1631 207.794 83.0519 206.888 82.0095C205.983 80.967 206.094 79.388 207.137 78.4827L208.776 80.3702L210.415 82.2577ZM214.658 72.045C215.714 71.1555 217.291 71.2905 218.181 72.3465C219.07 73.4025 218.935 74.9796 217.879 75.8691L216.269 73.957L214.658 72.045ZM225.442 69.6169C224.37 70.4861 222.795 70.321 221.926 69.2482C221.057 68.1754 221.222 66.6011 222.295 65.732L223.869 67.6744L225.442 69.6169ZM230.07 59.5757C231.162 58.7315 232.732 58.9329 233.577 60.0254C234.421 61.118 234.219 62.688 233.127 63.5322L231.598 61.554L230.07 59.5757ZM240.954 57.6478C239.839 58.4621 238.275 58.2183 237.461 57.1032C236.647 55.9882 236.89 54.4242 238.005 53.6099L239.48 55.6289L240.954 57.6478ZM246.12 47.8718C247.26 47.0927 248.816 47.3852 249.595 48.5251C250.374 49.665 250.081 51.2206 248.941 51.9997L247.531 49.9358L246.12 47.8718ZM257.103 46.6261C255.937 47.3645 254.392 47.0172 253.654 45.8506C252.915 44.6839 253.263 43.1395 254.429 42.4011L255.766 44.5136L257.103 46.6261ZM262.946 37.2398C264.141 36.5481 265.67 36.956 266.362 38.1509C267.054 39.3458 266.646 40.8752 265.451 41.567L264.198 39.4034L262.946 37.2398ZM273.992 36.8641C272.768 37.5032 271.258 37.0291 270.619 35.8051C269.979 34.5812 270.454 33.071 271.677 32.4319L272.835 34.648L273.992 36.8641ZM280.627 28.0226C281.88 27.4424 283.366 27.9878 283.946 29.2406C284.527 30.4935 283.981 31.9795 282.728 32.5597L281.678 30.2912L280.627 28.0226ZM291.658 28.6959C290.377 29.2111 288.921 28.5904 288.406 27.3095C287.891 26.0285 288.511 24.5724 289.792 24.0571L290.725 26.3765L291.658 28.6959ZM299.163 20.5788C300.47 20.1341 301.89 20.8333 302.335 22.1404C302.78 23.4475 302.081 24.8677 300.773 25.3124L299.968 22.9456L299.163 20.5788ZM310.059 22.4452C308.729 22.8143 307.351 22.035 306.982 20.7045C306.613 19.3741 307.392 17.9963 308.723 17.6272L309.391 20.0362L310.059 22.4452ZM318.449 15.2358C319.799 14.9463 321.128 15.8059 321.418 17.1559C321.707 18.5059 320.848 19.8351 319.498 20.1246L318.973 17.6802L318.449 15.2358ZM329.039 18.3774C327.674 18.5848 326.399 17.6464 326.192 16.2814C325.984 14.9164 326.923 13.6416 328.288 13.4341L328.664 15.9058L329.039 18.3774ZM338.212 12.2329C339.587 12.1087 340.802 13.1227 340.927 14.4978C341.051 15.8729 340.037 17.0884 338.662 17.2126L338.437 14.7228L338.212 12.2329ZM348.339 16.6319C346.959 16.6732 345.806 15.5879 345.765 14.2078C345.724 12.8277 346.809 11.6755 348.189 11.6341L348.264 14.133L348.339 16.6319ZM15.5658 43.9345L17.8417 44.9688C17.1332 46.5279 16.4372 48.1331 15.7585 49.7772L13.4477 48.8232L11.1368 47.8691C11.8375 46.1719 12.5567 44.5132 13.2898 42.9001L15.5658 43.9345ZM9.70429 58.8217L12.0732 59.6207C10.9647 62.9073 9.94726 66.277 9.04965 69.6833L6.63218 69.0463L4.2147 68.4093C5.14229 64.8891 6.19247 61.4114 7.33541 58.0227L9.70429 58.8217ZM4.29564 79.4624L6.75449 79.9141C6.11526 83.3935 5.62954 86.8571 5.32553 90.2573L2.83546 90.0347L0.345394 89.812C0.664507 86.2429 1.17262 82.6258 1.83679 79.0106L4.29564 79.4624ZM2.50015 100.7L4.99882 100.618C5.11522 104.183 5.49036 107.591 6.15562 110.785L3.70815 111.294L1.26068 111.804C0.527993 108.287 0.125783 104.588 0.00148507 100.782L2.50015 100.7ZM7.10571 121.378L9.34432 120.265C10.8368 123.267 12.7361 125.91 15.089 128.131L13.3732 129.949L11.6573 131.767C8.83228 129.101 6.59434 125.965 4.8671 122.491L7.10571 121.378ZM22.3074 135.658L23.2578 133.346C24.7211 133.947 26.2959 134.459 27.9898 134.869L27.4007 137.299L26.8116 139.729C24.8835 139.261 23.0662 138.673 21.357 137.971L22.3074 135.658ZM27.4007 137.299L27.9898 134.869C29.58 135.255 31.1451 135.573 32.6845 135.826L32.2788 138.293L31.8731 140.759C30.2084 140.486 28.5209 140.143 26.8116 139.729L27.4007 137.299ZM42.1623 139.1L42.1529 136.6C45.425 136.587 48.5593 136.275 51.5474 135.701L52.0189 138.156L52.4905 140.611C49.1953 141.244 45.7516 141.586 42.1718 141.6L42.1623 139.1ZM61.5115 135.348L60.5696 133.032C63.5309 131.828 66.3096 130.349 68.8927 128.645L70.2693 130.732L71.646 132.819C68.7963 134.699 65.7272 136.332 62.4534 137.664L61.5115 135.348ZM77.9776 124.51L76.2307 122.722C78.509 120.496 80.5555 118.077 82.3539 115.522L84.3983 116.961L86.4428 118.4C84.4721 121.2 82.2275 123.854 79.7246 126.299L77.9776 124.51ZM89.3412 108.374L87.0697 107.33C88.4075 104.419 89.4501 101.43 90.1815 98.4318L92.6103 99.0243L95.0391 99.6168C94.2301 102.933 93.0808 106.224 91.6128 109.418L89.3412 108.374ZM93.935 89.2057L91.4357 89.1471C91.5101 85.9697 91.2028 82.8761 90.5024 79.9469L92.9338 79.3655L95.3653 78.7841C96.1737 82.1648 96.518 85.6909 96.4343 89.2642L93.935 89.2057ZM89.215 70.2115L87.0772 71.5077C85.54 68.9724 83.5809 66.669 81.1717 64.6769L82.7648 62.7503L84.3578 60.8236C87.2066 63.179 89.5312 65.9112 91.3527 68.9153L89.215 70.2115ZM74.2575 57.6979L73.3039 60.0088C71.9239 59.4394 70.4543 58.9366 68.8918 58.5084L69.5526 56.0973L70.2134 53.6862C71.9674 54.1669 73.6331 54.7357 75.2112 55.3869L74.2575 57.6979ZM69.5526 56.0973L68.8918 58.5084C67.2748 58.0652 65.6924 57.7825 64.1477 57.6459L64.3679 55.1556L64.5881 52.6653C66.4389 52.829 68.316 53.1662 70.2134 53.6862L69.5526 56.0973ZM53.9768 56.2659L54.7191 58.6531C51.716 59.587 48.8566 61.0939 46.1851 63.0936L44.687 61.0921L43.1889 59.0907C46.2661 56.7874 49.63 54.9994 53.2345 53.8786L53.9768 56.2659ZM37.2121 68.444L39.169 69.9998C37.1601 72.5266 35.3489 75.3635 33.7716 78.4367L31.5474 77.2952L29.3232 76.1538C31.0383 72.8119 33.0247 69.6937 35.2553 66.8882L37.2121 68.444ZM27.5564 87.0228L29.9388 87.7805C28.9276 90.9606 28.1484 94.2687 27.6262 97.6415L25.1556 97.2591L22.6851 96.8766C23.2464 93.2504 24.0844 89.6915 25.174 86.2652L27.5564 87.0228ZM24.3553 107.741L26.8553 107.735C26.8636 111.11 27.1432 114.48 27.7145 117.787L25.251 118.213L22.7875 118.638C22.1659 115.041 21.8642 111.389 21.8553 107.747L24.3553 107.741ZM27.9908 128.355L30.3301 127.473C31.5034 130.586 32.9866 133.575 34.7996 136.386L32.6986 137.741L30.5977 139.096C28.5823 135.971 26.9428 132.662 25.6515 129.237L27.9908 128.355ZM39.3422 145.865L41.0857 144.073C43.3852 146.311 45.9938 148.358 48.9332 150.167L47.6229 152.296L46.3126 154.425C43.0617 152.424 40.1624 150.152 37.5987 147.657L39.3422 145.865ZM57.0577 156.873L57.931 154.53C60.9295 155.648 64.1819 156.569 67.7021 157.263L67.2185 159.716L66.7349 162.169C62.9636 161.425 59.4495 160.432 56.1844 159.215L57.0577 156.873ZM77.5848 161.048L77.7491 158.554C79.4297 158.664 81.1594 158.73 82.9393 158.749L82.9134 161.248L82.8875 163.748C81.0181 163.729 79.1961 163.66 77.4206 163.543L77.5848 161.048ZM82.9134 161.248L82.9393 158.749C84.5298 158.765 86.113 158.721 87.6897 158.62L87.8501 161.115L88.0106 163.61C86.3115 163.719 84.604 163.766 82.8875 163.748L82.9134 161.248ZM97.6085 159.781L97.0991 157.333C100.176 156.693 103.237 155.844 106.291 154.803L107.097 157.169L107.904 159.535C104.67 160.638 101.41 161.543 98.118 162.228L97.6085 159.781ZM116.237 153.503L115.193 151.231C118.06 149.914 120.923 148.44 123.788 146.827L125.015 149.005L126.242 151.183C123.27 152.857 120.285 154.394 117.281 155.774L116.237 153.503ZM133.451 143.873L132.087 141.778C134.755 140.04 137.426 138.194 140.105 136.253L141.572 138.278L143.039 140.302C140.301 142.286 137.561 144.179 134.816 145.967L133.451 143.873ZM149.433 132.34L147.89 130.373C150.418 128.391 152.954 126.338 155.502 124.222L157.099 126.146L158.696 128.069C156.117 130.21 153.544 132.294 150.975 134.308L149.433 132.34ZM164.618 119.768L162.983 117.876C165.433 115.759 167.895 113.596 170.373 111.395L172.033 113.265L173.692 115.134C171.202 117.345 168.723 119.524 166.253 121.659L164.618 119.768ZM179.381 106.686L177.707 104.828C180.127 102.647 182.564 100.442 185.02 98.2181L186.698 100.072L188.376 101.925C185.92 104.148 183.48 106.357 181.054 108.543L179.381 106.686ZM194.017 93.4591L192.344 91.6013C194.777 89.4105 197.231 87.2112 199.707 85.012L201.367 86.8813L203.027 88.7506C200.562 90.9399 198.117 93.1311 195.69 95.3168L194.017 93.4591ZM208.776 80.3702L207.137 78.4827C209.619 76.327 212.125 74.1786 214.658 72.045L216.269 73.957L217.879 75.8691C215.368 77.9844 212.881 80.1163 210.415 82.2577L208.776 80.3702ZM223.869 67.6744L222.295 65.732C224.857 63.6557 227.448 61.6011 230.07 59.5757L231.598 61.554L233.127 63.5322C230.539 65.5321 227.978 67.5626 225.442 69.6169L223.869 67.6744ZM239.48 55.6289L238.005 53.6099C240.677 51.6588 243.381 49.7436 246.12 47.8718L247.531 49.9358L248.941 51.9997C246.249 53.8403 243.587 55.7253 240.954 57.6478L239.48 55.6289ZM255.766 44.5136L254.429 42.4011C257.231 40.6281 260.069 38.9052 262.946 37.2398L264.198 39.4034L265.451 41.567C262.634 43.1977 259.852 44.8863 257.103 46.6261L255.766 44.5136ZM272.835 34.648L271.677 32.4319C274.62 30.8956 277.602 29.4234 280.627 28.0226L281.678 30.2912L282.728 32.5597C279.778 33.9259 276.867 35.3629 273.992 36.8641L272.835 34.648ZM290.725 26.3765L289.792 24.0571C292.872 22.8184 295.995 21.6566 299.163 20.5788L299.968 22.9456L300.773 25.3124C297.694 26.36 294.656 27.49 291.658 28.6959L290.725 26.3765ZM309.391 20.0362L308.723 17.6272C311.919 16.7404 315.161 15.9411 318.449 15.2358L318.973 17.6802L319.498 20.1246C316.308 20.8088 313.162 21.5844 310.059 22.4452L309.391 20.0362ZM328.664 15.9058L328.288 13.4341C331.55 12.9383 334.858 12.5359 338.212 12.2329L338.437 14.7228L338.662 17.2126C335.41 17.5065 332.203 17.8966 329.039 18.3774L328.664 15.9058Z" fill="#F0FEFF"/>
</svg>
