<svg width="207" height="396" viewBox="0 0 207 396" fill="none" xmlns="http://www.w3.org/2000/svg">
<path d="M210.928 4.99531C212.306 4.90919 213.353 3.72227 213.267 2.34424C213.181 0.966219 211.994 -0.0810732 210.616 0.00504953L210.772 2.50018L210.928 4.99531ZM144.862 93.8405L147.269 93.1649L144.862 93.8405ZM170.78 148.462L173.277 148.346L170.78 148.462ZM0.000599218 385.942L27.2562 395.454L21.8655 367.094L0.000599218 385.942ZM5.39638 387.461C6.74908 387.184 7.62138 385.864 7.34471 384.511C7.06804 383.158 5.74717 382.286 4.39446 382.563L4.89542 385.012L5.39638 387.461ZM13.8939 380.342C12.5588 380.694 11.7617 382.061 12.1136 383.396C12.4654 384.732 13.833 385.529 15.1681 385.177L14.531 382.759L13.8939 380.342ZM24.7972 382.346C26.1102 381.919 26.8286 380.508 26.4017 379.195C25.9748 377.882 24.5643 377.164 23.2512 377.591L24.0242 379.968L24.7972 382.346ZM32.4373 374.312C31.1507 374.813 30.5138 376.262 31.0148 377.549C31.5158 378.835 32.9649 379.472 34.2515 378.971L33.3444 376.642L32.4373 374.312ZM43.4998 375.064C44.7558 374.49 45.3094 373.007 44.7361 371.751C44.1628 370.495 42.6798 369.942 41.4238 370.515L42.4618 372.789L43.4998 375.064ZM50.1861 366.213C48.9643 366.856 48.4952 368.368 49.1383 369.59C49.7814 370.811 51.2932 371.281 52.515 370.637L51.3505 368.425L50.1861 366.213ZM61.2688 365.714C62.4531 365.004 62.8376 363.468 62.1277 362.284C61.4178 361.1 59.8823 360.715 58.6981 361.425L59.9835 363.569L61.2688 365.714ZM66.9359 356.177C65.7919 356.95 65.4913 358.504 66.2644 359.648C67.0375 360.792 68.5916 361.093 69.7355 360.319L68.3357 358.248L66.9359 356.177ZM77.8977 354.482C78.9993 353.65 79.2175 352.082 78.3851 350.98C77.5527 349.879 75.9849 349.661 74.8833 350.493L76.3905 352.488L77.8977 354.482ZM82.5274 344.402C81.4698 345.289 81.3321 346.866 82.2198 347.924C83.1075 348.981 84.6844 349.119 85.7419 348.231L84.1347 346.316L82.5274 344.402ZM93.2585 341.596C94.2709 340.658 94.3305 339.076 93.3916 338.063C92.4528 337.051 90.871 336.991 89.8586 337.93L91.5586 339.763L93.2585 341.596ZM96.8705 331.108C95.904 332.094 95.9198 333.677 96.9058 334.643C97.8918 335.61 99.4747 335.594 100.441 334.608L98.6559 332.858L96.8705 331.108ZM107.287 327.294C108.207 326.265 108.119 324.685 107.089 323.764C106.06 322.844 104.48 322.932 103.559 323.962L105.423 325.628L107.287 327.294ZM109.923 316.518C109.049 317.587 109.207 319.162 110.276 320.036C111.345 320.91 112.92 320.752 113.794 319.684L111.858 318.101L109.923 316.518ZM119.963 311.802C120.791 310.697 120.566 309.13 119.462 308.302C118.357 307.474 116.79 307.698 115.962 308.803L117.962 310.303L119.963 311.802ZM121.677 300.84C120.894 301.978 121.183 303.535 122.321 304.317C123.459 305.099 125.015 304.811 125.797 303.673L123.737 302.257L121.677 300.84ZM131.298 295.319C132.035 294.151 131.685 292.607 130.517 291.871C129.35 291.134 127.806 291.484 127.069 292.651L129.184 293.985L131.298 295.319ZM132.142 284.256C131.45 285.451 131.859 286.981 133.054 287.672C134.249 288.364 135.778 287.955 136.47 286.76L134.306 285.508L132.142 284.256ZM141.314 278.016C141.961 276.796 141.496 275.283 140.276 274.636C139.056 273.989 137.543 274.454 136.897 275.674L139.105 276.845L141.314 278.016ZM141.335 266.921C140.733 268.164 141.252 269.659 142.495 270.261C143.737 270.863 145.232 270.344 145.835 269.102L143.585 268.011L141.335 266.921ZM150.032 260.033C150.59 258.77 150.018 257.294 148.755 256.736C147.492 256.179 146.016 256.75 145.459 258.013L147.745 259.023L150.032 260.033ZM149.267 248.965C148.753 250.246 149.376 251.702 150.658 252.215C151.94 252.728 153.395 252.105 153.908 250.824L151.588 249.894L149.267 248.965ZM157.462 241.485C157.93 240.187 157.257 238.754 155.959 238.285C154.66 237.817 153.227 238.49 152.759 239.788L155.11 240.637L157.462 241.485ZM155.931 230.496C155.507 231.811 156.23 233.219 157.544 233.643C158.858 234.066 160.267 233.344 160.69 232.03L158.31 231.263L155.931 230.496ZM163.588 222.467C163.965 221.138 163.195 219.756 161.866 219.379C160.538 219.001 159.156 219.772 158.778 221.1L161.183 221.783L163.588 222.467ZM161.294 211.611C160.964 212.952 161.783 214.306 163.124 214.636C164.465 214.966 165.819 214.147 166.149 212.806L163.721 212.209L161.294 211.611ZM168.361 203.058C168.642 201.706 167.774 200.382 166.422 200.102C165.07 199.821 163.746 200.689 163.466 202.041L165.913 202.549L168.361 203.058ZM165.279 192.402C165.05 193.763 165.968 195.053 167.329 195.282C168.691 195.511 169.981 194.593 170.21 193.232L167.744 192.817L165.279 192.402ZM171.674 183.34C171.848 181.97 170.879 180.718 169.51 180.544C168.14 180.369 166.888 181.338 166.714 182.708L169.194 183.024L171.674 183.34ZM167.743 172.978C167.628 174.354 168.65 175.563 170.026 175.678C171.402 175.794 172.611 174.772 172.726 173.396L170.235 173.187L167.743 172.978ZM173.33 163.39C173.38 162.01 172.302 160.851 170.923 160.801C169.543 160.751 168.384 161.829 168.334 163.208L170.832 163.299L173.33 163.39ZM168.434 153.419C168.457 154.799 169.595 155.9 170.976 155.876C172.357 155.853 173.457 154.715 173.433 153.334L170.934 153.377L168.434 153.419ZM172.876 142.89C172.736 141.517 171.51 140.517 170.136 140.657C168.762 140.797 167.762 142.023 167.902 143.397L170.389 143.144L172.876 142.89ZM166.254 133.403C166.569 134.747 167.914 135.581 169.259 135.266C170.603 134.95 171.437 133.605 171.122 132.261L168.688 132.832L166.254 133.403ZM167.792 121.823C167.264 120.547 165.802 119.941 164.526 120.469C163.25 120.997 162.645 122.46 163.173 123.735L165.483 122.779L167.792 121.823ZM158.491 114.899C159.256 116.049 160.808 116.36 161.957 115.595C163.107 114.829 163.418 113.277 162.653 112.128L160.572 113.514L158.491 114.899ZM155.577 103.662C154.58 102.707 152.997 102.742 152.043 103.74C151.088 104.738 151.123 106.32 152.121 107.275L153.849 105.468L155.577 103.662ZM144.214 101.267C145.4 101.974 146.934 101.585 147.641 100.398C148.347 99.2119 147.958 97.6776 146.772 96.9712L145.493 99.1192L144.214 101.267ZM136.742 92.3805C135.433 91.94 134.015 92.6436 133.575 93.9522C133.134 95.2607 133.838 96.6786 135.147 97.1192L135.944 94.7498L136.742 92.3805ZM125.373 94.8514C126.741 95.0378 128.001 94.0797 128.188 92.7117C128.374 91.3436 127.416 90.0835 126.048 89.8972L125.711 92.3743L125.373 94.8514ZM115.13 89.3548C113.75 89.4008 112.669 90.5567 112.715 91.9367C112.761 93.3166 113.917 94.398 115.297 94.3521L115.214 91.8534L115.13 89.3548ZM105.238 95.4832C106.594 95.2233 107.482 93.9134 107.222 92.5573C106.963 91.2013 105.653 90.3127 104.297 90.5726L104.767 93.0279L105.238 95.4832ZM93.7809 93.4391C92.4809 93.9043 91.8042 95.3352 92.2693 96.6352C92.7345 97.9352 94.1655 98.612 95.4654 98.1468L94.6232 95.7929L93.7809 93.4391ZM86.2647 102.311C87.4698 101.637 87.9003 100.114 87.2264 98.9088C86.5525 97.7038 85.0293 97.2732 83.8242 97.9471L85.0444 100.129L86.2647 102.311ZM74.7765 104.207C73.7271 105.104 73.6039 106.682 74.5013 107.731C75.3986 108.781 76.9767 108.904 78.0261 108.007L76.4013 106.107L74.7765 104.207ZM71.375 115.265C72.1623 114.131 71.8811 112.573 70.7469 111.786C69.6127 110.998 68.0549 111.28 67.2676 112.414L69.3213 113.839L71.375 115.265ZM62.4178 122.639C62.0553 123.971 62.8413 125.345 64.1736 125.708C65.5058 126.071 66.8798 125.285 67.2424 123.952L64.8301 123.296L62.4178 122.639ZM66.5728 133.411C66.4021 132.041 65.1531 131.068 63.7829 131.239C62.4128 131.41 61.4405 132.659 61.6111 134.029L64.092 133.72L66.5728 133.411ZM64.7107 144.548C65.2826 145.805 66.7651 146.36 68.0217 145.788C69.2784 145.216 69.8334 143.733 69.2615 142.477L66.9861 143.512L64.7107 144.548ZM74.2078 150.173C73.2905 149.141 71.7103 149.048 70.6783 149.965C69.6464 150.882 69.5534 152.463 70.4707 153.494L72.3392 151.834L74.2078 150.173ZM78.8073 160.196C80.0128 160.869 81.5357 160.437 82.2089 159.232C82.8821 158.026 82.4507 156.503 81.2452 155.83L80.0262 158.013L78.8073 160.196ZM89.8015 158.952C88.448 158.679 87.1296 159.555 86.8566 160.908C86.5837 162.262 87.4597 163.58 88.8132 163.853L89.3073 161.402L89.8015 158.952ZM99.3248 164.547C100.703 164.465 101.754 163.282 101.673 161.903C101.591 160.525 100.407 159.474 99.0292 159.556L99.177 162.051L99.3248 164.547ZM108.263 157.97C106.934 158.345 106.161 159.726 106.536 161.055C106.911 162.384 108.292 163.157 109.621 162.782L108.942 160.376L108.263 157.97ZM119.293 159.008C120.527 158.387 121.023 156.884 120.402 155.651C119.781 154.418 118.277 153.921 117.044 154.542L118.169 156.775L119.293 159.008ZM125.063 149.537C123.963 150.371 123.748 151.94 124.582 153.04C125.417 154.14 126.985 154.355 128.085 153.52L126.574 151.529L125.063 149.537ZM135.739 146.524C136.667 145.503 136.592 143.921 135.571 142.993C134.549 142.064 132.968 142.139 132.039 143.16L133.889 144.842L135.739 146.524ZM137.696 135.615C136.978 136.794 137.351 138.332 138.53 139.051C139.709 139.77 141.247 139.397 141.966 138.218L139.831 136.916L137.696 135.615ZM146.479 128.858C146.953 127.561 146.286 126.125 144.99 125.651C143.693 125.177 142.257 125.844 141.783 127.141L144.131 127.999L146.479 128.858ZM144.127 118.029C143.916 119.393 144.85 120.671 146.214 120.883C147.579 121.095 148.856 120.16 149.068 118.796L146.598 118.412L144.127 118.029ZM149.687 108.448C149.643 107.068 148.489 105.985 147.109 106.03C145.729 106.074 144.646 107.228 144.69 108.608L147.189 108.528L149.687 108.448ZM143.578 99.1735C143.851 100.527 145.169 101.403 146.522 101.131C147.876 100.858 148.752 99.5398 148.48 98.1863L146.029 98.6799L143.578 99.1735ZM146.095 88.6227C145.777 87.279 144.431 86.4471 143.087 86.7646C141.743 87.0821 140.911 88.4288 141.229 89.7725L143.662 89.1976L146.095 88.6227ZM139.383 80.1229C139.582 81.4892 140.851 82.4353 142.218 82.2362C143.584 82.0372 144.53 80.7682 144.331 79.4019L141.857 79.7624L139.383 80.1229ZM143.423 70.0895C143.358 68.7104 142.187 67.6455 140.807 67.7111C139.428 67.7766 138.363 68.9478 138.429 70.327L140.926 70.2082L143.423 70.0895ZM138.5 60.4463C138.411 61.8241 139.455 63.0135 140.833 63.1029C142.211 63.1923 143.4 62.1479 143.49 60.7701L140.995 60.6082L138.5 60.4463ZM144.682 51.5797C144.952 50.2257 144.073 48.9091 142.719 48.6389C141.365 48.3688 140.049 49.2475 139.778 50.6016L142.23 51.0906L144.682 51.5797ZM142.464 40.9896C141.988 42.2858 142.654 43.7221 143.95 44.1976C145.246 44.6731 146.682 44.0077 147.158 42.7114L144.811 41.8505L142.464 40.9896ZM151.038 34.4184C151.733 33.2248 151.328 31.6945 150.134 31.0004C148.941 30.3063 147.41 30.7112 146.716 31.9048L148.877 33.1616L151.038 34.4184ZM152.547 23.7247C151.644 24.7697 151.76 26.3484 152.805 27.2508C153.85 28.1532 155.429 28.0377 156.331 26.9927L154.439 25.3587L152.547 23.7247ZM162.918 20.6466C163.993 19.7812 164.164 18.2075 163.299 17.1316C162.433 16.0558 160.86 15.8852 159.784 16.7506L161.351 18.6986L162.918 20.6466ZM168.062 11.1552C166.86 11.8353 166.437 13.3607 167.117 14.5623C167.798 15.7639 169.323 16.1866 170.525 15.5065L169.293 13.3309L168.062 11.1552ZM178.875 11.5342C180.159 11.0255 180.787 9.5725 180.278 8.28893C179.77 7.00536 178.317 6.37724 177.033 6.88597L177.954 9.21008L178.875 11.5342ZM186.431 3.78513C185.098 4.14512 184.309 5.51753 184.669 6.85048C185.029 8.18344 186.401 8.97219 187.734 8.61219L187.083 6.19866L186.431 3.78513ZM196.861 6.6095C198.222 6.37398 199.134 5.08016 198.898 3.71969C198.663 2.35921 197.369 1.44726 196.008 1.68278L196.435 4.14614L196.861 6.6095ZM205.71 0.39199C204.336 0.523673 203.329 1.74461 203.46 3.11903C203.592 4.49345 204.813 5.50088 206.187 5.3692L205.949 2.88059L205.71 0.39199ZM14.531 382.759L15.1681 385.177C18.4299 384.317 21.6396 383.372 24.7972 382.346L24.0242 379.968L23.2512 377.591C20.1831 378.588 17.0641 379.506 13.8939 380.342L14.531 382.759ZM33.3444 376.642L34.2515 378.971C37.3893 377.75 40.472 376.446 43.4998 375.064L42.4618 372.789L41.4238 370.515C38.4814 371.858 35.486 373.125 32.4373 374.312L33.3444 376.642ZM51.3505 368.425L52.515 370.637C55.49 369.071 58.4079 367.429 61.2688 365.714L59.9835 363.569L58.6981 361.425C55.9154 363.093 53.0781 364.691 50.1861 366.213L51.3505 368.425ZM68.3357 358.248L69.7355 360.319C72.5143 358.442 75.2349 356.494 77.8977 354.482L76.3905 352.488L74.8833 350.493C72.2896 352.453 69.6405 354.349 66.9359 356.177L68.3357 358.248ZM84.1347 346.316L85.7419 348.231C88.3058 346.079 90.8112 343.866 93.2585 341.596L91.5586 339.763L89.8586 337.93C87.4706 340.145 85.0269 342.303 82.5274 344.402L84.1347 346.316ZM98.6559 332.858L100.441 334.608C102.781 332.221 105.063 329.781 107.287 327.294L105.423 325.628L103.559 323.962C101.385 326.393 99.156 328.776 96.8705 331.108L98.6559 332.858ZM111.858 318.101L113.794 319.684C115.908 317.098 117.964 314.469 119.963 311.802L117.962 310.303L115.962 308.803C114.005 311.415 111.992 313.988 109.923 316.518L111.858 318.101ZM123.737 302.257L125.797 303.673C127.689 300.921 129.522 298.134 131.298 295.319L129.184 293.985L127.069 292.651C125.328 295.412 123.53 298.144 121.677 300.84L123.737 302.257ZM134.306 285.508L136.47 286.76C138.143 283.869 139.757 280.953 141.314 278.016L139.105 276.845L136.897 275.674C135.368 278.557 133.783 281.419 132.142 284.256L134.306 285.508ZM143.585 268.011L145.835 269.102C147.293 266.093 148.692 263.069 150.032 260.033L147.745 259.023L145.459 258.013C144.142 260.995 142.767 263.966 141.335 266.921L143.585 268.011ZM151.588 249.894L153.908 250.824C155.153 247.715 156.338 244.601 157.462 241.485L155.11 240.637L152.759 239.788C151.654 242.85 150.49 245.911 149.267 248.965L151.588 249.894ZM158.31 231.263L160.69 232.03C161.719 228.836 162.685 225.646 163.588 222.467L161.183 221.783L158.778 221.1C157.891 224.224 156.942 227.358 155.931 230.496L158.31 231.263ZM163.721 212.209L166.149 212.806C166.953 209.538 167.691 206.286 168.361 203.058L165.913 202.549L163.466 202.041C162.807 205.21 162.084 208.402 161.294 211.611L163.721 212.209ZM167.744 192.817L170.21 193.232C170.771 189.9 171.259 186.6 171.674 183.34L169.194 183.024L166.714 182.708C166.307 185.901 165.829 189.135 165.279 192.402L167.744 192.817ZM170.235 173.187L172.726 173.396C173.01 170.005 173.211 166.666 173.33 163.39L170.832 163.299L168.334 163.208C168.218 166.404 168.021 169.663 167.743 172.978L170.235 173.187ZM170.934 153.377L173.433 153.334C173.405 151.651 173.353 149.988 173.277 148.346L170.78 148.462L168.282 148.577C168.356 150.169 168.406 151.783 168.434 153.419L170.934 153.377ZM170.78 148.462L173.277 148.346C173.191 146.479 173.057 144.661 172.876 142.89L170.389 143.144L167.902 143.397C168.073 145.073 168.2 146.799 168.282 148.577L170.78 148.462ZM168.688 132.832L171.122 132.261C170.244 128.518 169.126 125.042 167.792 121.823L165.483 122.779L163.173 123.735C164.397 126.692 165.434 129.909 166.254 133.403L168.688 132.832ZM160.572 113.514L162.653 112.128C160.537 108.951 158.162 106.135 155.577 103.662L153.849 105.468L152.121 107.275C154.439 109.493 156.578 112.026 158.491 114.899L160.572 113.514ZM145.493 99.1192L146.772 96.9712C143.577 95.0688 140.211 93.5486 136.742 92.3805L135.944 94.7498L135.147 97.1192C138.299 98.1805 141.34 99.5559 144.214 101.267L145.493 99.1192ZM125.711 92.3743L126.048 89.8972C122.43 89.4045 118.77 89.2336 115.13 89.3548L115.214 91.8534L115.297 94.3521C118.67 94.2397 122.048 94.3987 125.373 94.8514L125.711 92.3743ZM104.767 93.0279L104.297 90.5726C100.693 91.2632 97.166 92.2278 93.7809 93.4391L94.6232 95.7929L95.4654 98.1468C98.6075 97.0225 101.886 96.1256 105.238 95.4832L104.767 93.0279ZM85.0444 100.129L83.8242 97.9471C80.5458 99.7805 77.5005 101.877 74.7765 104.207L76.4013 106.107L78.0261 108.007C80.4794 105.909 83.2498 103.997 86.2647 102.311L85.0444 100.129ZM69.3213 113.839L67.2676 112.414C65.0757 115.571 63.4091 118.997 62.4178 122.639L64.8301 123.296L67.2424 123.952C68.0683 120.918 69.472 118.006 71.375 115.265L69.3213 113.839ZM64.092 133.72L61.6111 134.029C61.8408 135.873 62.2449 137.737 62.8324 139.614L65.2183 138.868L67.6043 138.121C67.1036 136.521 66.7645 134.95 66.5728 133.411L64.092 133.72ZM65.2183 138.868L62.8324 139.614C63.3755 141.35 64.0034 142.994 64.7107 144.548L66.9861 143.512L69.2615 142.477C68.643 141.118 68.0881 139.667 67.6043 138.121L65.2183 138.868ZM72.3392 151.834L70.4707 153.494C72.9265 156.257 75.74 158.483 78.8073 160.196L80.0262 158.013L81.2452 155.83C78.6566 154.385 76.2846 152.509 74.2078 150.173L72.3392 151.834ZM89.3073 161.402L88.8132 163.853C92.2206 164.54 95.7568 164.758 99.3248 164.547L99.177 162.051L99.0292 159.556C95.8564 159.743 92.7538 159.547 89.8015 158.952L89.3073 161.402ZM108.942 160.376L109.621 162.782C112.906 161.855 116.154 160.589 119.293 159.008L118.169 156.775L117.044 154.542C114.183 155.983 111.233 157.132 108.263 157.97L108.942 160.376ZM126.574 151.529L128.085 153.52C130.812 151.451 133.385 149.113 135.739 146.524L133.889 144.842L132.039 143.16C129.896 145.517 127.552 147.648 125.063 149.537L126.574 151.529ZM139.831 136.916L141.966 138.218C143.743 135.303 145.265 132.177 146.479 128.858L144.131 127.999L141.783 127.141C140.685 130.143 139.307 132.973 137.696 135.615L139.831 136.916ZM146.598 118.412L149.068 118.796C149.583 115.48 149.802 112.026 149.687 108.448L147.189 108.528L144.69 108.608C144.795 111.879 144.594 115.022 144.127 118.029L146.598 118.412ZM146.029 98.6799L148.48 98.1863C148.147 96.5325 147.744 94.8583 147.269 93.1649L144.862 93.8405L142.455 94.516C142.897 96.0914 143.27 97.6442 143.578 99.1735L146.029 98.6799ZM144.862 93.8405L147.269 93.1649C146.851 91.6772 146.458 90.1615 146.095 88.6227L143.662 89.1976L141.229 89.7725C141.609 91.3801 142.019 92.9629 142.455 94.516L144.862 93.8405ZM141.857 79.7624L144.331 79.4019C143.884 76.3326 143.572 73.2174 143.423 70.0895L140.926 70.2082L138.429 70.327C138.586 73.628 138.914 76.9049 139.383 80.1229L141.857 79.7624ZM140.995 60.6082L143.49 60.7701C143.691 57.672 144.08 54.5982 144.682 51.5797L142.23 51.0906L139.778 50.6016C139.13 53.8532 138.715 57.1466 138.5 60.4463L140.995 60.6082ZM144.811 41.8505L147.158 42.7114C148.207 39.8522 149.492 37.0782 151.038 34.4184L148.877 33.1616L146.716 31.9048C145.014 34.8312 143.607 37.8718 142.464 40.9896L144.811 41.8505ZM154.439 25.3587L156.331 26.9927C158.265 24.753 160.453 22.6292 162.918 20.6466L161.351 18.6986L159.784 16.7506C157.084 18.9218 154.679 21.2556 152.547 23.7247L154.439 25.3587ZM169.293 13.3309L170.525 15.5065C173.081 14.0596 175.859 12.7296 178.875 11.5342L177.954 9.21008L177.033 6.88597C173.813 8.16204 170.827 9.58998 168.062 11.1552L169.293 13.3309ZM187.083 6.19866L187.734 8.61219C190.601 7.83805 193.64 7.16711 196.861 6.6095L196.435 4.14614L196.008 1.68278C192.644 2.26518 189.454 2.96866 186.431 3.78513L187.083 6.19866ZM205.949 2.88059L206.187 5.3692C207.732 5.22122 209.312 5.09632 210.928 4.99531L210.772 2.50018L210.616 0.00504953C208.946 0.109405 207.311 0.23861 205.71 0.39199L205.949 2.88059Z" fill="black"/>
</svg>
