<svg width="527" height="102" viewBox="0 0 527 102" fill="none" xmlns="http://www.w3.org/2000/svg">
<path d="M5 2.5C5 1.11929 3.88071 0 2.5 0C1.11929 0 0 1.11929 0 2.5H2.5H5ZM510.268 0.732233C509.291 -0.244078 507.709 -0.244078 506.732 0.732233L490.822 16.6421C489.846 17.6184 489.846 19.2014 490.822 20.1777C491.799 21.154 493.382 21.154 494.358 20.1777L508.5 6.03553L522.642 20.1777C523.618 21.154 525.201 21.154 526.178 20.1777C527.154 19.2014 527.154 17.6184 526.178 16.6421L510.268 0.732233ZM0 8.375C0 9.75571 1.11929 10.875 2.5 10.875C3.88071 10.875 5 9.75571 5 8.375H2.5H0ZM5 20.125C5 18.7443 3.88071 17.625 2.5 17.625C1.11929 17.625 0 18.7443 0 20.125H2.5H5ZM0 31.875C0 33.2557 1.11929 34.375 2.5 34.375C3.88071 34.375 5 33.2557 5 31.875H2.5H0ZM5 43.625C5 42.2443 3.88071 41.125 2.5 41.125C1.11929 41.125 0 42.2443 0 43.625H2.5H5ZM0.249072 54.6449C0.382813 56.0191 1.60526 57.0247 2.97947 56.891C4.35369 56.7573 5.3593 55.5348 5.22556 54.1606L2.73732 54.4028L0.249072 54.6449ZM7.03326 63.2943C6.63292 61.9729 5.23717 61.2262 3.91577 61.6266C2.59438 62.0269 1.84772 63.4226 2.24806 64.744L4.64066 64.0192L7.03326 63.2943ZM6.19127 74.2544C6.84318 75.4715 8.35832 75.9297 9.57544 75.2778C10.7926 74.6259 11.2508 73.1108 10.5988 71.8936L8.39505 73.074L6.19127 74.2544ZM15.7796 79.6331C14.9031 78.5663 13.3277 78.412 12.2609 79.2885C11.1941 80.165 11.0398 81.7404 11.9164 82.8072L13.848 81.2202L15.7796 79.6331ZM19.1928 90.0836C20.2596 90.9602 21.835 90.8059 22.7115 89.7391C23.588 88.6723 23.4337 87.0969 22.3669 86.2204L20.7799 88.152L19.1928 90.0836ZM30.1064 91.4012C28.8893 90.7493 27.3741 91.2074 26.7222 92.4246C26.0703 93.6417 26.5285 95.1568 27.7456 95.8087L28.926 93.6049L30.1064 91.4012ZM37.256 99.7519C38.5774 100.152 39.9731 99.4056 40.3735 98.0842C40.7738 96.7628 40.0271 95.3671 38.7057 94.9667L37.9809 97.3593L37.256 99.7519ZM47.8394 96.7744C46.4652 96.6407 45.2428 97.6463 45.109 99.0205C44.9753 100.395 45.9809 101.617 47.3551 101.751L47.5973 99.2627L47.8394 96.7744ZM57.575 102C58.9557 102 60.075 100.881 60.075 99.5C60.075 98.1193 58.9557 97 57.575 97V99.5V102ZM67.725 97C66.3443 97 65.225 98.1193 65.225 99.5C65.225 100.881 66.3443 102 67.725 102V99.5V97ZM77.875 102C79.2557 102 80.375 100.881 80.375 99.5C80.375 98.1193 79.2557 97 77.875 97V99.5V102ZM88.025 97C86.6443 97 85.525 98.1193 85.525 99.5C85.525 100.881 86.6443 102 88.025 102V99.5V97ZM98.175 102C99.5557 102 100.675 100.881 100.675 99.5C100.675 98.1193 99.5557 97 98.175 97V99.5V102ZM108.325 97C106.944 97 105.825 98.1193 105.825 99.5C105.825 100.881 106.944 102 108.325 102V99.5V97ZM118.475 102C119.856 102 120.975 100.881 120.975 99.5C120.975 98.1193 119.856 97 118.475 97V99.5V102ZM128.625 97C127.244 97 126.125 98.1193 126.125 99.5C126.125 100.881 127.244 102 128.625 102V99.5V97ZM138.775 102C140.156 102 141.275 100.881 141.275 99.5C141.275 98.1193 140.156 97 138.775 97V99.5V102ZM148.925 97C147.544 97 146.425 98.1193 146.425 99.5C146.425 100.881 147.544 102 148.925 102V99.5V97ZM159.075 102C160.456 102 161.575 100.881 161.575 99.5C161.575 98.1193 160.456 97 159.075 97V99.5V102ZM169.225 97C167.844 97 166.725 98.1193 166.725 99.5C166.725 100.881 167.844 102 169.225 102V99.5V97ZM179.375 102C180.756 102 181.875 100.881 181.875 99.5C181.875 98.1193 180.756 97 179.375 97V99.5V102ZM189.525 97C188.144 97 187.025 98.1193 187.025 99.5C187.025 100.881 188.144 102 189.525 102V99.5V97ZM199.675 102C201.056 102 202.175 100.881 202.175 99.5C202.175 98.1193 201.056 97 199.675 97V99.5V102ZM209.825 97C208.444 97 207.325 98.1193 207.325 99.5C207.325 100.881 208.444 102 209.825 102V99.5V97ZM219.975 102C221.356 102 222.475 100.881 222.475 99.5C222.475 98.1193 221.356 97 219.975 97V99.5V102ZM230.125 97C228.744 97 227.625 98.1193 227.625 99.5C227.625 100.881 228.744 102 230.125 102V99.5V97ZM240.275 102C241.656 102 242.775 100.881 242.775 99.5C242.775 98.1193 241.656 97 240.275 97V99.5V102ZM250.425 97C249.044 97 247.925 98.1193 247.925 99.5C247.925 100.881 249.044 102 250.425 102V99.5V97ZM260.575 102C261.956 102 263.075 100.881 263.075 99.5C263.075 98.1193 261.956 97 260.575 97V99.5V102ZM270.725 97C269.344 97 268.225 98.1193 268.225 99.5C268.225 100.881 269.344 102 270.725 102V99.5V97ZM280.875 102C282.256 102 283.375 100.881 283.375 99.5C283.375 98.1193 282.256 97 280.875 97V99.5V102ZM291.025 97C289.644 97 288.525 98.1193 288.525 99.5C288.525 100.881 289.644 102 291.025 102V99.5V97ZM301.175 102C302.556 102 303.675 100.881 303.675 99.5C303.675 98.1193 302.556 97 301.175 97V99.5V102ZM311.325 97C309.944 97 308.825 98.1193 308.825 99.5C308.825 100.881 309.944 102 311.325 102V99.5V97ZM321.475 102C322.856 102 323.975 100.881 323.975 99.5C323.975 98.1193 322.856 97 321.475 97V99.5V102ZM331.625 97C330.244 97 329.125 98.1193 329.125 99.5C329.125 100.881 330.244 102 331.625 102V99.5V97ZM341.775 102C343.156 102 344.275 100.881 344.275 99.5C344.275 98.1193 343.156 97 341.775 97V99.5V102ZM351.925 97C350.544 97 349.425 98.1193 349.425 99.5C349.425 100.881 350.544 102 351.925 102V99.5V97ZM362.075 102C363.456 102 364.575 100.881 364.575 99.5C364.575 98.1193 363.456 97 362.075 97V99.5V102ZM372.225 97C370.844 97 369.725 98.1193 369.725 99.5C369.725 100.881 370.844 102 372.225 102V99.5V97ZM382.375 102C383.756 102 384.875 100.881 384.875 99.5C384.875 98.1193 383.756 97 382.375 97V99.5V102ZM392.525 97C391.144 97 390.025 98.1193 390.025 99.5C390.025 100.881 391.144 102 392.525 102V99.5V97ZM402.675 102C404.056 102 405.175 100.881 405.175 99.5C405.175 98.1193 404.056 97 402.675 97V99.5V102ZM412.825 97C411.444 97 410.325 98.1193 410.325 99.5C410.325 100.881 411.444 102 412.825 102V99.5V97ZM422.975 102C424.356 102 425.475 100.881 425.475 99.5C425.475 98.1193 424.356 97 422.975 97V99.5V102ZM433.125 97C431.744 97 430.625 98.1193 430.625 99.5C430.625 100.881 431.744 102 433.125 102V99.5V97ZM443.275 102C444.656 102 445.775 100.881 445.775 99.5C445.775 98.1193 444.656 97 443.275 97V99.5V102ZM453.425 97C452.044 97 450.925 98.1193 450.925 99.5C450.925 100.881 452.044 102 453.425 102V99.5V97ZM463.645 101.751C465.019 101.617 466.025 100.395 465.891 99.0205C465.757 97.6463 464.535 96.6407 463.161 96.7744L463.403 99.2627L463.645 101.751ZM472.294 94.9667C470.973 95.3671 470.226 96.7628 470.627 98.0842C471.027 99.4056 472.423 100.152 473.744 99.7519L473.019 97.3593L472.294 94.9667ZM483.254 95.8087C484.472 95.1568 484.93 93.6417 484.278 92.4246C483.626 91.2074 482.111 90.7492 480.894 91.4012L482.074 93.6049L483.254 95.8087ZM488.633 86.2204C487.566 87.0969 487.412 88.6723 488.289 89.7391C489.165 90.8059 490.74 90.9602 491.807 90.0836L490.22 88.152L488.633 86.2204ZM499.084 82.8072C499.96 81.7404 499.806 80.165 498.739 79.2885C497.672 78.412 496.097 78.5663 495.22 79.6331L497.152 81.2202L499.084 82.8072ZM500.401 71.8936C499.749 73.1108 500.207 74.6259 501.425 75.2778C502.642 75.9297 504.157 75.4715 504.809 74.2544L502.605 73.074L500.401 71.8936ZM508.752 64.7441C509.152 63.4227 508.406 62.0269 507.084 61.6266C505.763 61.2262 504.367 61.9729 503.967 63.2943L506.359 64.0192L508.752 64.7441ZM505.774 54.1606C505.641 55.5348 506.646 56.7573 508.021 56.891C509.395 57.0247 510.617 56.0191 510.751 54.6449L508.263 54.4028L505.774 54.1606ZM511 43.625C511 42.2443 509.881 41.125 508.5 41.125C507.119 41.125 506 42.2443 506 43.625H508.5H511ZM506 31.875C506 33.2557 507.119 34.375 508.5 34.375C509.881 34.375 511 33.2557 511 31.875H508.5H506ZM511 20.125C511 18.7443 509.881 17.625 508.5 17.625C507.119 17.625 506 18.7443 506 20.125H508.5H511ZM506 8.375C506 9.75571 507.119 10.875 508.5 10.875C509.881 10.875 511 9.75571 511 8.375H508.5H506ZM2.5 2.5H0V8.375H2.5H5V2.5H2.5ZM2.5 20.125H0V31.875H2.5H5V20.125H2.5ZM2.5 43.625H0V49.5H2.5H5V43.625H2.5ZM2.5 49.5H0C0 51.2352 0.0842704 52.9515 0.249072 54.6449L2.73732 54.4028L5.22556 54.1606C5.0764 52.6279 5 51.0733 5 49.5H2.5ZM4.64066 64.0192L2.24806 64.744C3.25443 68.0657 4.58088 71.2478 6.19127 74.2544L8.39505 73.074L10.5988 71.8936C9.14225 69.1742 7.94299 66.2969 7.03326 63.2943L4.64066 64.0192ZM13.848 81.2202L11.9164 82.8072C14.0987 85.4633 16.5367 87.9013 19.1928 90.0836L20.7799 88.152L22.3669 86.2204C19.9624 84.2448 17.7552 82.0376 15.7796 79.6331L13.848 81.2202ZM28.926 93.6049L27.7456 95.8087C30.7522 97.4191 33.9343 98.7456 37.256 99.7519L37.9809 97.3593L38.7057 94.9667C35.7031 94.057 32.8258 92.8577 30.1064 91.4012L28.926 93.6049ZM47.5973 99.2627L47.3551 101.751C49.0485 101.916 50.7648 102 52.5 102V99.5V97C50.9268 97 49.3721 96.9236 47.8394 96.7744L47.5973 99.2627ZM52.5 99.5V102H57.575V99.5V97H52.5V99.5ZM67.725 99.5V102H77.875V99.5V97H67.725V99.5ZM88.025 99.5V102H98.175V99.5V97H88.025V99.5ZM108.325 99.5V102H118.475V99.5V97H108.325V99.5ZM128.625 99.5V102H138.775V99.5V97H128.625V99.5ZM148.925 99.5V102H159.075V99.5V97H148.925V99.5ZM169.225 99.5V102H179.375V99.5V97H169.225V99.5ZM189.525 99.5V102H199.675V99.5V97H189.525V99.5ZM209.825 99.5V102H219.975V99.5V97H209.825V99.5ZM230.125 99.5V102H240.275V99.5V97H230.125V99.5ZM250.425 99.5V102H260.575V99.5V97H250.425V99.5ZM270.725 99.5V102H280.875V99.5V97H270.725V99.5ZM291.025 99.5V102H301.175V99.5V97H291.025V99.5ZM311.325 99.5V102H321.475V99.5V97H311.325V99.5ZM331.625 99.5V102H341.775V99.5V97H331.625V99.5ZM351.925 99.5V102H362.075V99.5V97H351.925V99.5ZM372.225 99.5V102H382.375V99.5V97H372.225V99.5ZM392.525 99.5V102H402.675V99.5V97H392.525V99.5ZM412.825 99.5V102H422.975V99.5V97H412.825V99.5ZM433.125 99.5V102H443.275V99.5V97H433.125V99.5ZM453.425 99.5V102H458.5V99.5V97H453.425V99.5ZM458.5 99.5V102C460.235 102 461.952 101.916 463.645 101.751L463.403 99.2627L463.161 96.7744C461.628 96.9236 460.073 97 458.5 97V99.5ZM473.019 97.3593L473.744 99.7519C477.066 98.7456 480.248 97.4191 483.254 95.8087L482.074 93.6049L480.894 91.4012C478.174 92.8577 475.297 94.057 472.294 94.9667L473.019 97.3593ZM490.22 88.152L491.807 90.0836C494.463 87.9013 496.901 85.4633 499.084 82.8072L497.152 81.2202L495.22 79.6331C493.245 82.0376 491.038 84.2448 488.633 86.2204L490.22 88.152ZM502.605 73.074L504.809 74.2544C506.419 71.2478 507.746 68.0657 508.752 64.7441L506.359 64.0192L503.967 63.2943C503.057 66.2969 501.858 69.1742 500.401 71.8936L502.605 73.074ZM508.263 54.4028L510.751 54.6449C510.916 52.9515 511 51.2352 511 49.5H508.5H506C506 51.0733 505.924 52.6279 505.774 54.1606L508.263 54.4028ZM508.5 49.5H511V43.625H508.5H506V49.5H508.5ZM508.5 31.875H511V20.125H508.5H506V31.875H508.5ZM508.5 8.375H511V2.5H508.5H506V8.375H508.5ZM5 2.5C5 1.11929 3.88071 0 2.5 0C1.11929 0 0 1.11929 0 2.5H2.5H5ZM510.268 0.732233C509.291 -0.244078 507.709 -0.244078 506.732 0.732233L490.822 16.6421C489.846 17.6184 489.846 19.2014 490.822 20.1777C491.799 21.154 493.382 21.154 494.358 20.1777L508.5 6.03553L522.642 20.1777C523.618 21.154 525.201 21.154 526.178 20.1777C527.154 19.2014 527.154 17.6184 526.178 16.6421L510.268 0.732233ZM0 8.375C0 9.75571 1.11929 10.875 2.5 10.875C3.88071 10.875 5 9.75571 5 8.375H2.5H0ZM5 20.125C5 18.7443 3.88071 17.625 2.5 17.625C1.11929 17.625 0 18.7443 0 20.125H2.5H5ZM0 31.875C0 33.2557 1.11929 34.375 2.5 34.375C3.88071 34.375 5 33.2557 5 31.875H2.5H0ZM5 43.625C5 42.2443 3.88071 41.125 2.5 41.125C1.11929 41.125 0 42.2443 0 43.625H2.5H5ZM0.249072 54.6449C0.382813 56.0191 1.60526 57.0247 2.97947 56.891C4.35369 56.7573 5.3593 55.5348 5.22556 54.1606L2.73732 54.4028L0.249072 54.6449ZM7.03326 63.2943C6.63292 61.9729 5.23717 61.2262 3.91577 61.6266C2.59438 62.0269 1.84772 63.4226 2.24806 64.744L4.64066 64.0192L7.03326 63.2943ZM6.19127 74.2544C6.84318 75.4715 8.35832 75.9297 9.57544 75.2778C10.7926 74.6259 11.2508 73.1108 10.5988 71.8936L8.39505 73.074L6.19127 74.2544ZM15.7796 79.6331C14.9031 78.5663 13.3277 78.412 12.2609 79.2885C11.1941 80.165 11.0398 81.7404 11.9164 82.8072L13.848 81.2202L15.7796 79.6331ZM19.1928 90.0836C20.2596 90.9602 21.835 90.8059 22.7115 89.7391C23.588 88.6723 23.4337 87.0969 22.3669 86.2204L20.7799 88.152L19.1928 90.0836ZM30.1064 91.4012C28.8893 90.7493 27.3741 91.2074 26.7222 92.4246C26.0703 93.6417 26.5285 95.1568 27.7456 95.8087L28.926 93.6049L30.1064 91.4012ZM37.256 99.7519C38.5774 100.152 39.9731 99.4056 40.3735 98.0842C40.7738 96.7628 40.0271 95.3671 38.7057 94.9667L37.9809 97.3593L37.256 99.7519ZM47.8394 96.7744C46.4652 96.6407 45.2428 97.6463 45.109 99.0205C44.9753 100.395 45.9809 101.617 47.3551 101.751L47.5973 99.2627L47.8394 96.7744ZM57.575 102C58.9557 102 60.075 100.881 60.075 99.5C60.075 98.1193 58.9557 97 57.575 97V99.5V102ZM67.725 97C66.3443 97 65.225 98.1193 65.225 99.5C65.225 100.881 66.3443 102 67.725 102V99.5V97ZM77.875 102C79.2557 102 80.375 100.881 80.375 99.5C80.375 98.1193 79.2557 97 77.875 97V99.5V102ZM88.025 97C86.6443 97 85.525 98.1193 85.525 99.5C85.525 100.881 86.6443 102 88.025 102V99.5V97ZM98.175 102C99.5557 102 100.675 100.881 100.675 99.5C100.675 98.1193 99.5557 97 98.175 97V99.5V102ZM108.325 97C106.944 97 105.825 98.1193 105.825 99.5C105.825 100.881 106.944 102 108.325 102V99.5V97ZM118.475 102C119.856 102 120.975 100.881 120.975 99.5C120.975 98.1193 119.856 97 118.475 97V99.5V102ZM128.625 97C127.244 97 126.125 98.1193 126.125 99.5C126.125 100.881 127.244 102 128.625 102V99.5V97ZM138.775 102C140.156 102 141.275 100.881 141.275 99.5C141.275 98.1193 140.156 97 138.775 97V99.5V102ZM148.925 97C147.544 97 146.425 98.1193 146.425 99.5C146.425 100.881 147.544 102 148.925 102V99.5V97ZM159.075 102C160.456 102 161.575 100.881 161.575 99.5C161.575 98.1193 160.456 97 159.075 97V99.5V102ZM169.225 97C167.844 97 166.725 98.1193 166.725 99.5C166.725 100.881 167.844 102 169.225 102V99.5V97ZM179.375 102C180.756 102 181.875 100.881 181.875 99.5C181.875 98.1193 180.756 97 179.375 97V99.5V102ZM189.525 97C188.144 97 187.025 98.1193 187.025 99.5C187.025 100.881 188.144 102 189.525 102V99.5V97ZM199.675 102C201.056 102 202.175 100.881 202.175 99.5C202.175 98.1193 201.056 97 199.675 97V99.5V102ZM209.825 97C208.444 97 207.325 98.1193 207.325 99.5C207.325 100.881 208.444 102 209.825 102V99.5V97ZM219.975 102C221.356 102 222.475 100.881 222.475 99.5C222.475 98.1193 221.356 97 219.975 97V99.5V102ZM230.125 97C228.744 97 227.625 98.1193 227.625 99.5C227.625 100.881 228.744 102 230.125 102V99.5V97ZM240.275 102C241.656 102 242.775 100.881 242.775 99.5C242.775 98.1193 241.656 97 240.275 97V99.5V102ZM250.425 97C249.044 97 247.925 98.1193 247.925 99.5C247.925 100.881 249.044 102 250.425 102V99.5V97ZM260.575 102C261.956 102 263.075 100.881 263.075 99.5C263.075 98.1193 261.956 97 260.575 97V99.5V102ZM270.725 97C269.344 97 268.225 98.1193 268.225 99.5C268.225 100.881 269.344 102 270.725 102V99.5V97ZM280.875 102C282.256 102 283.375 100.881 283.375 99.5C283.375 98.1193 282.256 97 280.875 97V99.5V102ZM291.025 97C289.644 97 288.525 98.1193 288.525 99.5C288.525 100.881 289.644 102 291.025 102V99.5V97ZM301.175 102C302.556 102 303.675 100.881 303.675 99.5C303.675 98.1193 302.556 97 301.175 97V99.5V102ZM311.325 97C309.944 97 308.825 98.1193 308.825 99.5C308.825 100.881 309.944 102 311.325 102V99.5V97ZM321.475 102C322.856 102 323.975 100.881 323.975 99.5C323.975 98.1193 322.856 97 321.475 97V99.5V102ZM331.625 97C330.244 97 329.125 98.1193 329.125 99.5C329.125 100.881 330.244 102 331.625 102V99.5V97ZM341.775 102C343.156 102 344.275 100.881 344.275 99.5C344.275 98.1193 343.156 97 341.775 97V99.5V102ZM351.925 97C350.544 97 349.425 98.1193 349.425 99.5C349.425 100.881 350.544 102 351.925 102V99.5V97ZM362.075 102C363.456 102 364.575 100.881 364.575 99.5C364.575 98.1193 363.456 97 362.075 97V99.5V102ZM372.225 97C370.844 97 369.725 98.1193 369.725 99.5C369.725 100.881 370.844 102 372.225 102V99.5V97ZM382.375 102C383.756 102 384.875 100.881 384.875 99.5C384.875 98.1193 383.756 97 382.375 97V99.5V102ZM392.525 97C391.144 97 390.025 98.1193 390.025 99.5C390.025 100.881 391.144 102 392.525 102V99.5V97ZM402.675 102C404.056 102 405.175 100.881 405.175 99.5C405.175 98.1193 404.056 97 402.675 97V99.5V102ZM412.825 97C411.444 97 410.325 98.1193 410.325 99.5C410.325 100.881 411.444 102 412.825 102V99.5V97ZM422.975 102C424.356 102 425.475 100.881 425.475 99.5C425.475 98.1193 424.356 97 422.975 97V99.5V102ZM433.125 97C431.744 97 430.625 98.1193 430.625 99.5C430.625 100.881 431.744 102 433.125 102V99.5V97ZM443.275 102C444.656 102 445.775 100.881 445.775 99.5C445.775 98.1193 444.656 97 443.275 97V99.5V102ZM453.425 97C452.044 97 450.925 98.1193 450.925 99.5C450.925 100.881 452.044 102 453.425 102V99.5V97ZM463.645 101.751C465.019 101.617 466.025 100.395 465.891 99.0205C465.757 97.6463 464.535 96.6407 463.161 96.7744L463.403 99.2627L463.645 101.751ZM472.294 94.9667C470.973 95.3671 470.226 96.7628 470.627 98.0842C471.027 99.4056 472.423 100.152 473.744 99.7519L473.019 97.3593L472.294 94.9667ZM483.254 95.8087C484.472 95.1568 484.93 93.6417 484.278 92.4246C483.626 91.2074 482.111 90.7492 480.894 91.4012L482.074 93.6049L483.254 95.8087ZM488.633 86.2204C487.566 87.0969 487.412 88.6723 488.289 89.7391C489.165 90.8059 490.74 90.9602 491.807 90.0836L490.22 88.152L488.633 86.2204ZM499.084 82.8072C499.96 81.7404 499.806 80.165 498.739 79.2885C497.672 78.412 496.097 78.5663 495.22 79.6331L497.152 81.2202L499.084 82.8072ZM500.401 71.8936C499.749 73.1108 500.207 74.6259 501.425 75.2778C502.642 75.9297 504.157 75.4715 504.809 74.2544L502.605 73.074L500.401 71.8936ZM508.752 64.7441C509.152 63.4227 508.406 62.0269 507.084 61.6266C505.763 61.2262 504.367 61.9729 503.967 63.2943L506.359 64.0192L508.752 64.7441ZM505.774 54.1606C505.641 55.5348 506.646 56.7573 508.021 56.891C509.395 57.0247 510.617 56.0191 510.751 54.6449L508.263 54.4028L505.774 54.1606ZM511 43.625C511 42.2443 509.881 41.125 508.5 41.125C507.119 41.125 506 42.2443 506 43.625H508.5H511ZM506 31.875C506 33.2557 507.119 34.375 508.5 34.375C509.881 34.375 511 33.2557 511 31.875H508.5H506ZM511 20.125C511 18.7443 509.881 17.625 508.5 17.625C507.119 17.625 506 18.7443 506 20.125H508.5H511ZM506 8.375C506 9.75571 507.119 10.875 508.5 10.875C509.881 10.875 511 9.75571 511 8.375H508.5H506ZM2.5 2.5H0V8.375H2.5H5V2.5H2.5ZM2.5 20.125H0V31.875H2.5H5V20.125H2.5ZM2.5 43.625H0V49.5H2.5H5V43.625H2.5ZM2.5 49.5H0C0 51.2352 0.0842704 52.9515 0.249072 54.6449L2.73732 54.4028L5.22556 54.1606C5.0764 52.6279 5 51.0733 5 49.5H2.5ZM4.64066 64.0192L2.24806 64.744C3.25443 68.0657 4.58088 71.2478 6.19127 74.2544L8.39505 73.074L10.5988 71.8936C9.14225 69.1742 7.94299 66.2969 7.03326 63.2943L4.64066 64.0192ZM13.848 81.2202L11.9164 82.8072C14.0987 85.4633 16.5367 87.9013 19.1928 90.0836L20.7799 88.152L22.3669 86.2204C19.9624 84.2448 17.7552 82.0376 15.7796 79.6331L13.848 81.2202ZM28.926 93.6049L27.7456 95.8087C30.7522 97.4191 33.9343 98.7456 37.256 99.7519L37.9809 97.3593L38.7057 94.9667C35.7031 94.057 32.8258 92.8577 30.1064 91.4012L28.926 93.6049ZM47.5973 99.2627L47.3551 101.751C49.0485 101.916 50.7648 102 52.5 102V99.5V97C50.9268 97 49.3721 96.9236 47.8394 96.7744L47.5973 99.2627ZM52.5 99.5V102H57.575V99.5V97H52.5V99.5ZM67.725 99.5V102H77.875V99.5V97H67.725V99.5ZM88.025 99.5V102H98.175V99.5V97H88.025V99.5ZM108.325 99.5V102H118.475V99.5V97H108.325V99.5ZM128.625 99.5V102H138.775V99.5V97H128.625V99.5ZM148.925 99.5V102H159.075V99.5V97H148.925V99.5ZM169.225 99.5V102H179.375V99.5V97H169.225V99.5ZM189.525 99.5V102H199.675V99.5V97H189.525V99.5ZM209.825 99.5V102H219.975V99.5V97H209.825V99.5ZM230.125 99.5V102H240.275V99.5V97H230.125V99.5ZM250.425 99.5V102H260.575V99.5V97H250.425V99.5ZM270.725 99.5V102H280.875V99.5V97H270.725V99.5ZM291.025 99.5V102H301.175V99.5V97H291.025V99.5ZM311.325 99.5V102H321.475V99.5V97H311.325V99.5ZM331.625 99.5V102H341.775V99.5V97H331.625V99.5ZM351.925 99.5V102H362.075V99.5V97H351.925V99.5ZM372.225 99.5V102H382.375V99.5V97H372.225V99.5ZM392.525 99.5V102H402.675V99.5V97H392.525V99.5ZM412.825 99.5V102H422.975V99.5V97H412.825V99.5ZM433.125 99.5V102H443.275V99.5V97H433.125V99.5ZM453.425 99.5V102H458.5V99.5V97H453.425V99.5ZM458.5 99.5V102C460.235 102 461.952 101.916 463.645 101.751L463.403 99.2627L463.161 96.7744C461.628 96.9236 460.073 97 458.5 97V99.5ZM473.019 97.3593L473.744 99.7519C477.066 98.7456 480.248 97.4191 483.254 95.8087L482.074 93.6049L480.894 91.4012C478.174 92.8577 475.297 94.057 472.294 94.9667L473.019 97.3593ZM490.22 88.152L491.807 90.0836C494.463 87.9013 496.901 85.4633 499.084 82.8072L497.152 81.2202L495.22 79.6331C493.245 82.0376 491.038 84.2448 488.633 86.2204L490.22 88.152ZM502.605 73.074L504.809 74.2544C506.419 71.2478 507.746 68.0657 508.752 64.7441L506.359 64.0192L503.967 63.2943C503.057 66.2969 501.858 69.1742 500.401 71.8936L502.605 73.074ZM508.263 54.4028L510.751 54.6449C510.916 52.9515 511 51.2352 511 49.5H508.5H506C506 51.0733 505.924 52.6279 505.774 54.1606L508.263 54.4028ZM508.5 49.5H511V43.625H508.5H506V49.5H508.5ZM508.5 31.875H511V20.125H508.5H506V31.875H508.5ZM508.5 8.375H511V2.5H508.5H506V8.375H508.5Z" fill="#F0FEFF"/>
</svg>
