<svg width="38" height="38" viewBox="0 0 38 38" fill="none" xmlns="http://www.w3.org/2000/svg">
<path d="M19 33.25C20.8713 33.25 22.7243 32.8814 24.4532 32.1653C26.1821 31.4492 27.753 30.3995 29.0763 29.0763C30.3995 27.753 31.4492 26.1821 32.1653 24.4532C32.8814 22.7243 33.25 20.8713 33.25 19C33.25 17.1287 32.8814 15.2757 32.1653 13.5468C31.4492 11.8179 30.3995 10.247 29.0763 8.92373C27.753 7.60049 26.1821 6.55085 24.4532 5.83472C22.7243 5.11859 20.8713 4.75 19 4.75M19 33.25C17.1287 33.25 15.2757 32.8814 13.5468 32.1653C11.8179 31.4492 10.247 30.3995 8.92373 29.0763C7.60049 27.753 6.55085 26.1821 5.83472 24.4532C5.11859 22.7243 4.75 20.8713 4.75 19C4.75 17.1287 5.11859 15.2757 5.83472 13.5468C6.55085 11.8179 7.60049 10.247 8.92373 8.92373C10.247 7.60049 11.8179 6.55085 13.5468 5.83472C15.2757 5.11859 17.1287 4.75 19 4.75M19 33.25C23.3716 33.25 25.2399 25.0753 25.2399 19C25.2399 12.9248 23.3716 4.75 19 4.75M19 33.25C14.6284 33.25 12.7601 25.0753 12.7601 19C12.7601 12.9248 14.6284 4.75 19 4.75M5.54167 14.25H32.4583M5.54167 23.75H32.4583" stroke="#3E45FB" stroke-width="3" stroke-linecap="round" stroke-linejoin="round"/>
</svg>
