<svg width="60" height="60" viewBox="0 0 60 60" fill="none" xmlns="http://www.w3.org/2000/svg">
<path d="M30.0025 22.5C28.0134 22.5 26.1057 23.2902 24.6992 24.6967C23.2927 26.1032 22.5025 28.0109 22.5025 30C22.5025 31.9891 23.2927 33.8968 24.6992 35.3033C26.1057 36.7098 28.0134 37.5 30.0025 37.5C31.9916 37.5 33.8993 36.7098 35.3058 35.3033C36.7123 33.8968 37.5025 31.9891 37.5025 30C37.5025 28.0109 36.7123 26.1032 35.3058 24.6967C33.8993 23.2902 31.9916 22.5 30.0025 22.5ZM30.0025 17.5C33.3177 17.5 36.4971 18.817 38.8413 21.1612C41.1855 23.5054 42.5025 26.6848 42.5025 30C42.5025 33.3152 41.1855 36.4946 38.8413 38.8388C36.4971 41.183 33.3177 42.5 30.0025 42.5C26.6873 42.5 23.5079 41.183 21.1637 38.8388C18.8195 36.4946 17.5025 33.3152 17.5025 30C17.5025 26.6848 18.8195 23.5054 21.1637 21.1612C23.5079 18.817 26.6873 17.5 30.0025 17.5ZM46.2525 16.875C46.2525 17.7038 45.9233 18.4987 45.3372 19.0847C44.7512 19.6708 43.9563 20 43.1275 20C42.2987 20 41.5038 19.6708 40.9178 19.0847C40.3317 18.4987 40.0025 17.7038 40.0025 16.875C40.0025 16.0462 40.3317 15.2513 40.9178 14.6653C41.5038 14.0792 42.2987 13.75 43.1275 13.75C43.9563 13.75 44.7512 14.0792 45.3372 14.6653C45.9233 15.2513 46.2525 16.0462 46.2525 16.875ZM30.0025 10C23.8175 10 22.8075 10.0175 19.93 10.145C17.97 10.2375 16.655 10.5 15.435 10.975C14.4146 11.3509 13.4918 11.9516 12.735 12.7325C11.9532 13.489 11.3517 14.4118 10.975 15.4325C10.5 16.6575 10.2375 17.97 10.1475 19.9275C10.0175 22.6875 10 23.6525 10 30C10 36.1875 10.0175 37.195 10.145 40.0725C10.2375 42.03 10.5 43.3475 10.9725 44.565C11.3975 45.6525 11.8975 46.435 12.7275 47.265C13.57 48.105 14.3525 48.6075 15.4275 49.0225C16.6625 49.5 17.9775 49.765 19.9275 49.855C22.6875 49.985 23.6525 50 30 50C36.1875 50 37.195 49.9825 40.0725 49.855C42.0275 49.7625 43.3425 49.5 44.565 49.0275C45.5854 48.6516 46.5082 48.0509 47.265 47.27C48.1075 46.43 48.61 45.6475 49.025 44.57C49.5 43.34 49.765 42.025 49.855 40.07C49.985 37.3125 50 36.345 50 30C50 23.815 49.9825 22.805 49.855 19.9275C49.7625 17.9725 49.4975 16.6525 49.025 15.4325C48.6491 14.4121 48.0484 13.4893 47.2675 12.7325C46.511 11.9507 45.5882 11.3492 44.5675 10.9725C43.3425 10.4975 42.0275 10.235 40.0725 10.145C37.315 10.015 36.35 10 30 10M30 5C36.7925 5 37.64 5.025 40.3075 5.15C42.9675 5.275 44.7825 5.6925 46.375 6.3125C48.025 6.9475 49.415 7.8075 50.805 9.195C52.0767 10.4443 53.0605 11.9562 53.6875 13.625C54.305 15.2175 54.725 17.0325 54.85 19.695C54.9675 22.36 55 23.2075 55 30C55 36.7925 54.975 37.64 54.85 40.305C54.725 42.97 54.305 44.78 53.6875 46.375C53.0605 48.0438 52.0767 49.5557 50.805 50.805C49.5557 52.0767 48.0438 53.0605 46.375 53.6875C44.7825 54.305 42.9675 54.725 40.3075 54.85C37.64 54.9675 36.7925 55 30 55C23.2075 55 22.36 54.975 19.6925 54.85C17.0325 54.725 15.22 54.305 13.625 53.6875C11.9562 53.0605 10.4443 52.0767 9.195 50.805C7.92327 49.5557 6.93954 48.0438 6.3125 46.375C5.6925 44.7825 5.275 42.9675 5.15 40.305C5.03 37.64 5 36.7925 5 30C5 23.2075 5.025 22.36 5.15 19.695C5.275 17.03 5.6925 15.22 6.3125 13.625C6.93954 11.9562 7.92327 10.4443 9.195 9.195C10.4443 7.92327 11.9562 6.93954 13.625 6.3125C15.2175 5.6925 17.03 5.275 19.6925 5.15C22.3625 5.0325 23.21 5 30.0025 5" fill="white"/>
</svg>
