<svg width="38" height="38" viewBox="0 0 38 38" fill="none" xmlns="http://www.w3.org/2000/svg">
<path d="M19.0029 14.2498C17.7431 14.2498 16.5349 14.7503 15.6441 15.6411C14.7533 16.5319 14.2529 17.7401 14.2529 18.9998C14.2529 20.2596 14.7533 21.4678 15.6441 22.3586C16.5349 23.2494 17.7431 23.7498 19.0029 23.7498C20.2627 23.7498 21.4708 23.2494 22.3616 22.3586C23.2524 21.4678 23.7529 20.2596 23.7529 18.9998C23.7529 17.7401 23.2524 16.5319 22.3616 15.6411C21.4708 14.7503 20.2627 14.2498 19.0029 14.2498ZM19.0029 11.0832C21.1025 11.0832 23.1161 11.9172 24.6008 13.4019C26.0855 14.8866 26.9195 16.9002 26.9195 18.9998C26.9195 21.0995 26.0855 23.1131 24.6008 24.5978C23.1161 26.0824 21.1025 26.9165 19.0029 26.9165C16.9033 26.9165 14.8896 26.0824 13.405 24.5978C11.9203 23.1131 11.0862 21.0995 11.0862 18.9998C11.0862 16.9002 11.9203 14.8866 13.405 13.4019C14.8896 11.9172 16.9033 11.0832 19.0029 11.0832ZM29.2945 10.6873C29.2945 11.2122 29.086 11.7157 28.7149 12.0868C28.3437 12.458 27.8403 12.6665 27.3154 12.6665C26.7905 12.6665 26.2871 12.458 25.9159 12.0868C25.5447 11.7157 25.3362 11.2122 25.3362 10.6873C25.3362 10.1624 25.5447 9.65902 25.9159 9.28785C26.2871 8.91669 26.7905 8.70817 27.3154 8.70817C27.8403 8.70817 28.3437 8.91669 28.7149 9.28785C29.086 9.65902 29.2945 10.1624 29.2945 10.6873ZM19.0029 6.33317C15.0857 6.33317 14.4461 6.34425 12.6236 6.425C11.3823 6.48359 10.5495 6.64984 9.7768 6.95067C9.13054 7.18876 8.54611 7.56918 8.0668 8.06375C7.57165 8.5429 7.19068 9.12734 6.95214 9.77375C6.6513 10.5496 6.48505 11.3808 6.42805 12.6206C6.34572 14.3686 6.33464 14.9798 6.33464 18.9998C6.33464 22.9186 6.34572 23.5567 6.42647 25.3791C6.48505 26.6188 6.6513 27.4533 6.95055 28.2243C7.21972 28.9131 7.53639 29.4087 8.06205 29.9343C8.59564 30.4663 9.09122 30.7846 9.77205 31.0474C10.5542 31.3498 11.3871 31.5177 12.6221 31.5747C14.3701 31.657 14.9812 31.6665 19.0013 31.6665C22.9201 31.6665 23.5581 31.6554 25.3806 31.5747C26.6187 31.5161 27.4516 31.3498 28.2258 31.0506C28.8721 30.8125 29.4565 30.4321 29.9358 29.9375C30.4694 29.4055 30.7876 28.9099 31.0505 28.2275C31.3513 27.4485 31.5191 26.6157 31.5761 25.3775C31.6585 23.6311 31.668 23.0183 31.668 18.9998C31.668 15.0827 31.6569 14.443 31.5761 12.6206C31.5175 11.3824 31.3497 10.5464 31.0505 9.77375C30.8124 9.12749 30.432 8.54306 29.9374 8.06375C29.4582 7.5686 28.8738 7.18763 28.2274 6.94909C27.4515 6.64825 26.6187 6.482 25.3806 6.425C23.6341 6.34267 23.023 6.33317 19.0013 6.33317M19.0013 3.1665C23.3032 3.1665 23.84 3.18234 25.5294 3.2615C27.2141 3.34067 28.3636 3.60509 29.3721 3.99775C30.4171 4.39992 31.2975 4.94459 32.1778 5.82334C32.9832 6.61458 33.6063 7.57208 34.0034 8.629C34.3945 9.63759 34.6605 10.7871 34.7396 12.4733C34.8141 14.1612 34.8346 14.6979 34.8346 18.9998C34.8346 23.3018 34.8188 23.8385 34.7396 25.5263C34.6605 27.2142 34.3945 28.3605 34.0034 29.3707C33.6063 30.4276 32.9832 31.3851 32.1778 32.1763C31.3866 32.9818 30.4291 33.6048 29.3721 34.0019C28.3636 34.393 27.2141 34.659 25.5294 34.7382C23.84 34.8126 23.3032 34.8332 19.0013 34.8332C14.6994 34.8332 14.1626 34.8173 12.4732 34.7382C10.7886 34.659 9.64064 34.393 8.63047 34.0019C7.57355 33.6048 6.61604 32.9818 5.8248 32.1763C5.01937 31.3851 4.39634 30.4276 3.99922 29.3707C3.60655 28.3621 3.34214 27.2126 3.26297 25.5263C3.18697 23.8385 3.16797 23.3018 3.16797 18.9998C3.16797 14.6979 3.1838 14.1612 3.26297 12.4733C3.34214 10.7855 3.60655 9.63917 3.99922 8.629C4.39634 7.57208 5.01937 6.61458 5.8248 5.82334C6.61604 5.01791 7.57355 4.39488 8.63047 3.99775C9.63905 3.60509 10.787 3.34067 12.4732 3.2615C14.1642 3.18709 14.701 3.1665 19.0029 3.1665" fill="#3E45FB"/>
</svg>
