<svg width="33" height="33" viewBox="0 0 33 33" fill="none" xmlns="http://www.w3.org/2000/svg">
<g clip-path="url(#clip0_327_302)">
<path d="M10.0827 15.125L9.16602 17.9667H10.9993L10.0827 15.125Z" fill="black"/>
<path d="M27.7741 2.75H13.1074V7.33333H16.7741V9.16667H4.85742C3.29909 9.16667 2.10742 10.3583 2.10742 11.9167V22C2.10742 23.5583 3.29909 24.75 4.85742 24.75H5.77409V29.425L11.5491 24.75H17.6908V18.3333H27.7741C29.3324 18.3333 30.5241 17.1417 30.5241 15.5833V5.5C30.5241 3.94167 29.3324 2.75 27.7741 2.75ZM12.0074 20.9917L11.5491 19.525H8.70742L8.15742 20.9917H5.95742L8.98242 12.8333H11.1824L14.2074 20.9917H12.0074ZM25.9408 13.75V15.5833C24.7491 15.5833 23.4658 15.2167 22.3658 14.6667C21.2658 15.2167 19.9824 15.4917 18.6991 15.5833L18.6074 13.75C19.2491 13.75 19.8908 13.6583 20.5324 13.475C19.7074 12.65 19.1574 11.6417 18.8824 10.5417H20.8074C21.0824 11.3667 21.6324 12.0083 22.2741 12.5583C23.2824 11.7333 23.9241 10.5417 24.0158 9.16667H18.5158V7.33333H21.2658V5.5H23.0991V7.33333H26.1241L26.2158 8.25C26.3074 10.175 25.5741 12.1 24.1991 13.475C24.8408 13.6583 25.3908 13.75 25.9408 13.75Z" fill="black"/>
</g>
<defs>
<clipPath id="clip0_327_302">
<rect width="33" height="33" fill="white"/>
</clipPath>
</defs>
</svg>
