<svg width="122" height="122" viewBox="0 0 122 122" fill="none" xmlns="http://www.w3.org/2000/svg">
<circle cx="61" cy="61" r="59.5" transform="matrix(-1 0 0 1 122 0)" fill="#F0FEFF" stroke="black" stroke-width="3"/>
<path d="M77.4425 67.3696C78.8952 68.1662 79.4271 69.9897 78.6304 71.4425C77.8338 72.8952 76.0103 73.4271 74.5575 72.6304L76 70L77.4425 67.3696ZM42.12 53.84C41.6561 52.2494 42.5694 50.5839 44.16 50.12L70.08 42.56C71.6706 42.0961 73.3361 43.0094 73.8 44.6C74.2639 46.1906 73.3506 47.8561 71.76 48.32L48.72 55.04L55.44 78.08C55.9039 79.6706 54.9906 81.3361 53.4 81.8C51.8094 82.2639 50.1439 81.3506 49.68 79.76L42.12 53.84ZM76 70L74.5575 72.6304L43.5575 55.6304L45 53L46.4425 50.3696L77.4425 67.3696L76 70Z" fill="black"/>
</svg>
