<svg width="40" height="43" viewBox="0 0 40 43" fill="none" xmlns="http://www.w3.org/2000/svg">
<path d="M27.3342 41.6418C27.1 41.5729 26.8561 41.5139 26.6219 41.445C26.0461 41.2678 25.607 40.9135 25.3337 40.3722C25.0703 39.8604 24.6409 39.634 24.1042 39.5947C21.8792 39.447 19.6641 39.4864 17.4489 39.6931C16.6194 39.7718 15.868 40.1261 15.224 40.6675C14.1896 41.5434 13.0576 41.7107 11.8085 41.2186C9.43718 40.2935 6.96829 39.7423 4.47987 39.2797C4.44084 39.2699 4.40181 39.2699 4.36277 39.26C3.12345 38.9451 2.76238 38.3447 3.24055 37.1538C3.67968 36.0811 3.74799 35.0476 3.39668 33.9453C3.2991 33.6501 3.2991 33.3253 3.2991 33.0103C3.28934 32.597 3.52354 32.3411 3.91388 32.2722C4.32374 32.1934 4.7336 32.1344 5.15321 32.1147C5.84606 32.0753 6.43157 31.7998 6.85118 31.2781C7.1049 30.973 7.22201 30.5597 7.36838 30.2742C7.72945 31.16 7.19273 32.2426 6.09002 32.5379C5.62162 32.6659 5.11418 32.656 4.62625 32.656C3.76751 32.6659 3.51379 32.9906 3.78702 33.8075C3.89437 34.1422 4.04074 34.467 4.18712 34.7819C4.46036 35.3626 4.47012 35.9433 4.20664 36.5239C4.07002 36.8389 3.9334 37.144 3.80654 37.4589C3.58209 38.0199 3.70896 38.3447 4.28471 38.5219C4.91901 38.7089 5.57282 38.8172 6.21688 38.9845C8.06124 39.4569 9.91535 39.9391 11.7597 40.4116C12.4038 40.5789 13.0576 40.6773 13.7212 40.5198C14.8336 40.2639 15.4191 39.447 15.2825 38.3054C15.1654 37.3507 14.8434 36.4649 14.3164 35.6775C13.0966 33.8567 11.867 32.036 10.5789 30.2644C10.2569 29.8117 9.73969 29.4869 9.27129 29.1719C8.91022 28.9259 8.48085 28.9357 8.09051 29.1818C7.82703 29.3491 7.71969 29.2408 7.6709 28.9751C7.51476 28.0991 7.57331 27.2232 8.03196 26.4555C8.88095 25.0383 9.3396 23.4635 9.93486 21.9478C10.3642 20.8554 10.9107 19.8515 11.6231 18.9165C12.4623 17.8142 13.204 16.643 13.9651 15.4914C14.3067 14.9797 14.3847 14.4187 14.3457 13.7789C14.2091 11.3971 14.1017 9.01537 14.0822 6.63358C14.0725 5.42301 14.3164 4.22228 15.1459 3.25775C16.0339 2.22434 17.1073 1.51571 18.5028 1.38776C20.1032 1.24013 21.6548 1.44681 23.0698 2.24402C24.6604 3.13965 25.4704 4.65533 26.0168 6.33832C26.3291 7.31269 26.2998 8.32642 26.3193 9.33031C26.3584 11.3578 26.778 13.3065 27.666 15.1371C28.2125 16.269 28.9932 17.2236 29.8031 18.1783C31.9793 20.7176 33.1015 23.7293 33.5504 27.0067C33.648 27.735 33.4723 28.5125 33.3747 29.2605C33.3357 29.5853 33.1112 29.8215 32.799 29.9987C32.555 30.1364 32.3696 30.4022 32.1647 30.6187C31.8134 30.9829 31.5011 31.3962 31.1205 31.7112C30.5155 32.223 29.7738 32.2919 29.0127 32.1639C28.4955 32.0753 28.1637 31.7407 27.91 31.3076C27.7148 30.9829 27.5782 30.6187 27.3537 30.3234C27.1976 30.1266 26.9049 29.8904 26.7194 29.9199C26.5048 29.9593 26.2706 30.2447 26.1632 30.4809C25.8412 31.1895 25.8412 31.9474 26.0364 32.6757C26.456 34.2111 26.3974 35.7563 26.2022 37.3113C26.1339 37.8428 26.1047 38.3939 26.1925 38.9156C26.4072 40.1458 27.5001 40.8052 28.7199 40.4509C29.1591 40.323 29.6275 40.1261 29.9593 39.8309C31.4425 38.512 33.1698 37.6853 35.0142 37.0456C35.4338 36.8979 35.8436 36.6617 36.1949 36.3862C36.6633 36.0417 36.6633 35.648 36.2047 35.2838C35.8729 35.028 35.4826 34.8213 35.0922 34.654C33.7943 34.1126 33.0722 32.6166 33.4723 31.2388C33.5113 31.1108 33.5797 30.9829 33.7065 30.8648C33.7651 31.2092 33.8236 31.5635 33.8919 31.908C34.0969 32.9414 34.6336 33.7288 35.5606 34.2504C35.9022 34.4374 36.234 34.654 36.5267 34.9098C37.1317 35.4315 37.1513 36.1303 36.517 36.6224C35.9412 37.0751 35.3167 37.518 34.6531 37.8231C32.8673 38.64 31.3157 39.7718 29.8519 41.071C29.5104 41.3761 28.9639 41.445 28.515 41.6221C28.1149 41.6418 27.7246 41.6418 27.3342 41.6418ZM16.4926 14.6057C16.4926 14.6549 16.473 14.6844 16.4828 14.7041C16.5121 14.7631 16.5511 14.8123 16.5901 14.8616C17.0781 15.4127 17.7026 15.6194 18.415 15.5407C19.2932 15.4521 20.0349 15.019 20.796 14.6155C21.1766 14.4088 21.5475 14.2021 21.9475 14.0447C22.0647 13.9955 22.2403 14.1037 22.3867 14.1431C22.3184 14.2809 22.2891 14.4777 22.1818 14.5466C21.8597 14.7631 21.4889 14.9009 21.1571 15.1174C20.2789 15.6784 19.4299 16.2887 18.5516 16.8398C17.8685 17.2729 17.3903 17.1941 16.8536 16.5938C16.434 16.1115 16.0632 15.5899 15.6728 15.0879C15.5948 14.9895 15.4874 14.9009 15.302 14.7238C15.3215 15.8261 14.8043 16.6134 14.3847 17.4303C13.9163 18.3456 13.5357 19.2708 14.0627 20.2747C13.4772 20.7373 13.1747 21.3672 12.8722 21.9872C12.0915 23.5521 11.4962 25.1564 11.6133 26.9476C11.6328 27.3118 11.6133 27.6858 11.5548 28.0499C11.5255 28.2468 11.3791 28.4338 11.2815 28.6208C11.1059 28.5223 10.8717 28.4535 10.7448 28.3058C10.0715 27.5283 10.0032 26.5835 10.0617 25.6091C10.0812 25.3138 10.13 25.0284 10.1593 24.7331C9.99341 24.8611 9.91535 25.0087 9.84704 25.1662C9.41766 26.1307 9.88607 28.4436 10.901 29.2408C12.5111 30.5104 14.0237 31.8883 15.585 33.2072C16.0242 33.5713 16.1998 34.0241 16.0729 34.5654C15.9558 35.1067 15.6143 35.461 15.0678 35.6086C14.9898 35.6283 14.9117 35.6677 14.7946 35.7169C15.585 36.8389 16.3559 37.9412 16.1705 39.4175C16.6487 39.1813 16.8634 38.8467 16.7268 38.4038C16.5609 37.892 16.2974 37.4097 16.0339 36.9275C15.868 36.6224 15.8875 36.4551 16.2291 36.4157C16.3852 36.396 16.5609 36.5043 16.717 36.583C17.1659 36.7995 17.5953 37.1342 18.0637 37.2326C18.7077 37.3605 19.3811 37.3704 20.0349 37.3015C21.8304 37.1342 23.5089 36.7109 24.514 34.9689C24.5921 34.8213 24.8165 34.7622 24.9629 34.654C25.0507 34.8311 25.1776 35.0083 25.2069 35.1953C25.3045 35.9728 25.08 36.7011 24.8653 37.4294C24.758 37.7936 24.6506 38.1577 24.6019 38.5317C24.5433 38.886 24.7385 39.0632 25.1288 39.0632C25.2264 38.5613 25.324 38.0593 25.4118 37.5672C25.6558 36.2877 25.8705 35.028 25.6167 33.7091C25.4801 33.0202 25.4411 32.3017 25.4508 31.5931C25.4606 30.2841 25.89 29.5558 27.0805 29.477C27.1781 28.5912 27.7734 28.2566 28.554 28.109C29.325 27.9613 30.0373 28.1483 30.7497 28.4633C30.5936 28.2763 30.4277 28.109 30.2325 27.981C30.0276 27.8432 29.8129 27.7448 29.5982 27.6267C30.6716 24.3591 28.7785 20.1467 27.3635 19.32C27.8222 20.2452 28.3881 21.2491 28.837 22.2923C29.4713 23.7785 29.7543 25.3237 29.3542 26.9279C29.1786 27.6366 28.7492 27.9613 28.0271 27.9515C27.6172 27.9417 27.4025 27.7743 27.3342 27.3511C27.2854 27.0559 27.2464 26.7508 27.2366 26.4555C27.1683 25.1564 27.1391 23.867 26.778 22.5974C26.5048 21.6427 26.2022 20.6979 25.5484 19.9105C25.363 19.6842 25.2166 19.4086 25.1483 19.133C24.8068 17.8043 24.3384 16.5445 23.4991 15.4422C23.0795 14.8911 22.9234 14.2513 23.1186 13.5427C23.1869 13.277 23.2357 13.0014 23.2942 12.7357C23.4211 12.1058 23.2649 11.84 22.6697 11.6334C22.133 11.4365 21.5962 11.2397 21.0693 11.0231C20.2984 10.6984 20.152 10.4031 20.3081 9.56652C20.3374 9.40905 20.3862 9.26142 20.435 9.11379C20.5618 8.72994 20.8058 8.48389 21.2157 8.44452C21.6548 8.40516 22.0451 8.52326 22.2793 8.93663C22.5721 9.44842 22.6794 9.97989 22.416 10.5507C22.3086 10.7771 22.2989 10.9936 22.5916 11.0822C22.9429 11.1806 23.2845 10.9739 23.343 10.6098C23.4699 9.79289 23.4016 8.98584 23.06 8.228C22.5819 7.15521 21.3718 6.78122 20.3764 7.39142C19.5372 7.90321 19.4299 8.73979 19.4689 9.62557C19.4787 9.86178 19.4982 10.1078 19.5079 10.3047C19.1078 10.2555 18.7468 10.1767 18.3955 10.1767C17.6441 10.1964 17.7514 10.1669 17.7319 9.52715C17.7319 9.43857 17.7416 9.34015 17.7124 9.25157C17.5465 8.74963 17.4489 8.19847 17.1757 7.75558C16.7756 7.106 15.9363 7.13553 15.5655 7.76542C14.9702 8.789 14.9507 9.85194 15.4874 10.9149C15.546 11.033 15.7314 11.2003 15.8095 11.1806C15.9656 11.1413 16.0827 10.9739 16.2486 10.8263C15.3996 10.5409 15.302 9.31063 15.6826 8.79884C15.7412 8.7201 15.829 8.64137 15.9168 8.602C16.3462 8.37563 16.8243 8.50358 16.9902 8.95631C17.1269 9.34015 17.1952 9.76336 17.1757 10.1669C17.1659 10.3539 16.9122 10.5507 16.7365 10.7082C16.3559 11.0527 15.9461 11.3775 15.5655 11.7219C15.4191 11.8499 15.2825 11.9975 15.1849 12.1648C15.019 12.4502 15.0385 12.6963 15.3606 12.8931C15.5557 13.0112 15.7607 13.1687 15.8875 13.3557C16.2974 13.9561 16.8634 14.1136 17.5465 14.1136C18.8346 14.1136 20.0251 13.7002 21.2059 13.2475C21.5182 13.1293 21.7817 12.8636 22.0744 12.6865C22.1915 12.6077 22.3379 12.5487 22.4745 12.5388C22.5233 12.529 22.6502 12.7061 22.6306 12.7652C22.5819 12.903 22.4843 13.0211 22.3867 13.1293C22.3476 13.1687 22.2696 13.1786 22.211 13.2081C21.4401 13.523 20.6594 13.8085 19.8983 14.1431C18.8834 14.5958 17.849 14.7828 16.7463 14.6057C16.6682 14.5958 16.5804 14.6057 16.4926 14.6057ZM24.6702 13.3754C24.6702 13.5427 24.5921 13.7888 24.6799 13.9167C24.9336 14.2907 25.2264 14.6352 25.5387 14.9501C25.7143 15.1273 25.9583 15.0879 26.0851 14.832C26.2022 14.5761 26.2218 14.3202 25.9388 14.1431C25.5679 13.897 25.1678 13.6707 24.6702 13.3754ZM23.4894 4.38959C23.1088 4.12386 22.8161 3.8778 22.4843 3.70065C22.2793 3.58254 22.1622 3.7597 22.1134 3.96638C22.0549 4.22228 21.9671 4.47817 21.9183 4.73406C21.8988 4.82264 21.928 4.92106 21.928 5.01948C22.0061 4.9998 22.0939 4.98996 22.172 4.96043C22.4843 4.83249 22.8063 4.70454 23.1186 4.57659C23.2064 4.52738 23.2942 4.47817 23.4894 4.38959ZM11.0766 21.7116C11.6328 21.5246 11.9451 20.9046 11.7207 20.5011C11.5157 20.8947 11.3108 21.2786 11.0766 21.7116ZM22.0842 9.74368C22.2891 9.48778 22.133 9.27126 21.9963 9.07442C21.8304 8.83821 21.7133 8.81852 21.5377 8.92679C21.7036 9.18268 21.8792 9.43857 22.0842 9.74368ZM16.2291 9.10394C16.8634 9.21221 16.3559 9.80273 16.7463 10.0586C16.9415 9.45826 16.7365 8.99568 16.2291 9.10394Z" fill="#939393"/>
</svg>
