<svg width="39" height="39" viewBox="0 0 39 39" fill="none" xmlns="http://www.w3.org/2000/svg">
<path d="M11.375 14.625V11.375H34.125V14.625H11.375ZM11.375 21.125V17.875H34.125V21.125H11.375ZM11.375 27.625V24.375H34.125V27.625H11.375ZM6.50001 14.625C6.03959 14.625 5.65392 14.469 5.34301 14.157C5.03209 13.845 4.87609 13.4593 4.87501 13C4.87392 12.5407 5.02992 12.155 5.34301 11.843C5.65609 11.531 6.04176 11.375 6.50001 11.375C6.95826 11.375 7.34446 11.531 7.65863 11.843C7.9728 12.155 8.12826 12.5407 8.12501 13C8.12176 13.4593 7.96576 13.8455 7.65701 14.1586C7.34826 14.4717 6.96259 14.6272 6.50001 14.625ZM6.50001 21.125C6.03959 21.125 5.65392 20.969 5.34301 20.657C5.03209 20.345 4.87609 19.9593 4.87501 19.5C4.87392 19.0407 5.02992 18.655 5.34301 18.343C5.65609 18.031 6.04176 17.875 6.50001 17.875C6.95826 17.875 7.34446 18.031 7.65863 18.343C7.9728 18.655 8.12826 19.0407 8.12501 19.5C8.12176 19.9593 7.96576 20.3455 7.65701 20.6586C7.34826 20.9717 6.96259 21.1272 6.50001 21.125ZM6.50001 27.625C6.03959 27.625 5.65392 27.469 5.34301 27.157C5.03209 26.845 4.87609 26.4593 4.87501 26C4.87392 25.5407 5.02992 25.155 5.34301 24.843C5.65609 24.531 6.04176 24.375 6.50001 24.375C6.95826 24.375 7.34446 24.531 7.65863 24.843C7.9728 25.155 8.12826 25.5407 8.12501 26C8.12176 26.4593 7.96576 26.8455 7.65701 27.1586C7.34826 27.4717 6.96259 27.6272 6.50001 27.625Z" fill="#F0FEFF"/>
</svg>
