<svg width="89" height="89" viewBox="0 0 89 89" fill="none" xmlns="http://www.w3.org/2000/svg">
<path fill-rule="evenodd" clip-rule="evenodd" d="M16.1757 0C11.8856 0 7.77126 1.70422 4.73774 4.73774C1.70422 7.77126 0 11.8856 0 16.1757V72.7905C0 77.0805 1.70422 81.1948 4.73774 84.2284C7.77126 87.2619 11.8856 88.9661 16.1757 88.9661H72.7905C77.0805 88.9661 81.1948 87.2619 84.2284 84.2284C87.2619 81.1948 88.9661 77.0805 88.9661 72.7905V16.1757C88.9661 11.8856 87.2619 7.77126 84.2284 4.73774C81.1948 1.70422 77.0805 0 72.7905 0H16.1757ZM22.8602 70.3115L22.8683 70.3034L22.9007 70.2751L23.0301 70.1457C23.7539 69.4223 24.4217 68.645 25.0278 67.8205C25.9821 66.5264 26.7869 65.0908 27.0255 63.7887C19.3016 59.0856 14.1537 51.2849 14.1537 42.364C14.1537 27.7089 27.9434 16.1757 44.4831 16.1757C61.0227 16.1757 74.8124 27.7129 74.8124 42.3681C74.8124 57.0232 61.0227 68.5646 44.4831 68.5646C42.1699 68.5646 39.9134 68.3381 37.7459 67.9175C36.1081 70.2428 33.524 71.4924 31.0694 72.1394C28.6468 72.754 26.1355 72.9401 23.6488 72.6894L20.6806 72.3577L22.8643 70.3156L22.8602 70.3115Z" fill="#60D669"/>
</svg>
