<svg width="37" height="37" viewBox="0 0 37 37" fill="none" xmlns="http://www.w3.org/2000/svg">
<path d="M30.834 14.0107C31.2068 14.0108 31.5645 14.1583 31.8281 14.4219C32.0918 14.6856 32.2402 15.044 32.2402 15.417V16.958C32.2403 20.398 30.9498 23.7134 28.624 26.248C26.3498 28.7264 23.247 30.2814 19.9062 30.625V33.917C19.9062 34.2898 19.7587 34.6475 19.4951 34.9111C19.2314 35.1749 18.873 35.3232 18.5 35.3232C18.1272 35.3232 17.7695 35.1748 17.5059 34.9111C17.2422 34.6475 17.0938 34.2898 17.0938 33.917V30.625C13.7533 30.2812 10.651 28.7262 8.37695 26.248C6.05109 23.7134 4.76066 20.3981 4.76074 16.958V15.417C4.76074 15.044 4.90913 14.6856 5.17285 14.4219C5.43654 14.1584 5.79418 14.0107 6.16699 14.0107C6.5398 14.0107 6.89744 14.1584 7.16113 14.4219C7.42486 14.6856 7.57324 15.044 7.57324 15.417V16.958C7.57324 18.3929 7.85618 19.814 8.40527 21.1396C8.95435 22.4652 9.75892 23.67 10.7734 24.6846C11.788 25.6992 12.9927 26.5046 14.3184 27.0537C15.644 27.6028 17.0651 27.8857 18.5 27.8857C19.9349 27.8857 21.356 27.6028 22.6816 27.0537C24.0074 26.5046 25.2119 25.6992 26.2266 24.6846C27.2412 23.6699 28.0466 22.4654 28.5957 21.1396C29.1448 19.814 29.4277 18.3929 29.4277 16.958V15.417C29.4277 15.044 29.5751 14.6856 29.8389 14.4219C30.1026 14.1582 30.461 14.0107 30.834 14.0107ZM18.5 3.21875C20.9173 3.21875 23.236 4.17936 24.9453 5.88867C26.6545 7.5979 27.6151 9.91586 27.6152 12.333V16.958C27.6152 19.3753 26.6546 21.694 24.9453 23.4033C23.236 25.1126 20.9173 26.0732 18.5 26.0732C16.0829 26.0732 13.7649 25.1125 12.0557 23.4033C10.3463 21.694 9.38574 19.3753 9.38574 16.958V12.333C9.38583 9.91579 10.3464 7.59791 12.0557 5.88867C13.7649 4.17943 16.0828 3.21884 18.5 3.21875ZM18.5 6.03125C16.8287 6.03134 15.2257 6.69516 14.0439 7.87695C12.8622 9.05875 12.1983 10.6617 12.1982 12.333V16.959C12.1969 18.5346 12.7855 20.0539 13.8486 21.2168C14.9119 22.3798 16.3728 23.1016 17.9424 23.2412C19.5118 23.3807 21.0765 22.9277 22.3281 21.9707C23.5004 21.0743 24.3192 19.797 24.6455 18.3643H20.042C19.6692 18.3643 19.3115 18.2166 19.0479 17.9531C18.7841 17.6894 18.6357 17.331 18.6357 16.958C18.6358 16.5852 18.7842 16.2275 19.0479 15.9639C19.3116 15.7002 19.6691 15.5518 20.042 15.5518H24.8027V13.7393H20.042C19.6692 13.7393 19.3115 13.5916 19.0479 13.3281C18.7841 13.0644 18.6357 12.706 18.6357 12.333C18.6358 11.9602 18.7842 11.6025 19.0479 11.3389C19.3116 11.0752 19.6691 10.9268 20.042 10.9268H24.6436C24.3372 9.5887 23.602 8.38431 22.5449 7.5C21.4107 6.55122 19.9787 6.03101 18.5 6.03125Z" fill="#3E45FB" stroke="#3E45FB" stroke-width="0.5"/>
</svg>
