<svg width="55" height="55" viewBox="0 0 55 55" fill="none" xmlns="http://www.w3.org/2000/svg">
<path d="M34.375 13.75C34.375 9.95304 31.297 6.875 27.5 6.875C23.703 6.875 20.625 9.95304 20.625 13.75V25.2083C20.625 29.0053 23.703 32.0833 27.5 32.0833C31.297 32.0833 34.375 29.0053 34.375 25.2083V13.75Z" stroke="#F0FEFF" stroke-width="5" stroke-linecap="round" stroke-linejoin="round"/>
<path d="M43.5423 25.2084C43.5423 27.315 43.1274 29.401 42.3212 31.3473C41.515 33.2935 40.3334 35.0619 38.8438 36.5515C37.3542 38.0412 35.5858 39.2228 33.6395 40.0289C31.6933 40.8351 29.6073 41.25 27.5006 41.25M27.5006 41.25C25.394 41.25 23.308 40.8351 21.3618 40.0289C19.4155 39.2228 17.6471 38.0412 16.1575 36.5515C14.6679 35.0619 13.4863 33.2935 12.6801 31.3473C11.8739 29.401 11.459 27.315 11.459 25.2084M27.5006 41.25V48.125" stroke="#F0FEFF" stroke-width="5" stroke-linecap="round" stroke-linejoin="round"/>
</svg>
