<svg width="40" height="40" viewBox="0 0 40 40" fill="none" xmlns="http://www.w3.org/2000/svg">
<rect x="0.5" y="0.5" width="39" height="39" rx="19.5" fill="#F0FEFF"/>
<rect x="0.5" y="0.5" width="39" height="39" rx="19.5" stroke="black"/>
<path d="M23.4289 13.1436C23.4289 11.2502 21.894 9.71533 20.0006 9.71533C18.1072 9.71533 16.5723 11.2502 16.5723 13.1436V18.8574C16.5723 20.7508 18.1072 22.2857 20.0006 22.2857C21.894 22.2857 23.4289 20.7508 23.4289 18.8574V13.1436Z" stroke="black" stroke-width="2.5" stroke-linecap="round" stroke-linejoin="round"/>
<path d="M28.0007 18.8574C28.0007 19.9079 27.7937 20.9481 27.3917 21.9186C26.9897 22.8892 26.4005 23.771 25.6577 24.5138C24.9149 25.2566 24.033 25.8459 23.0625 26.2479C22.092 26.6499 21.0518 26.8568 20.0013 26.8568M20.0013 26.8568C18.9508 26.8568 17.9106 26.6499 16.9401 26.2479C15.9696 25.8459 15.0877 25.2566 14.3449 24.5138C13.6021 23.771 13.0129 22.8892 12.6109 21.9186C12.2089 20.9481 12.002 19.9079 12.002 18.8574M20.0013 26.8568V30.2851" stroke="black" stroke-width="2.5" stroke-linecap="round" stroke-linejoin="round"/>
</svg>
