<svg width="45" height="52" viewBox="0 0 45 52" fill="none" xmlns="http://www.w3.org/2000/svg">
<path d="M21.0102 24.8336L0.191895 47.6795C0.19385 47.6835 0.19385 47.6896 0.195805 47.6937C0.835195 50.1744 3.02516 52 5.62574 52C6.66597 52 7.64167 51.7089 8.47855 51.1994L8.54503 51.1589L31.9776 37.1785L21.0102 24.8336Z" fill="#EA4335"/>
<path d="M42.0711 20.9434L42.0515 20.9293L31.9347 14.866L20.5371 25.3529L31.9757 37.1761L42.0378 31.1735C43.8015 30.1869 45.0001 28.2642 45.0001 26.0484C45.0001 23.8447 43.8191 21.9321 42.0711 20.9434Z" fill="#FBBC04"/>
<path d="M0.191622 4.31891C0.066481 4.79604 0 5.29744 0 5.81501V46.1855C0 46.7031 0.066481 47.2045 0.193577 47.6796L21.7256 25.418L0.191622 4.31891Z" fill="#4285F4"/>
<path d="M21.1642 25.9998L31.938 14.8619L8.53281 0.830883C7.68225 0.303204 6.68894 -5.91278e-05 5.6272 -5.91278e-05C3.02662 -5.91278e-05 0.832751 1.82963 0.19336 4.31235C0.19336 4.31437 0.191406 4.31639 0.191406 4.31842L21.1642 25.9998Z" fill="#34A853"/>
</svg>
