<svg width="77" height="77" viewBox="0 0 77 77" fill="none" xmlns="http://www.w3.org/2000/svg">
<path d="M57.3603 19.5918C67.79 30.0215 67.79 46.9316 57.3603 57.3613C46.9306 67.7909 30.0206 67.7909 19.5909 57.3613C9.16117 46.9316 9.1612 30.0216 19.5909 19.5918C30.0206 9.16211 46.9306 9.16212 57.3603 19.5918Z" fill="#F0FEFF" stroke="black"/>
<path d="M52.9865 36.2501C54.202 36.3614 55.1683 37.2684 55.1692 38.4757V38.4991L55.1679 38.5212C55.0581 39.7372 54.1508 40.7027 52.943 40.7019L40.7081 40.6936L40.5424 52.7462V52.7656L40.5403 52.7842C40.4321 53.9828 39.5492 54.9365 38.3672 54.9628C37.6866 55.0757 37.0896 54.6742 36.7796 54.3641C36.4123 53.9967 36.1787 53.5053 36.1782 52.8291L36.1699 40.5997L23.9737 40.5914C23.3014 40.6934 22.7133 40.2977 22.4062 39.9907C22.0386 39.6231 21.8045 39.1315 21.804 38.4549L21.8047 38.4321L21.8068 38.4094C21.9166 37.1935 22.8232 36.2272 24.031 36.228L36.2583 36.2356L36.25 24.009V23.9869L36.2521 23.9641C36.3618 22.7481 37.2684 21.7819 38.4763 21.7827L38.4991 21.7834L38.5219 21.7854C39.7374 21.8969 40.7038 22.8038 40.7046 24.011L40.7129 36.239L52.9416 36.248H52.9637L52.9865 36.2501Z" fill="black" stroke="black"/>
</svg>
