<svg width="55" height="55" viewBox="0 0 55 55" fill="none" xmlns="http://www.w3.org/2000/svg">
<path d="M30.9368 18.3333H27.4993V29.7917L37.3077 35.6125L38.9577 32.8396L30.9368 28.0729V18.3333ZM29.791 6.875C24.3209 6.875 19.0749 9.04798 15.2069 12.9159C11.339 16.7839 9.16602 22.0299 9.16602 27.5H2.29102L11.366 36.7354L20.6243 27.5H13.7493C13.7493 23.2455 15.4394 19.1652 18.4478 16.1568C21.4562 13.1484 25.5365 11.4583 29.791 11.4583C34.0455 11.4583 38.1258 13.1484 41.1342 16.1568C44.1426 19.1652 45.8327 23.2455 45.8327 27.5C45.8327 31.7545 44.1426 35.8348 41.1342 38.8432C38.1258 41.8516 34.0455 43.5417 29.791 43.5417C25.3681 43.5417 21.3577 41.7313 18.4702 38.8208L15.216 42.075C17.1218 44.001 19.3922 45.528 21.8947 46.5667C24.3972 47.6055 27.0815 48.1352 29.791 48.125C35.2611 48.125 40.5072 45.952 44.3751 42.0841C48.243 38.2161 50.416 32.9701 50.416 27.5C50.416 22.0299 48.243 16.7839 44.3751 12.9159C40.5072 9.04798 35.2611 6.875 29.791 6.875Z" fill="#F0FEFF"/>
</svg>
