<svg width="122" height="122" viewBox="0 0 122 122" fill="none" xmlns="http://www.w3.org/2000/svg">
<circle cx="61" cy="61" r="59.5" fill="#F0FEFF" stroke="black" stroke-width="3"/>
<path d="M44.5575 67.3696C43.1048 68.1662 42.5729 69.9897 43.3696 71.4425C44.1662 72.8952 45.9897 73.4271 47.4425 72.6304L46 70L44.5575 67.3696ZM79.88 53.84C80.3439 52.2494 79.4306 50.5839 77.84 50.12L51.92 42.56C50.3294 42.0961 48.6639 43.0094 48.2 44.6C47.7361 46.1906 48.6494 47.8561 50.24 48.32L73.28 55.04L66.56 78.08C66.0961 79.6706 67.0094 81.3361 68.6 81.8C70.1906 82.2639 71.8561 81.3506 72.32 79.76L79.88 53.84ZM46 70L47.4425 72.6304L78.4425 55.6304L77 53L75.5575 50.3696L44.5575 67.3696L46 70Z" fill="black"/>
</svg>
