<svg width="55" height="55" viewBox="0 0 55 55" fill="none" xmlns="http://www.w3.org/2000/svg">
<path d="M48.1255 48.125L38.1728 38.1723M38.1728 38.1723C39.8752 36.4698 41.2257 34.4487 42.147 32.2244C43.0684 30 43.5426 27.6159 43.5426 25.2083C43.5426 22.8007 43.0684 20.4166 42.147 18.1923C41.2257 15.9679 39.8752 13.9468 38.1728 12.2444C36.4703 10.5419 34.4492 9.19145 32.2248 8.27009C30.0005 7.34873 27.6164 6.87451 25.2088 6.87451C22.8012 6.87451 20.4171 7.34873 18.1928 8.27009C15.9684 9.19145 13.9473 10.5419 12.2448 12.2444C8.80659 15.6826 6.875 20.3459 6.875 25.2083C6.875 30.0707 8.80659 34.734 12.2448 38.1723C15.6831 41.6105 20.3464 43.5421 25.2088 43.5421C30.0712 43.5421 34.7345 41.6105 38.1728 38.1723Z" stroke="#F0FEFF" stroke-width="5" stroke-linecap="round" stroke-linejoin="round"/>
</svg>
