<svg width="51" height="50" viewBox="0 0 51 50" fill="none" xmlns="http://www.w3.org/2000/svg">
<path d="M36.125 45.8334C34.3542 45.8334 32.849 45.2257 31.6094 44.0104C30.3698 42.7952 29.75 41.3195 29.75 39.5834C29.75 39.375 29.8031 38.8889 29.9094 38.125L14.9813 29.5834C14.4146 30.1042 13.7594 30.5125 13.0156 30.8084C12.2719 31.1042 11.475 31.2514 10.625 31.25C8.85417 31.25 7.34896 30.6424 6.10938 29.4271C4.86979 28.2118 4.25 26.7361 4.25 25C4.25 23.2639 4.86979 21.7882 6.10938 20.5729C7.34896 19.3577 8.85417 18.75 10.625 18.75C11.475 18.75 12.2719 18.8979 13.0156 19.1938C13.7594 19.4896 14.4146 19.8972 14.9813 20.4167L29.9094 11.875C29.8385 11.632 29.7946 11.3979 29.7776 11.1729C29.7606 10.9479 29.7514 10.6959 29.75 10.4167C29.75 8.68058 30.3698 7.20488 31.6094 5.9896C32.849 4.77433 34.3542 4.16669 36.125 4.16669C37.8958 4.16669 39.401 4.77433 40.6406 5.9896C41.8802 7.20488 42.5 8.68058 42.5 10.4167C42.5 12.1528 41.8802 13.6285 40.6406 14.8438C39.401 16.059 37.8958 16.6667 36.125 16.6667C35.275 16.6667 34.4781 16.5188 33.7344 16.2229C32.9906 15.9271 32.3354 15.5195 31.7687 15L16.8406 23.5417C16.9115 23.7847 16.9561 24.0195 16.9745 24.2459C16.9929 24.4722 17.0014 24.7236 17 25C16.9986 25.2764 16.9901 25.5285 16.9745 25.7563C16.9589 25.984 16.9143 26.2181 16.8406 26.4584L31.7687 35C32.3354 34.4792 32.9906 34.0715 33.7344 33.7771C34.4781 33.4827 35.275 33.3347 36.125 33.3334C37.8958 33.3334 39.401 33.941 40.6406 35.1563C41.8802 36.3715 42.5 37.8472 42.5 39.5834C42.5 41.3195 41.8802 42.7952 40.6406 44.0104C39.401 45.2257 37.8958 45.8334 36.125 45.8334Z" fill="#F0FEFF"/>
</svg>
