<svg width="84" height="84" viewBox="0 0 84 84" fill="none" xmlns="http://www.w3.org/2000/svg">
<g clip-path="url(#clip0_422_476)">
<path d="M17.815 52.762C17.815 57.5533 13.9075 61.4667 9.11562 61.4667C4.32372 61.4667 0.411621 57.5533 0.411621 52.762C0.411621 47.9708 4.32502 44.0574 9.11628 44.0574H17.8157L17.815 52.762ZM22.2004 52.762C22.2004 47.9708 26.1138 44.0574 30.905 44.0574C35.6963 44.0574 39.6097 47.9701 39.6097 52.762V74.5514C39.6097 79.3427 35.6969 83.2561 30.905 83.2561C26.1138 83.2561 22.2004 79.3427 22.2004 74.5514V52.762Z" fill="#DE1C59"/>
<path d="M30.905 17.8152C26.1138 17.8152 22.2004 13.9077 22.2004 9.11574C22.2004 4.32384 26.1138 0.411743 30.905 0.411743C35.6963 0.411743 39.6097 4.32514 39.6097 9.1164V17.8158L30.905 17.8152ZM30.905 22.2005C35.6963 22.2005 39.6097 26.1139 39.6097 30.9052C39.6097 35.6964 35.6969 39.6098 30.905 39.6098H9.11562C4.32437 39.6098 0.411621 35.6971 0.411621 30.9052C0.411621 26.1139 4.32502 22.2005 9.11628 22.2005H30.905Z" fill="#35C5F0"/>
<path d="M65.8518 30.9052C65.8518 26.1139 69.7593 22.2005 74.5512 22.2005C79.3431 22.2005 83.2559 26.1139 83.2559 30.9052C83.2559 35.6964 79.3425 39.6098 74.5512 39.6098H65.8518V30.9052ZM61.4664 30.9052C61.4664 35.6964 57.553 39.6098 52.7618 39.6098C47.9705 39.6098 44.0571 35.6971 44.0571 30.9052V9.11574C44.0571 4.32449 47.9699 0.411743 52.7618 0.411743C57.553 0.411743 61.4664 4.32514 61.4664 9.1164V30.9052Z" fill="#2EB57D"/>
<path d="M52.7618 65.852C57.553 65.852 61.4664 69.7595 61.4664 74.5514C61.4664 79.3433 57.553 83.2561 52.7618 83.2561C47.9705 83.2561 44.0571 79.3427 44.0571 74.5514V65.852H52.7618ZM52.7618 61.4667C47.9705 61.4667 44.0571 57.5533 44.0571 52.762C44.0571 47.9708 47.9699 44.0574 52.7618 44.0574H74.5512C79.3425 44.0574 83.2559 47.9701 83.2559 52.762C83.2559 57.5533 79.3425 61.4667 74.5512 61.4667H52.7618Z" fill="#EBB02E"/>
</g>
<defs>
<clipPath id="clip0_422_476">
<rect width="83.6672" height="83.6672" fill="white"/>
</clipPath>
</defs>
</svg>
