<svg width="701" height="516" viewBox="0 0 701 516" fill="none" xmlns="http://www.w3.org/2000/svg">
<path d="M698.168 19.712C692.902 8.80268 681.315 2.4828 666.343 2.33233L406.175 0H405.648C382.4 0 353.735 14.4454 338.763 33.706L9.97904 457.514C-0.102666 470.455 -2.66071 484.373 2.83156 495.734C8.09813 506.643 19.6846 512.963 34.6567 513.114L294.825 515.521H295.352C318.6 515.521 347.265 501.076 362.237 481.815L691.021 58.0074C701.103 44.9915 703.661 31.0727 698.168 19.712ZM295.352 480.913H295.126L37.5156 478.505L366.149 54.9227C374.425 44.2391 393.234 34.6088 405.648 34.6088H405.874L663.484 37.0164L334.851 460.599C326.575 471.282 307.841 480.913 295.352 480.913Z" fill="black"/>
<path d="M660.1 6.7713L399.931 4.36372C382.025 4.21325 358.024 16.3264 346.363 31.3737L17.5787 455.182C5.84179 470.304 10.8826 482.643 28.789 482.793L288.957 485.201C306.864 485.352 330.864 473.238 342.526 458.191L671.31 34.3079C683.047 19.3358 678.006 6.99701 660.1 6.7713ZM334.174 460.599C325.898 471.282 307.089 480.913 294.675 480.913H294.449L36.764 478.505L365.398 54.9228C373.674 44.2392 392.483 34.6089 404.897 34.6089H405.123L662.733 37.0164L334.174 460.599Z" fill="#F2FFFF"/>
<path d="M551.758 31.7498L444.696 29.568C437.549 29.4175 435.216 24.3766 439.43 18.2825L450.866 1.88091L583.809 4.58942L572.448 20.991C568.16 27.0852 558.905 31.9003 551.758 31.7498Z" fill="black"/>
<path d="M667.998 37.0164L339.364 460.599C331.088 471.282 312.279 480.913 299.865 480.913H299.64L42.0293 478.505L370.663 54.9227C378.939 44.2391 397.748 34.6089 410.162 34.6089H410.388L667.998 37.0164Z" fill="#F2FFFF" stroke="black" stroke-width="2" stroke-miterlimit="10"/>
</svg>
