<svg width="31" height="31" viewBox="0 0 31 31" fill="none" xmlns="http://www.w3.org/2000/svg">
<path d="M15.5002 22.3135L10.1398 25.5427C9.90296 25.6934 9.65539 25.7579 9.39705 25.7364C9.13872 25.7149 8.91268 25.6288 8.71893 25.4781C8.52518 25.3274 8.37448 25.1392 8.26685 24.9136C8.15921 24.688 8.13768 24.4349 8.20226 24.1541L9.6231 18.051L4.87622 13.95C4.66094 13.7562 4.52661 13.5353 4.47322 13.2873C4.41983 13.0393 4.43576 12.7974 4.52101 12.5614C4.60626 12.3255 4.73543 12.1317 4.90851 11.9802C5.0816 11.8286 5.3184 11.7317 5.61893 11.6896L11.8835 11.1406L14.3054 5.39268C14.413 5.13434 14.5801 4.94059 14.8066 4.81143C15.033 4.68226 15.2642 4.61768 15.5002 4.61768C15.7361 4.61768 15.9673 4.68226 16.1938 4.81143C16.4203 4.94059 16.5873 5.13434 16.695 5.39268L19.1168 11.1406L25.3814 11.6896C25.6828 11.7326 25.9196 11.8295 26.0918 11.9802C26.2641 12.1309 26.3932 12.3246 26.4793 12.5614C26.5654 12.7982 26.5818 13.0406 26.5284 13.2886C26.475 13.5366 26.3403 13.7571 26.1241 13.95L21.3773 18.051L22.7981 24.1541C22.8627 24.434 22.8411 24.6872 22.7335 24.9136C22.6259 25.1401 22.4752 25.3283 22.2814 25.4781C22.0877 25.6279 21.8616 25.714 21.6033 25.7364C21.345 25.7588 21.0974 25.6942 20.8606 25.5427L15.5002 22.3135Z" fill="#F0FEFF"/>
</svg>
