<svg width="55" height="55" viewBox="0 0 55 55" fill="none" xmlns="http://www.w3.org/2000/svg">
<path d="M27.4995 39.5886L17.9891 45.3177C17.569 45.5851 17.1297 45.6997 16.6714 45.6615C16.2131 45.6233 15.812 45.4705 15.4683 45.2032C15.1245 44.9358 14.8572 44.602 14.6662 44.2017C14.4752 43.8014 14.437 43.3523 14.5516 42.8542L17.0724 32.0261L8.65057 24.75C8.26863 24.4063 8.0303 24.0144 7.93557 23.5744C7.84085 23.1344 7.86912 22.7051 8.02037 22.2865C8.17162 21.8679 8.40078 21.5241 8.70787 21.2552C9.01495 20.9864 9.43509 20.8145 9.96828 20.7396L21.0829 19.7657L25.3797 9.56775C25.5707 9.10942 25.8671 8.76567 26.2689 8.5365C26.6707 8.30733 27.0809 8.19275 27.4995 8.19275C27.9181 8.19275 28.3284 8.30733 28.7302 8.5365C29.132 8.76567 29.4284 9.10942 29.6193 9.56775L33.9162 19.7657L45.0308 20.7396C45.5655 20.816 45.9856 20.9879 46.2912 21.2552C46.5968 21.5226 46.8259 21.8664 46.9787 22.2865C47.1315 22.7066 47.1605 23.1367 47.0658 23.5767C46.9711 24.0167 46.732 24.4078 46.3485 24.75L37.9266 32.0261L40.4474 42.8542C40.562 43.3507 40.5238 43.7999 40.3329 44.2017C40.1419 44.6035 39.8745 44.9373 39.5308 45.2032C39.187 45.469 38.786 45.6218 38.3277 45.6615C37.8693 45.7012 37.4301 45.5866 37.01 45.3177L27.4995 39.5886Z" fill="#F0FEFF"/>
</svg>
