<svg width="86" height="86" viewBox="0 0 86 86" fill="none" xmlns="http://www.w3.org/2000/svg">
<path d="M42.6703 0C31.356 0 20.4951 4.49838 12.5011 12.4977C4.49886 20.5003 0.00228985 31.3532 0 42.6703C0 53.9825 4.50038 64.8435 12.5011 72.8428C20.4951 80.8421 31.356 85.3405 42.6703 85.3405C53.9845 85.3405 64.8455 80.8421 72.8395 72.8428C80.8401 64.8435 85.3405 53.9825 85.3405 42.6703C85.3405 31.358 80.8401 20.4971 72.8395 12.4977C64.8455 4.49838 53.9845 0 42.6703 0Z" fill="url(#paint0_linear_422_482)"/>
<path d="M19.3159 42.2195C31.7569 36.8004 40.051 33.2277 44.198 31.5013C56.0523 26.5722 58.5125 25.7161 60.1193 25.6871C60.4727 25.6815 61.2594 25.7688 61.7728 26.1839C62.1995 26.5339 62.3195 27.0073 62.3795 27.3396C62.4328 27.6716 62.5062 28.4284 62.4462 29.0191C61.8061 35.7663 59.0259 52.1397 57.6124 59.697C57.0191 62.8946 55.839 63.9667 54.6989 64.0714C52.2187 64.2994 50.3385 62.4339 47.9383 60.8611C44.1846 58.3989 42.0645 56.8668 38.4175 54.4646C34.2038 51.6883 36.9374 50.1622 39.3376 47.6687C39.9643 47.0159 50.8852 37.0851 51.0919 36.1844C51.1186 36.0717 51.1452 35.6516 50.8919 35.4303C50.6452 35.2083 50.2785 35.2843 50.0118 35.3443C49.6318 35.4296 43.6379 39.3953 32.0103 47.2406C30.3101 48.4101 28.77 48.9801 27.3832 48.9501C25.8631 48.9174 22.9295 48.0887 20.7493 47.3806C18.0824 46.5119 15.9556 46.0525 16.1423 44.5771C16.2356 43.809 17.2957 43.0229 19.3159 42.2195Z" fill="white"/>
<defs>
<linearGradient id="paint0_linear_422_482" x1="4267.03" y1="0" x2="4267.03" y2="8534.05" gradientUnits="userSpaceOnUse">
<stop stop-color="#2AABEE"/>
<stop offset="1" stop-color="#229ED9"/>
</linearGradient>
</defs>
</svg>
