<svg width="539" height="308" viewBox="0 0 539 308" fill="none" xmlns="http://www.w3.org/2000/svg">
<path d="M518.666 307.268C519.642 308.244 521.225 308.244 522.201 307.268L538.111 291.358C539.088 290.382 539.088 288.799 538.111 287.822C537.135 286.846 535.552 286.846 534.576 287.822L520.434 301.964L506.291 287.822C505.315 286.846 503.732 286.846 502.756 287.822C501.78 288.799 501.78 290.382 502.756 291.358L518.666 307.268ZM14.4336 115.934L28.8674 101.5L14.4336 87.0662L-0.000163078 101.5L14.4336 115.934ZM520.434 52.5H517.934V305.5H520.434H522.934V52.5H520.434ZM14.4336 101.5H16.9336V52.5H14.4336H11.9336V101.5H14.4336ZM64.4336 2.5V5H470.434V2.5V0H64.4336V2.5ZM14.4336 52.5H16.9336C16.9336 26.2665 38.2001 5 64.4336 5V2.5V0C35.4386 0 11.9336 23.5051 11.9336 52.5H14.4336ZM520.434 52.5H522.934C522.934 23.5051 499.429 0 470.434 0V2.5V5C496.667 5 517.934 26.2665 517.934 52.5H520.434Z" fill="white"/>
</svg>
