<svg width="96" height="96" viewBox="0 0 96 96" fill="none" xmlns="http://www.w3.org/2000/svg">
<path d="M2.03628 47.5102C2.03405 55.5905 4.14535 63.4803 8.15995 70.4345L1.65234 94.1948L25.9681 87.8191C32.6935 91.4803 40.2288 93.3988 47.8862 93.3993H47.9064C73.1849 93.3993 93.7623 72.8294 93.7731 47.5464C93.7779 35.295 89.0111 23.7745 80.3505 15.1072C71.6913 6.44054 60.1749 1.66514 47.9045 1.65955C22.623 1.65955 2.04709 22.2283 2.03666 47.5102" fill="url(#paint0_linear_422_459)"/>
<path d="M0.398851 47.4953C0.396242 55.8663 2.58321 64.0383 6.74095 71.2415L0 95.8535L25.1876 89.2494C32.1276 93.0332 39.9414 95.0282 47.8923 95.0312H47.9128C74.0983 95.0312 95.4148 73.7214 95.426 47.5333C95.4305 34.8417 90.4922 22.9071 81.5221 13.9292C72.551 4.95246 60.6227 0.00521861 47.9128 0C21.7228 0 0.409288 21.3068 0.398851 47.4953ZM15.399 70.0009L14.4585 68.508C10.5051 62.2218 8.41836 54.9575 8.42134 47.4983C8.42954 25.7311 26.1445 8.02175 47.9277 8.02175C58.4767 8.02622 68.3906 12.1385 75.8473 19.5996C83.3035 27.0615 87.4065 36.9805 87.4039 47.5303C87.3942 69.2975 69.6789 87.0091 47.9128 87.0091H47.8971C40.8099 87.0054 33.8591 85.1021 27.7973 81.5053L26.3547 80.6499L11.4079 84.5687L15.399 70.0009Z" fill="url(#paint1_linear_422_459)"/>
<path d="M36.037 27.6392C35.1476 25.6625 34.2116 25.6226 33.3658 25.5879C32.6732 25.5581 31.8815 25.5603 31.0905 25.5603C30.2988 25.5603 29.0124 25.8582 27.925 27.0454C26.8366 28.2338 23.7695 31.1055 23.7695 36.9462C23.7695 42.787 28.0238 48.432 28.6169 49.2249C29.2107 50.0162 36.8298 62.3858 48.8968 67.1444C58.9254 71.099 60.9663 70.3125 63.1428 70.1142C65.3197 69.9166 70.1671 67.2432 71.156 64.471C72.1457 61.6992 72.1457 59.3232 71.8489 58.8267C71.5522 58.3321 70.7605 58.035 69.5733 57.4416C68.386 56.8481 62.549 53.9757 61.4609 53.5794C60.3725 53.1836 59.5811 52.986 58.7894 54.1747C57.9976 55.3616 55.7242 58.035 55.0312 58.8267C54.339 59.6203 53.6461 59.7191 52.4592 59.1253C51.2712 58.5296 47.4478 57.2775 42.9118 53.2335C39.3825 50.0867 36.9998 46.2007 36.3072 45.012C35.6147 43.8251 36.2331 43.1817 36.8284 42.5902C37.3618 42.0582 38.016 41.2039 38.6101 40.5109C39.2021 39.8176 39.3996 39.3229 39.7955 38.5312C40.1917 37.7387 39.9934 37.0454 39.6971 36.4516C39.3996 35.8578 37.0926 29.9865 36.037 27.6392Z" fill="white"/>
<defs>
<linearGradient id="paint0_linear_422_459" x1="4607.69" y1="9255.18" x2="4607.69" y2="1.65955" gradientUnits="userSpaceOnUse">
<stop stop-color="#1FAF38"/>
<stop offset="1" stop-color="#60D669"/>
</linearGradient>
<linearGradient id="paint1_linear_422_459" x1="4771.3" y1="9585.35" x2="4771.3" y2="0" gradientUnits="userSpaceOnUse">
<stop stop-color="#F9F9F9"/>
<stop offset="1" stop-color="white"/>
</linearGradient>
</defs>
</svg>
