<svg width="23" height="23" viewBox="0 0 23 23" fill="none" xmlns="http://www.w3.org/2000/svg">
<path d="M18.9668 1.03809C19.7549 0.380877 20.8547 0.302617 21.626 0.932617L21.7764 1.06836L21.792 1.08398L21.8066 1.10156C22.5069 1.94249 22.5486 3.13786 21.7764 3.91113L14.2578 11.4346L21.5566 18.9521L21.5693 18.9658L21.582 18.9805C22.2712 19.8082 22.3199 20.977 21.585 21.751C21.2167 22.264 20.5768 22.3867 20.1865 22.3867C19.7152 22.3867 19.2511 22.2201 18.8213 21.79L11.3096 14.2725L3.82129 21.7656C3.45132 22.2666 2.8192 22.3867 2.43262 22.3867C1.96134 22.3867 1.49716 22.2201 1.06738 21.79L1.05176 21.7744L1.03711 21.7568C0.336882 20.9158 0.294936 19.7205 1.06738 18.9473L8.58008 11.4287L1.06738 3.91113L1.05176 3.89551L1.03711 3.87793C0.336852 3.03692 0.294921 1.8416 1.06738 1.06836L1.08398 1.05176L1.10156 1.03809C1.94224 0.337045 3.13725 0.294888 3.91016 1.06836L11.4219 8.58496L18.9336 1.06836L18.9492 1.05176L18.9668 1.03809Z" fill="white" stroke="white"/>
</svg>
